<?xml version="1.0" standalone="no"?>
<!DOCTYPE svg PUBLIC "-//W3C//DTD SVG 1.1//EN" "http://www.w3.org/Graphics/SVG/1.1/DTD/svg11.dtd" >
<svg xmlns="http://www.w3.org/2000/svg" xmlns:xlink="http://www.w3.org/1999/xlink" version="1.1">
<metadata>
Created by FontForge 20190801 at Fri Mar  7 19:53:43 2014
 By root
Copyright \(c\) 2007 by Jonas Schudel and Dalton Maag Ltd. All rights reserved.
</metadata>
<defs>
<font id="Effra-Medium" horiz-adv-x="360" >
  <font-face 
    font-family="Effra"
    font-weight="500"
    font-stretch="normal"
    units-per-em="1000"
    panose-1="2 0 6 6 8 0 0 2 0 4"
    ascent="800"
    descent="-200"
    x-height="469"
    cap-height="667"
    bbox="-157 -233 1255 931"
    underline-thickness="20"
    underline-position="-133"
    stemh="101"
    stemv="118"
    unicode-range="U+0020-FB04"
  />
<missing-glyph horiz-adv-x="560" 
d="M50 0v700h460v-700h-460zM115 54h330v592h-330v-592z" />
    <glyph glyph-name="ff" unicode="ff" horiz-adv-x="651" 
d="M93 0v373h-80v96h80v25c0 156 110 191 170 191c43 0 89 -10 136 -49l-55 -78c-19 15 -43 25 -64 25c-45 0 -70 -31 -70 -83v-31h194v29c0 136 94 187 174 187c43 0 98 -8 146 -49l-55 -78c-21 15 -47 25 -72 25c-47 0 -76 -31 -76 -87v-27h121v-96h-120v-373h-118v373
h-193v-373h-118z" />
    <glyph glyph-name="fi" unicode="fi" horiz-adv-x="565" 
d="M93 0v373h-80v96h80v5c0 163 112 211 236 211c47 0 125 -15 181 -50l-49 -89c-31 19 -85 38 -133 38c-83 0 -118 -26 -118 -90v-25h292v-469h-118v373h-173v-373h-118z" />
    <glyph glyph-name="fl" unicode="fl" horiz-adv-x="570" 
d="M93 0v373h-80v96h80v14c0 154 101 202 222 202c97 0 178 -39 197 -50v-635h-118v572c-17 7 -53 12 -81 12c-77 0 -103 -26 -103 -99v-16h121v-96h-120v-373h-118z" />
    <glyph glyph-name="ffi" unicode="ffi" horiz-adv-x="876" 
d="M93 0v373h-80v96h80v25c0 156 110 191 170 191c43 0 89 -10 136 -49l-55 -78c-19 15 -43 25 -64 25c-45 0 -70 -31 -70 -83v-31h194v5c0 163 111 211 229 211c56 0 131 -15 188 -50l-49 -89c-31 19 -85 38 -133 38c-83 0 -118 -26 -118 -105v-10h292v-469h-118v373h-173
v-373h-118v373h-193v-373h-118z" />
    <glyph glyph-name="ffl" unicode="ffl" horiz-adv-x="881" 
d="M93 0v373h-80v96h80v25c0 156 110 191 170 191c43 0 89 -10 136 -49l-55 -78c-19 15 -43 25 -64 25c-45 0 -70 -31 -70 -83v-31h194v14c0 154 101 202 222 202c97 0 178 -39 197 -50v-635h-118v572c-17 7 -53 12 -81 12c-77 0 -103 -26 -103 -99v-16h121v-96h-120v-373
h-118v373h-193v-373h-118z" />
    <glyph glyph-name=".notdef" horiz-adv-x="560" 
d="M50 0v700h460v-700h-460zM115 54h330v592h-330v-592z" />
    <glyph glyph-name=".null" horiz-adv-x="0" 
 />
    <glyph glyph-name="CR" horiz-adv-x="175" 
 />
    <glyph glyph-name="space" unicode=" " horiz-adv-x="181" 
 />
    <glyph glyph-name="exclam" unicode="!" horiz-adv-x="279" 
d="M76 209l-2 458h131l-2 -458h-127zM68 0v138h143v-138h-143z" />
    <glyph glyph-name="quotedbl" unicode="&#x22;" horiz-adv-x="388" 
d="M53 435v232h112v-232h-112zM223 435v232h112v-232h-112z" />
    <glyph glyph-name="numbersign" unicode="#" horiz-adv-x="745" 
d="M121 0l40 151h-93v93h118l38 142h-95v93h120l40 150h106l-40 -150h123l40 150h106l-40 -150h93v-93h-118l-38 -142h95v-93h-120l-40 -151h-106l40 151h-123l-40 -151h-106zM292 244h123l38 142h-123z" />
    <glyph glyph-name="dollar" unicode="$" horiz-adv-x="545" 
d="M13 104l84 77c29 -32 75 -80 143 -90v184c-7 3 -10 1 -17 4c-128 35 -176 101 -176 183c0 88 61 164 193 175v92h75v-92c112 -13 156 -71 173 -88l-83 -75c-11 12 -39 45 -90 58v-164c100 -24 191 -75 191 -197c0 -100 -79 -168 -191 -184v-93h-75v91
c-114 11 -190 72 -227 119zM315 254v-161c53 9 76 36 76 81c0 35 -15 59 -76 80zM240 385v151c-59 -8 -80 -38 -80 -74c0 -39 19 -58 80 -77z" />
    <glyph glyph-name="percent" unicode="%" horiz-adv-x="925" 
d="M203 0l406 630h107l-406 -630h-107zM210 285c-92 0 -159 61 -159 181s67 181 159 181s159 -61 159 -181s-67 -181 -159 -181zM210 364c29 0 61 25 61 102s-32 102 -61 102s-61 -25 -61 -102s32 -102 61 -102zM715 -9c-92 0 -159 61 -159 181s67 181 159 181
s159 -61 159 -181s-67 -181 -159 -181zM715 70c29 0 61 25 61 102s-32 102 -61 102s-61 -25 -61 -102s32 -102 61 -102z" />
    <glyph glyph-name="ampersand" unicode="&#x26;" horiz-adv-x="643" 
d="M480 0l-51 61c-43 -44 -98 -77 -185 -77c-145 0 -217 89 -217 191c0 75 34 142 131 211l-2 3c-35 41 -49 85 -49 130c0 88 68 166 191 166c114 0 158 -69 179 -112l-88 -56c-33 55 -59 65 -84 65c-47 0 -73 -27 -73 -63c0 -31 18 -59 42 -86l160 -194l86 105l88 -71
l-101 -123l125 -150h-152zM357 148l-131 156c-60 -45 -76 -78 -76 -122c0 -51 32 -87 100 -87c48 0 79 22 107 53z" />
    <glyph glyph-name="quotesingle" unicode="'" horiz-adv-x="218" 
d="M53 435v232h112v-232h-112z" />
    <glyph glyph-name="parenleft" unicode="(" horiz-adv-x="297" 
d="M269 -93h-116c-32 61 -95 202 -95 399s63 339 95 400h116c-45 -77 -86 -237 -86 -400c0 -161 40 -324 86 -399z" />
    <glyph glyph-name="parenright" unicode=")" horiz-adv-x="297" 
d="M144 -93h-116c43 75 86 238 86 399c0 163 -43 323 -86 400h116c32 -61 95 -203 95 -400s-63 -338 -95 -399z" />
    <glyph glyph-name="asterisk" unicode="*" horiz-adv-x="501" 
d="M104 380l-46 80l111 58l-111 58l46 80l106 -67l-5 125h92l-4 -125l104 67l46 -80l-109 -58l109 -58l-46 -80l-104 67l4 -125h-92l5 125z" />
    <glyph glyph-name="plus" unicode="+" horiz-adv-x="545" 
d="M74 272v99h149v147h100v-147h149v-99h-149v-146h-100v146h-149z" />
    <glyph glyph-name="comma" unicode="," horiz-adv-x="279" 
d="M66 -143l63 143h-51v139h143v-137l-85 -145h-70z" />
    <glyph glyph-name="hyphen" unicode="-" horiz-adv-x="441" 
d="M68 223v112h305v-112h-305z" />
    <glyph glyph-name="period" unicode="." horiz-adv-x="279" 
d="M68 0v138h143v-138h-143z" />
    <glyph glyph-name="slash" unicode="/" horiz-adv-x="426" 
d="M23 -16l266 701h114l-263 -701h-117z" />
    <glyph glyph-name="zero" unicode="0" horiz-adv-x="545" 
d="M272 -16c-163 0 -246 139 -246 339c0 195 83 325 247 325c163 0 246 -130 246 -325c0 -200 -83 -339 -247 -339zM273 92c83 0 125 101 125 231c0 126 -43 216 -126 216s-125 -90 -125 -216c0 -130 43 -231 126 -231z" />
    <glyph glyph-name="one" unicode="1" horiz-adv-x="545" 
d="M131 0v103h108v398l-121 -64l-49 92l185 101h103v-527h104v-103h-330z" />
    <glyph glyph-name="two" unicode="2" horiz-adv-x="545" 
d="M63 0v79c0 115 85 183 159 246c74 64 116 85 116 142c0 36 -22 76 -90 76c-61 0 -98 -42 -117 -74l-88 63c32 53 94 116 215 116c144 0 206 -85 206 -170c0 -91 -64 -153 -128 -206c-77 -64 -140 -102 -140 -165h272v-107h-405z" />
    <glyph glyph-name="three" unicode="3" horiz-adv-x="545" 
d="M21 55l68 83c36 -32 78 -53 134 -53c72 0 118 43 118 107c0 56 -28 101 -109 101c-19 0 -40 -5 -56 -9l-35 56l161 181h-236v108h377v-90l-140 -164c112 -13 163 -85 163 -184c0 -132 -106 -209 -242 -209c-91 0 -156 30 -203 73z" />
    <glyph glyph-name="four" unicode="4" horiz-adv-x="545" 
d="M40 121v99l275 410h118v-409h65v-100h-65v-121h-113v121h-280zM154 221h166v243z" />
    <glyph glyph-name="five" unicode="5" horiz-adv-x="545" 
d="M24 54l66 85c36 -32 73 -52 137 -52c85 0 119 56 119 117c0 40 -25 106 -125 106c-45 0 -68 -11 -91 -19l-60 46l63 292h327v-110h-242l-25 -121c9 4 33 9 65 9c123 0 210 -77 210 -198c0 -117 -66 -227 -248 -227c-89 0 -149 29 -196 72z" />
    <glyph glyph-name="six" unicode="6" horiz-adv-x="545" 
d="M493 606l-51 -93l-30 15c-19 8 -46 16 -78 16c-95 0 -159 -90 -159 -180c29 17 68 44 132 44c116 0 196 -76 196 -206c0 -117 -75 -220 -215 -220c-133 0 -232 94 -232 310c0 209 96 356 279 356c73 0 132 -27 158 -42zM174 269c0 -141 52 -184 114 -184
c63 0 104 49 104 121c0 61 -39 101 -96 101c-60 0 -98 -22 -122 -38z" />
    <glyph glyph-name="seven" unicode="7" horiz-adv-x="545" 
d="M255 0h-128c56 179 171 433 225 519h-287v111h408v-106c-52 -83 -178 -371 -218 -524z" />
    <glyph glyph-name="eight" unicode="8" horiz-adv-x="545" 
d="M273 391c53 15 88 54 88 93c0 44 -36 76 -88 76c-49 0 -88 -32 -88 -79c0 -35 35 -75 88 -90zM271 294c-61 -13 -115 -57 -115 -114c0 -71 63 -99 117 -99s117 28 117 99c0 57 -58 101 -119 114zM153 349c-41 24 -79 75 -79 132c0 100 80 167 199 167
c130 0 199 -68 199 -162c0 -63 -39 -110 -82 -133c76 -32 120 -93 120 -174c0 -85 -66 -195 -237 -195c-173 0 -237 107 -237 193c0 81 46 141 117 172z" />
    <glyph glyph-name="nine" unicode="9" horiz-adv-x="545" 
d="M56 26l48 95c11 -7 24 -12 37 -17c23 -8 54 -16 86 -16c95 0 143 84 146 175c-21 -17 -60 -43 -135 -43c-116 0 -197 94 -197 208c0 117 79 220 219 220c133 0 232 -94 232 -310c0 -204 -84 -354 -267 -354c-74 0 -143 26 -169 42zM374 361c0 141 -52 184 -114 184
c-63 0 -108 -46 -108 -118c0 -59 39 -102 102 -102c65 0 96 20 120 36z" />
    <glyph glyph-name="colon" unicode=":" horiz-adv-x="279" 
d="M68 0v138h143v-138h-143zM68 331v138h143v-138h-143z" />
    <glyph glyph-name="semicolon" unicode=";" horiz-adv-x="291" 
d="M68 -143l63 143h-51v139h143v-137l-85 -145h-70zM80 331v138h143v-138h-143z" />
    <glyph glyph-name="less" unicode="&#x3c;" horiz-adv-x="545" 
d="M71 285v72l357 193l43 -85l-267 -144l267 -144l-43 -85z" />
    <glyph glyph-name="equal" unicode="=" horiz-adv-x="545" 
d="M74 355v99h398v-99h-398zM74 187v99h398v-99h-398z" />
    <glyph glyph-name="greater" unicode="&#x3e;" horiz-adv-x="545" 
d="M117 92l-43 85l267 144l-267 144l43 85l357 -193v-72z" />
    <glyph glyph-name="question" unicode="?" horiz-adv-x="512" 
d="M155 0v138h143v-138h-143zM166 209v22c0 50 6 118 83 171c43 29 90 63 90 106c0 40 -32 69 -87 69c-73 0 -122 -50 -136 -61l-78 70c13 18 78 98 215 98c130 0 206 -81 206 -173c0 -75 -29 -115 -88 -158c-58 -42 -85 -60 -85 -122v-22h-120z" />
    <glyph glyph-name="at" unicode="@" horiz-adv-x="958" 
d="M575 166v46l-35 2c-19 1 -41 2 -56 2c-71 0 -106 -35 -106 -74c0 -40 32 -64 88 -64c55 0 109 40 109 88zM251 53l-69 -71c-61 43 -139 148 -139 294c0 280 215 411 438 411c244 0 434 -126 434 -392c0 -246 -138 -311 -218 -311c-45 0 -86 17 -103 60
c-56 -50 -103 -60 -174 -60c-59 0 -152 48 -152 153c0 108 83 168 206 168c19 0 43 -1 64 -2l37 -2v11c0 47 -39 75 -95 75c-72 0 -108 -21 -139 -41l-54 80c42 32 91 59 207 59s194 -70 194 -170v-196c0 -20 12 -34 31 -34c35 0 91 54 91 215c0 212 -166 293 -334 293
c-142 0 -323 -82 -323 -308c0 -127 60 -202 98 -232z" />
    <glyph glyph-name="A" unicode="A" horiz-adv-x="646" 
d="M5 0l253 667h130l253 -667h-140l-58 169h-248l-58 -169h-132zM230 273h177l-88 259z" />
    <glyph glyph-name="B" unicode="B" horiz-adv-x="596" 
d="M70 0v667h229c141 0 216 -76 216 -174c0 -93 -80 -139 -106 -139c48 -5 139 -45 139 -163c0 -144 -108 -191 -249 -191h-229zM191 401h102c51 0 101 21 101 81c0 61 -53 78 -101 78h-102v-159zM191 107h107c47 0 125 8 125 93c0 79 -74 96 -125 96h-107v-189z" />
    <glyph glyph-name="C" unicode="C" horiz-adv-x="680" 
d="M569 198l88 -76c-39 -60 -147 -138 -274 -138c-199 0 -339 147 -339 346c0 194 140 353 343 353c132 0 217 -59 270 -134l-89 -79c-43 61 -96 102 -181 102c-131 0 -211 -111 -211 -239s81 -230 205 -230c116 0 156 63 188 95z" />
    <glyph glyph-name="D" unicode="D" horiz-adv-x="726" 
d="M70 0v667h249c208 0 354 -104 354 -337c0 -220 -150 -330 -355 -330h-248zM196 112h111c152 0 234 75 234 216c0 140 -70 227 -234 227h-111v-443z" />
    <glyph glyph-name="E" unicode="E" horiz-adv-x="568" 
d="M70 0v667h432v-111h-306v-157h225v-112h-225v-174h329v-113h-455z" />
    <glyph glyph-name="F" unicode="F" horiz-adv-x="534" 
d="M70 0v667h431v-111h-305v-173h228v-112h-228v-271h-126z" />
    <glyph glyph-name="G" unicode="G" horiz-adv-x="723" 
d="M421 246v107h239v-276c-52 -49 -134 -93 -267 -93c-218 0 -349 152 -349 346s140 353 343 353c132 0 217 -59 270 -134l-89 -79c-43 61 -96 102 -181 102c-131 0 -211 -111 -211 -239c0 -143 101 -235 222 -235c61 0 109 15 142 44v104h-119z" />
    <glyph glyph-name="H" unicode="H" horiz-adv-x="723" 
d="M70 0v667h126v-268h331v268h126v-667h-126v287h-331v-287h-126z" />
    <glyph glyph-name="I" unicode="I" horiz-adv-x="266" 
d="M70 0v667h126v-667h-126z" />
    <glyph glyph-name="J" unicode="J" horiz-adv-x="508" 
d="M10 77l88 80c43 -47 74 -58 121 -58c48 0 98 35 98 104v464h126v-471c0 -160 -114 -214 -218 -214s-167 34 -215 95z" />
    <glyph glyph-name="K" unicode="K" horiz-adv-x="621" 
d="M70 0v667h126v-274l247 274h143l-246 -273l273 -394h-152l-203 303l-62 -69v-234h-126z" />
    <glyph glyph-name="L" unicode="L" horiz-adv-x="553" 
d="M70 0v667h126v-555h329v-112h-455z" />
    <glyph glyph-name="M" unicode="M" horiz-adv-x="789" 
d="M62 0l32 667h117l185 -315l182 315h117l32 -667h-123l-22 462l-160 -272h-59l-161 265l-22 -455h-118z" />
    <glyph glyph-name="N" unicode="N" horiz-adv-x="713" 
d="M70 0v667h127l323 -474v474h123v-667h-124l-326 480v-480h-123z" />
    <glyph glyph-name="O" unicode="O" horiz-adv-x="782" 
d="M391 -18c-194 0 -347 157 -347 352s152 351 347 351c194 0 347 -156 347 -351s-153 -352 -347 -352zM391 101c132 0 215 110 215 236c0 128 -83 234 -215 234s-215 -106 -215 -234c0 -126 83 -236 215 -236z" />
    <glyph glyph-name="P" unicode="P" horiz-adv-x="558" 
d="M70 0v667h214c186 0 231 -129 231 -208c0 -149 -118 -211 -223 -211h-101v-248h-121zM191 354h91c64 0 105 41 105 101c0 63 -45 106 -105 106h-91v-207z" />
    <glyph glyph-name="Q" unicode="Q" horiz-adv-x="782" 
d="M628 -83l-80 102c-47 -23 -101 -37 -157 -37c-194 0 -347 157 -347 352s152 351 347 351c194 0 347 -156 347 -351c0 -103 -42 -193 -110 -258l75 -96zM472 116l-76 98l75 63l79 -102c36 43 56 99 56 162c0 128 -83 234 -215 234s-215 -106 -215 -234
c0 -126 83 -236 215 -236c29 0 56 5 81 15z" />
    <glyph glyph-name="R" unicode="R" horiz-adv-x="586" 
d="M70 0v667h221c168 0 230 -114 230 -199c0 -84 -36 -150 -112 -189l154 -279h-142l-135 263h-95v-263h-121zM191 367h101c64 0 101 43 101 96c0 57 -41 97 -101 97h-101v-193z" />
    <glyph glyph-name="S" unicode="S" horiz-adv-x="593" 
d="M31 107l88 81c32 -37 86 -90 169 -90c79 0 116 41 116 92c0 57 -40 84 -160 108c-122 24 -179 106 -179 195c0 100 75 192 232 192c142 0 198 -76 214 -94l-83 -78c-14 12 -57 61 -135 61c-69 0 -101 -42 -101 -75c0 -47 30 -76 139 -97c104 -21 199 -81 199 -215
c0 -116 -101 -205 -240 -205c-133 0 -217 72 -259 125z" />
    <glyph glyph-name="T" unicode="T" horiz-adv-x="624" 
d="M249 0v556h-226v111h578v-111h-226v-556h-126z" />
    <glyph glyph-name="U" unicode="U" horiz-adv-x="674" 
d="M65 246v421h126v-399c0 -101 37 -165 146 -165s146 64 146 165v399h126v-421c0 -148 -99 -264 -272 -264s-272 116 -272 264z" />
    <glyph glyph-name="V" unicode="V" horiz-adv-x="636" 
d="M253 0l-248 667h140l177 -509l177 509h132l-248 -667h-130z" />
    <glyph glyph-name="W" unicode="W" horiz-adv-x="880" 
d="M183 0l-173 667h138l109 -499l129 480h114l130 -480l108 499h132l-175 -667h-132l-124 441l-126 -441h-130z" />
    <glyph glyph-name="X" unicode="X" horiz-adv-x="605" 
d="M5 0l222 345l-213 322h152l139 -218l134 218h137l-205 -319l229 -348h-152l-154 243l-152 -243h-137z" />
    <glyph glyph-name="Y" unicode="Y" horiz-adv-x="600" 
d="M236 0v293l-231 374h138l160 -266l160 266h132l-231 -374v-293h-128z" />
    <glyph glyph-name="Z" unicode="Z" horiz-adv-x="658" 
d="M53 0v110l393 446h-375v111h526v-111l-385 -446h393v-110h-552z" />
    <glyph glyph-name="bracketleft" unicode="[" horiz-adv-x="330" 
d="M73 -93v799h234v-105h-116v-587h116v-107h-234z" />
    <glyph glyph-name="backslash" unicode="\" horiz-adv-x="426" 
d="M286 -16l-263 701h114l266 -701h-117z" />
    <glyph glyph-name="bracketright" unicode="]" horiz-adv-x="330" 
d="M23 -93v107h116v587h-116v105h234v-799h-234z" />
    <glyph glyph-name="asciicircum" unicode="^" horiz-adv-x="562" 
d="M53 308l173 359h110l173 -359h-117l-111 245l-111 -245h-117z" />
    <glyph glyph-name="underscore" unicode="_" horiz-adv-x="500" 
d="M0 -120v55h500v-55h-500z" />
    <glyph glyph-name="grave" unicode="`" horiz-adv-x="502" 
d="M223 540l-79 142h126l48 -142h-95z" />
    <glyph glyph-name="a" unicode="a" horiz-adv-x="504" 
d="M338 0l-3 44c-25 -31 -81 -59 -145 -59c-76 0 -162 47 -162 152c0 108 83 168 206 168c19 0 43 -1 64 -2l37 -2v11c0 47 -41 75 -101 75c-67 0 -102 -21 -133 -41l-54 80c38 27 92 59 203 59c120 0 198 -70 198 -170v-315h-110zM335 166v46l-35 2c-19 1 -41 2 -56 2
c-76 0 -103 -35 -103 -74c0 -40 29 -64 85 -64c55 0 109 40 109 88z" />
    <glyph glyph-name="b" unicode="b" horiz-adv-x="555" 
d="M58 15v652h118v-230c16 16 64 42 128 42c135 0 215 -107 215 -239c0 -140 -102 -256 -265 -256c-81 0 -153 16 -196 31zM176 273v-177c19 -7 33 -10 76 -10c95 0 147 73 147 151c0 72 -34 139 -114 139c-72 0 -109 -39 -109 -103z" />
    <glyph glyph-name="c" unicode="c" horiz-adv-x="492" 
d="M401 138l70 -76c-44 -47 -103 -77 -183 -77c-160 0 -252 101 -252 250c0 136 103 250 252 250c76 0 140 -29 184 -76l-75 -76c-27 31 -62 49 -109 49c-91 0 -133 -71 -133 -147c0 -71 42 -147 133 -147c47 0 86 19 113 50z" />
    <glyph glyph-name="d" unicode="d" horiz-adv-x="557" 
d="M385 0l-3 46c-24 -27 -69 -62 -140 -62c-101 0 -206 87 -206 242c0 73 24 128 56 167c52 63 134 86 180 86c61 0 76 -8 110 -21v209h117v-667h-114zM382 208v144c-23 19 -50 25 -97 25s-75 -20 -98 -49c-20 -27 -32 -63 -32 -102c0 -80 41 -140 117 -140
c80 0 110 69 110 122z" />
    <glyph glyph-name="e" unicode="e" horiz-adv-x="538" 
d="M435 140l64 -72c-8 -8 -68 -84 -215 -84c-150 0 -248 105 -248 256c0 138 98 245 238 245c172 0 231 -137 231 -269v-17h-350c0 -69 68 -114 130 -114c91 0 134 39 150 55zM154 284h230c0 47 -37 102 -110 102c-77 0 -120 -55 -120 -102z" />
    <glyph glyph-name="f" unicode="f" horiz-adv-x="340" 
d="M93 0v373h-80v96h80v29c0 136 94 187 174 187c43 0 98 -8 146 -49l-55 -78c-21 15 -47 25 -72 25c-47 0 -76 -31 -76 -87v-27h121v-96h-120v-373h-118z" />
    <glyph glyph-name="g" unicode="g" horiz-adv-x="555" 
d="M81 -163l53 87c37 -25 78 -36 137 -36c61 0 108 39 108 106v51c-32 -27 -65 -45 -128 -45c-135 0 -215 96 -215 228c0 140 102 251 265 251c81 0 153 -16 196 -31v-456c0 -131 -96 -204 -224 -204c-98 0 -150 17 -192 49zM379 199v168c-19 7 -33 10 -76 10
c-95 0 -147 -69 -147 -146c0 -72 34 -128 114 -128c72 0 109 29 109 96z" />
    <glyph glyph-name="h" unicode="h" horiz-adv-x="551" 
d="M58 0v667h116v-246c24 27 69 58 141 58c116 0 180 -78 180 -194v-285h-118v284c0 60 -36 94 -88 94c-65 0 -113 -55 -113 -124v-254h-118z" />
    <glyph glyph-name="i" unicode="i" horiz-adv-x="244" 
d="M59 543v124h126v-124h-126zM63 0v469h118v-469h-118z" />
    <glyph glyph-name="j" unicode="j" horiz-adv-x="244" 
d="M58 543v124h126v-124h-126zM-87 -163l44 80c12 -7 29 -16 54 -16c31 0 52 26 52 75v493h118v-470c0 -92 -22 -199 -154 -199c-56 0 -91 21 -114 37z" />
    <glyph glyph-name="k" unicode="k" horiz-adv-x="512" 
d="M58 0v667h118v-364l169 166h139l-176 -173l196 -296h-141l-136 216l-51 -50v-166h-118z" />
    <glyph glyph-name="l" unicode="l" horiz-adv-x="234" 
d="M58 0v667h118v-667h-118z" />
    <glyph glyph-name="m" unicode="m" horiz-adv-x="852" 
d="M58 0v469h113l3 -53c24 27 60 63 136 63c62 0 109 -23 141 -68c48 49 94 68 161 68c119 0 184 -75 184 -194v-285h-118v284c0 60 -32 94 -84 94c-65 0 -108 -55 -108 -124v-254h-118v284c0 60 -32 94 -84 94c-65 0 -108 -55 -108 -124v-254h-118z" />
    <glyph glyph-name="n" unicode="n" horiz-adv-x="551" 
d="M58 0v469h113l3 -53c24 26 67 63 141 63c117 0 180 -75 180 -194v-285h-118v284c0 60 -36 94 -88 94c-65 0 -113 -55 -113 -124v-254h-118z" />
    <glyph glyph-name="o" unicode="o" horiz-adv-x="576" 
d="M36 235c0 136 103 250 252 250s252 -114 252 -250s-103 -251 -252 -251s-252 115 -252 251zM288 86c91 0 133 81 133 149s-42 148 -133 148s-133 -80 -133 -148s42 -149 133 -149z" />
    <glyph glyph-name="p" unicode="p" horiz-adv-x="571" 
d="M58 -200v669h114l3 -53c24 27 72 62 149 62c143 0 211 -122 211 -246c0 -73 -24 -123 -56 -162c-53 -64 -118 -86 -185 -86c-61 0 -85 12 -119 25v-209h-117zM175 254v-139c23 -19 59 -29 106 -29c85 0 135 72 135 146c0 79 -32 144 -122 144c-72 0 -119 -69 -119 -122z
" />
    <glyph glyph-name="q" unicode="q" horiz-adv-x="555" 
d="M379 -200v227c-19 -19 -58 -43 -117 -43c-146 0 -226 112 -226 244c0 140 102 251 265 251c81 0 153 -16 196 -31v-648h-118zM379 195v172c-19 7 -33 10 -76 10c-104 0 -147 -65 -147 -146c0 -72 34 -144 114 -144c72 0 109 28 109 108z" />
    <glyph glyph-name="r" unicode="r" horiz-adv-x="382" 
d="M58 0v469h113l3 -59c22 27 64 68 141 68c23 0 39 -2 58 -9l-24 -111c-16 7 -31 9 -54 9c-65 0 -119 -45 -119 -114v-253h-118z" />
    <glyph glyph-name="s" unicode="s" horiz-adv-x="478" 
d="M35 57l71 77c29 -29 75 -51 132 -51c51 0 84 12 84 43c0 26 -16 44 -119 68c-63 16 -150 53 -150 144c0 93 100 147 193 147c83 0 137 -17 184 -52l-61 -83c-25 19 -67 37 -123 37s-75 -19 -75 -43c0 -29 36 -42 113 -61c95 -21 156 -62 156 -151
c0 -91 -92 -148 -201 -148c-88 0 -161 25 -204 73z" />
    <glyph glyph-name="t" unicode="t" horiz-adv-x="402" 
d="M98 160v213h-80v96h80v152h118v-152h126v-96h-126v-205c0 -53 17 -83 57 -83c37 0 56 12 76 27l50 -73c-47 -39 -89 -54 -145 -54c-116 0 -156 70 -156 175z" />
    <glyph glyph-name="u" unicode="u" horiz-adv-x="551" 
d="M56 184v285h118v-284c0 -60 36 -94 88 -94c65 0 113 55 113 124v254h118v-469h-113l-3 53c-24 -27 -67 -63 -141 -63c-117 0 -180 75 -180 194z" />
    <glyph glyph-name="v" unicode="v" horiz-adv-x="527" 
d="M204 0l-199 469h136l126 -336l126 336h129l-198 -469h-120z" />
    <glyph glyph-name="w" unicode="w" horiz-adv-x="749" 
d="M168 0l-159 469h130l90 -326l99 326h99l100 -326l89 326h124l-159 -469h-114l-96 283l-93 -283h-110z" />
    <glyph glyph-name="x" unicode="x" horiz-adv-x="507" 
d="M5 0l178 237l-170 232h149l94 -136l95 136h133l-165 -220l183 -249h-149l-107 153l-108 -153h-133z" />
    <glyph glyph-name="y" unicode="y" horiz-adv-x="527" 
d="M24 -176l53 83c13 -11 28 -23 52 -23c32 0 49 26 72 82l15 38l-211 465h136l134 -321l118 321h129l-196 -469c-37 -92 -67 -212 -189 -212c-53 0 -86 13 -113 36z" />
    <glyph glyph-name="z" unicode="z" horiz-adv-x="472" 
d="M46 0v90l239 280h-232v99h379v-92l-247 -281h247v-96h-386z" />
    <glyph glyph-name="braceleft" unicode="{" horiz-adv-x="304" 
d="M118 29l-14 170c-3 41 -22 73 -73 73v70c51 0 70 32 73 73l14 170c5 59 18 96 49 121h124c-24 -24 -45 -71 -48 -110l-16 -195c-4 -48 -33 -83 -70 -94c37 -11 66 -46 70 -94l16 -195c3 -39 24 -87 48 -111h-124c-31 25 -44 63 -49 122z" />
    <glyph glyph-name="bar" unicode="|" horiz-adv-x="245" 
d="M68 -164v997h109v-997h-109z" />
    <glyph glyph-name="braceright" unicode="}" horiz-adv-x="304" 
d="M137 -93h-124c24 24 45 72 48 111l16 195c4 48 33 83 70 94c-37 11 -66 46 -70 94l-16 195c-3 39 -24 86 -48 110h124c31 -25 44 -62 49 -121l14 -170c3 -41 22 -73 73 -73v-70c-51 0 -70 -32 -73 -73l-14 -170c-5 -59 -18 -97 -49 -122z" />
    <glyph glyph-name="asciitilde" unicode="~" horiz-adv-x="499" 
d="M88 238l-50 76c24 27 75 65 133 65c61 0 84 -46 143 -46c50 0 76 27 97 40l50 -76c-25 -27 -73 -67 -132 -67c-61 0 -86 48 -144 48c-49 0 -77 -25 -97 -40z" />
    <glyph glyph-name="uni00A0" unicode="&#xa0;" horiz-adv-x="200" 
 />
    <glyph glyph-name="exclamdown" unicode="&#xa1;" horiz-adv-x="279" 
d="M74 -198l2 458h127l2 -458h-131zM68 331v138h143v-138h-143z" />
    <glyph glyph-name="cent" unicode="&#xa2;" horiz-adv-x="545" 
d="M277 -19v86c-131 19 -205 119 -205 247c0 121 81 225 205 246v89h75v-87c64 -7 117 -33 156 -74l-75 -76c-21 24 -48 41 -81 48v-291c35 6 63 22 85 48l70 -76c-39 -43 -90 -69 -155 -76v-84h-75zM277 175v278c-59 -23 -86 -83 -86 -139c0 -49 28 -115 86 -139z" />
    <glyph glyph-name="sterling" unicode="&#xa3;" horiz-adv-x="545" 
d="M117 0v269h-76v96h76v77c0 73 40 206 212 206c104 0 152 -47 182 -75l-77 -83c-29 29 -53 47 -103 47c-65 0 -88 -59 -88 -119v-53h194v-96h-194v-157h274v-112h-400z" />
    <glyph glyph-name="currency" unicode="&#xa4;" horiz-adv-x="545" 
d="M32 162l63 64c-19 31 -28 66 -28 103s9 71 28 103l-63 64l69 69l63 -63c31 20 68 32 108 32c39 0 76 -12 108 -32l63 63l69 -69l-64 -64c19 -31 29 -66 29 -103c0 -39 -10 -72 -29 -103l64 -64l-69 -69l-63 62c-33 -21 -69 -31 -108 -31c-40 0 -76 10 -108 31l-63 -62z
M163 329c0 -60 49 -109 109 -109s109 49 109 109s-49 109 -109 109s-109 -49 -109 -109z" />
    <glyph glyph-name="yen" unicode="&#xa5;" horiz-adv-x="545" 
d="M74 116v74h139v77h-139v74h97l-165 290h138l132 -266l131 266h132l-165 -290h108v-74h-149v-77h149v-74h-149v-116h-120v116h-139z" />
    <glyph glyph-name="brokenbar" unicode="&#xa6;" horiz-adv-x="245" 
d="M68 -164v379h109v-379h-109zM68 454v379h109v-379h-109z" />
    <glyph glyph-name="section" unicode="&#xa7;" horiz-adv-x="452" 
d="M342 195l-201 132c-67 43 -97 105 -96 168c0 97 68 190 194 190c71 0 124 -40 146 -56l-57 -86c-35 24 -58 35 -91 35c-48 0 -77 -38 -77 -71c0 -30 5 -54 53 -86l193 -131zM57 -156l57 86c35 -24 58 -35 91 -35c48 0 77 38 77 71c0 29 -5 54 -53 86l-193 131l64 95
l201 -132c67 -43 97 -105 96 -168c0 -97 -68 -190 -194 -190c-71 0 -124 40 -146 56z" />
    <glyph glyph-name="dieresis" unicode="&#xa8;" horiz-adv-x="346" 
d="M207 557v109h115v-109h-115zM22 557v109h115v-109h-115z" />
    <glyph glyph-name="copyright" unicode="&#xa9;" horiz-adv-x="809" 
d="M404 -14c-194 0 -346 154 -346 349c0 194 152 349 347 349c194 0 346 -155 346 -349c0 -195 -153 -349 -347 -349zM404 69c147 0 257 115 257 266c0 149 -111 266 -256 266c-146 0 -258 -117 -258 -266c0 -151 110 -266 257 -266zM497 279l65 -52
c-31 -44 -84 -80 -152 -80c-115 0 -190 82 -190 191c0 104 79 189 190 189c68 0 121 -36 152 -80l-65 -50c-16 23 -43 47 -82 47c-63 0 -102 -47 -102 -107c0 -56 42 -105 102 -105c39 0 66 24 82 47z" />
    <glyph glyph-name="ordfeminine" unicode="&#xaa;" horiz-adv-x="379" 
d="M90 546l-42 60c33 25 67 42 138 42c84 0 138 -49 138 -118v-208h-81c-1 3 -1 6 -1 9c0 5 -1 11 -1 16c-16 -16 -53 -33 -84 -33c-58 0 -118 29 -118 102c0 75 57 107 141 107c17 0 38 -1 61 -3v8c0 27 -17 47 -58 47c-47 0 -69 -14 -93 -29zM241 436v18
c-13 3 -40 3 -55 3c-47 0 -66 -15 -66 -38c0 -27 17 -35 54 -35c36 0 67 25 67 52z" />
    <glyph glyph-name="guillemotleft" unicode="&#xab;" horiz-adv-x="536" 
d="M162 47l-104 194l104 194h115l-99 -194l99 -194h-115zM358 47l-104 194l104 194h115l-99 -194l99 -194h-115z" />
    <glyph glyph-name="logicalnot" unicode="&#xac;" horiz-adv-x="545" 
d="M74 272v99h398v-245h-100v146h-298z" />
    <glyph glyph-name="uni00AD" unicode="&#xad;" horiz-adv-x="441" 
d="M68 223v112h305v-112h-305z" />
    <glyph glyph-name="registered" unicode="&#xae;" horiz-adv-x="809" 
d="M274 166v345h145c93 0 129 -60 129 -104c0 -40 -20 -78 -63 -98l83 -143h-92l-75 131h-44v-131h-83zM357 361h59c36 0 48 17 48 40c0 27 -13 42 -48 42h-59v-82zM404 -14c-194 0 -346 154 -346 349c0 194 152 349 347 349c194 0 346 -155 346 -349
c0 -195 -153 -349 -347 -349zM404 69c147 0 257 115 257 266c0 149 -111 266 -256 266c-146 0 -258 -117 -258 -266c0 -151 110 -266 257 -266z" />
    <glyph glyph-name="macron" unicode="&#xaf;" horiz-adv-x="347" 
d="M43 557v92h261v-92h-261z" />
    <glyph glyph-name="degree" unicode="&#xb0;" horiz-adv-x="337" 
d="M28 530c0 79 63 137 140 137c79 0 141 -59 141 -136c0 -79 -63 -137 -140 -137c-79 0 -141 59 -141 136zM169 467c36 0 62 27 62 64c0 36 -26 63 -63 63c-36 0 -62 -27 -62 -64c0 -36 26 -63 63 -63z" />
    <glyph glyph-name="plusminus" unicode="&#xb1;" horiz-adv-x="545" 
d="M74 0v99h398v-99h-398zM74 272v99h149v147h100v-147h149v-99h-149v-136h-100v136h-149z" />
    <glyph glyph-name="twosuperior" unicode="&#xb2;" 
d="M49 295v45c0 104 166 139 166 191c0 24 -16 33 -39 33c-31 0 -70 -18 -97 -35l-36 70c33 23 86 48 145 48c88 0 128 -46 128 -106c0 -96 -103 -110 -156 -166h157v-80h-268z" />
    <glyph glyph-name="threesuperior" unicode="&#xb3;" 
d="M30 327l44 68c24 -19 55 -32 88 -32c32 0 54 13 54 41c0 35 -29 42 -66 42c-17 0 -36 -3 -49 -7l-16 35l106 84h-133v79h240v-76l-77 -61c69 -13 91 -55 91 -106c0 -64 -58 -109 -149 -109c-56 0 -101 17 -133 42z" />
    <glyph glyph-name="acute" unicode="&#xb4;" horiz-adv-x="502" 
d="M211 540l48 142h126l-79 -142h-95z" />
    <glyph glyph-name="mu" unicode="&#xb5;" horiz-adv-x="551" 
d="M59 -200v669h118v-284c0 -60 36 -94 88 -94c65 0 113 50 113 119v259h118v-469h-113l-3 48c-24 -27 -67 -58 -127 -58c-27 0 -45 5 -76 24v-214h-118z" />
    <glyph glyph-name="paragraph" unicode="&#xb6;" horiz-adv-x="557" 
d="M362 -122v789h122v-789h-122zM303 299h-30c-133 0 -235 44 -235 184s102 184 235 184h30v-368zM183 -122v377c27 -8 62 -10 90 -10h30v-367h-120z" />
    <glyph glyph-name="periodcentered" unicode="&#xb7;" horiz-adv-x="279" 
d="M68 254v138h143v-138h-143z" />
    <glyph glyph-name="cedilla" unicode="&#xb8;" horiz-adv-x="705" 
d="M92 -198l13 67c25 -9 48 -12 69 -12c39 0 58 11 58 32c0 16 -15 30 -54 30c-23 0 -46 -4 -63 -11l11 67c24 7 45 12 84 12c72 0 115 -38 115 -93c0 -70 -64 -106 -131 -106c-32 0 -56 3 -75 7c-11 2 -20 4 -27 7z" />
    <glyph glyph-name="onesuperior" unicode="&#xb9;" 
d="M173 295v238l-78 -39l-36 72l126 71h86v-342h-98z" />
    <glyph glyph-name="ordmasculine" unicode="&#xba;" horiz-adv-x="423" 
d="M43 481c0 96 70 167 169 167c97 0 168 -71 168 -167s-71 -167 -168 -167c-99 0 -169 71 -169 167zM212 394c51 0 76 40 76 87s-25 87 -76 87s-77 -40 -77 -87s26 -87 77 -87z" />
    <glyph glyph-name="guillemotright" unicode="&#xbb;" horiz-adv-x="536" 
d="M63 47l99 194l-99 194h115l104 -194l-104 -194h-115zM259 47l99 194l-99 194h115l104 -194l-104 -194h-115z" />
    <glyph glyph-name="questiondown" unicode="&#xbf;" horiz-adv-x="512" 
d="M229 331v138h143v-138h-143zM411 -47l78 -70c-13 -18 -78 -98 -215 -98c-130 0 -206 81 -206 173c0 75 29 115 88 158c58 42 85 60 85 122v22h120v-22c0 -51 -7 -117 -83 -171c-43 -29 -90 -63 -90 -106c0 -40 32 -69 87 -69c72 0 123 48 136 61z" />
    <glyph glyph-name="Agrave" unicode="&#xc0;" horiz-adv-x="646" 
d="M5 0l253 667h130l253 -667h-140l-58 169h-248l-58 -169h-132zM230 273h177l-88 259zM293 717l-114 156h146l73 -156h-105z" />
    <glyph glyph-name="Aacute" unicode="&#xc1;" horiz-adv-x="646" 
d="M5 0l253 667h130l253 -667h-140l-58 169h-248l-58 -169h-132zM230 273h177l-88 259zM265 717l73 156h146l-114 -156h-105z" />
    <glyph glyph-name="Acircumflex" unicode="&#xc2;" horiz-adv-x="646" 
d="M5 0l253 667h130l253 -667h-140l-58 169h-248l-58 -169h-132zM230 273h177l-88 259zM157 717l110 156h111l110 -156h-104l-62 82l-61 -82h-104z" />
    <glyph glyph-name="Atilde" unicode="&#xc3;" horiz-adv-x="646" 
d="M5 0l253 667h130l253 -667h-140l-58 169h-248l-58 -169h-132zM230 273h177l-88 259zM170 729l-49 75c25 25 70 61 128 61c59 0 79 -42 135 -42c47 0 73 22 92 37l49 -75c-24 -24 -69 -63 -127 -63s-80 44 -136 44c-47 0 -73 -22 -92 -37z" />
    <glyph glyph-name="Adieresis" unicode="&#xc4;" horiz-adv-x="646" 
d="M5 0l253 667h130l253 -667h-140l-58 169h-248l-58 -169h-132zM230 273h177l-88 259zM367 737v117h123v-117h-123zM154 737v117h123v-117h-123z" />
    <glyph glyph-name="Aring" unicode="&#xc5;" horiz-adv-x="646" 
d="M5 0l246 649c-35 23 -58 60 -58 107c0 75 58 128 131 128c75 0 132 -54 132 -127c0 -48 -24 -86 -61 -109l246 -648h-140l-58 169h-248l-58 -169h-132zM230 273h177l-88 259zM325 704c31 0 50 21 50 53c0 31 -19 52 -51 52c-31 0 -50 -21 -50 -53c0 -31 19 -52 51 -52z
" />
    <glyph glyph-name="AE" unicode="&#xc6;" horiz-adv-x="954" 
d="M0 0l383 667h505v-111h-308v-157h227v-112h-227v-174h331v-113h-455v169h-230l-97 -169h-129zM285 272h171v298z" />
    <glyph glyph-name="Ccedilla" unicode="&#xc7;" horiz-adv-x="680" 
d="M569 198l88 -76c-39 -60 -147 -138 -274 -138c-199 0 -339 147 -339 346c0 194 140 353 343 353c132 0 217 -59 270 -134l-89 -79c-43 61 -96 102 -181 102c-131 0 -211 -111 -211 -239s81 -230 205 -230c116 0 156 63 188 95zM251 -217l13 69c25 -9 49 -12 70 -12
c35 0 56 10 56 30c0 16 -16 29 -52 29c-23 0 -47 -4 -64 -11l11 68c24 7 46 12 85 12c72 0 117 -38 117 -93c0 -70 -66 -106 -133 -106c-32 0 -56 3 -75 7c-11 2 -20 4 -28 7z" />
    <glyph glyph-name="Egrave" unicode="&#xc8;" horiz-adv-x="568" 
d="M70 0v667h432v-111h-306v-157h225v-112h-225v-174h329v-113h-455zM264 717l-114 156h146l73 -156h-105z" />
    <glyph glyph-name="Eacute" unicode="&#xc9;" horiz-adv-x="568" 
d="M70 0v667h432v-111h-306v-157h225v-112h-225v-174h329v-113h-455zM230 717l73 156h146l-114 -156h-105z" />
    <glyph glyph-name="Ecircumflex" unicode="&#xca;" horiz-adv-x="568" 
d="M70 0v667h432v-111h-306v-157h225v-112h-225v-174h329v-113h-455zM120 717l110 156h111l110 -156h-104l-62 82l-61 -82h-104z" />
    <glyph glyph-name="Edieresis" unicode="&#xcb;" horiz-adv-x="568" 
d="M70 0v667h432v-111h-306v-157h225v-112h-225v-174h329v-113h-455zM330 737v117h123v-117h-123zM117 737v117h123v-117h-123z" />
    <glyph glyph-name="Igrave" unicode="&#xcc;" horiz-adv-x="266" 
d="M70 0v667h126v-667h-126zM92 717l-114 156h146l73 -156h-105z" />
    <glyph glyph-name="Iacute" unicode="&#xcd;" horiz-adv-x="266" 
d="M70 0v667h126v-667h-126zM70 717l73 156h146l-114 -156h-105z" />
    <glyph glyph-name="Icircumflex" unicode="&#xce;" horiz-adv-x="266" 
d="M70 0v667h126v-667h-126zM-32 717l110 156h111l110 -156h-104l-62 82l-61 -82h-104z" />
    <glyph glyph-name="Idieresis" unicode="&#xcf;" horiz-adv-x="266" 
d="M70 0v667h126v-667h-126zM178 737v117h123v-117h-123zM-35 737v117h123v-117h-123z" />
    <glyph glyph-name="Eth" unicode="&#xd0;" horiz-adv-x="726" 
d="M70 0v287h-67v102h67v278h249c208 0 354 -104 354 -337c0 -220 -150 -330 -355 -330h-248zM196 113h114c152 0 234 75 234 216c0 140 -70 227 -234 227h-114v-167h155v-102h-155v-174z" />
    <glyph glyph-name="Ntilde" unicode="&#xd1;" horiz-adv-x="713" 
d="M70 0v667h127l323 -474v474h123v-667h-124l-326 480v-480h-123zM183 729l-49 75c25 25 70 61 128 61c59 0 79 -42 135 -42c47 0 73 22 92 37l49 -75c-24 -24 -69 -63 -127 -63s-80 44 -136 44c-47 0 -73 -22 -92 -37z" />
    <glyph glyph-name="Ograve" unicode="&#xd2;" horiz-adv-x="782" 
d="M391 -18c-194 0 -347 157 -347 352s152 351 347 351c194 0 347 -156 347 -351s-153 -352 -347 -352zM391 101c132 0 215 110 215 236c0 128 -83 234 -215 234s-215 -106 -215 -234c0 -126 83 -236 215 -236zM360 717l-114 156h146l73 -156h-105z" />
    <glyph glyph-name="Oacute" unicode="&#xd3;" horiz-adv-x="782" 
d="M391 -18c-194 0 -347 157 -347 352s152 351 347 351c194 0 347 -156 347 -351s-153 -352 -347 -352zM391 101c132 0 215 110 215 236c0 128 -83 234 -215 234s-215 -106 -215 -234c0 -126 83 -236 215 -236zM328 717l73 156h146l-114 -156h-105z" />
    <glyph glyph-name="Ocircumflex" unicode="&#xd4;" horiz-adv-x="782" 
d="M391 -18c-194 0 -347 157 -347 352s152 351 347 351c194 0 347 -156 347 -351s-153 -352 -347 -352zM391 101c132 0 215 110 215 236c0 128 -83 234 -215 234s-215 -106 -215 -234c0 -126 83 -236 215 -236zM226 717l110 156h111l110 -156h-104l-62 82l-61 -82h-104z" />
    <glyph glyph-name="Otilde" unicode="&#xd5;" horiz-adv-x="782" 
d="M391 -18c-194 0 -347 157 -347 352s152 351 347 351c194 0 347 -156 347 -351s-153 -352 -347 -352zM391 101c132 0 215 110 215 236c0 128 -83 234 -215 234s-215 -106 -215 -234c0 -126 83 -236 215 -236zM239 729l-49 75c25 25 70 61 128 61c59 0 79 -42 135 -42
c47 0 73 22 92 37l49 -75c-24 -24 -69 -63 -127 -63s-80 44 -136 44c-47 0 -73 -22 -92 -37z" />
    <glyph glyph-name="Odieresis" unicode="&#xd6;" horiz-adv-x="782" 
d="M391 -18c-194 0 -347 157 -347 352s152 351 347 351c194 0 347 -156 347 -351s-153 -352 -347 -352zM391 101c132 0 215 110 215 236c0 128 -83 234 -215 234s-215 -106 -215 -234c0 -126 83 -236 215 -236zM436 737v117h123v-117h-123zM223 737v117h123v-117h-123z" />
    <glyph glyph-name="multiply" unicode="&#xd7;" horiz-adv-x="545" 
d="M91 208l113 113l-111 112l69 69l112 -111l113 113l68 -69l-113 -113l111 -111l-69 -69l-111 111l-113 -113z" />
    <glyph glyph-name="Oslash" unicode="&#xd8;" horiz-adv-x="782" 
d="M80 -11l66 95c-64 64 -102 151 -102 250c0 195 152 351 347 351c53 0 103 -11 150 -34l58 82l89 -56l-60 -86c68 -64 110 -156 110 -257c0 -195 -153 -352 -347 -352c-59 0 -113 15 -161 39l-61 -88zM557 490l-257 -369c27 -13 57 -20 91 -20c132 0 215 110 215 236
c0 59 -18 110 -49 153zM220 189l254 366c-27 11 -54 16 -83 16c-132 0 -215 -106 -215 -234c0 -56 15 -107 44 -148z" />
    <glyph glyph-name="Ugrave" unicode="&#xd9;" horiz-adv-x="674" 
d="M65 246v421h126v-399c0 -101 37 -165 146 -165s146 64 146 165v399h126v-421c0 -148 -99 -264 -272 -264s-272 116 -272 264zM313 717l-114 156h146l73 -156h-105z" />
    <glyph glyph-name="Uacute" unicode="&#xda;" horiz-adv-x="674" 
d="M65 246v421h126v-399c0 -101 37 -165 146 -165s146 64 146 165v399h126v-421c0 -148 -99 -264 -272 -264s-272 116 -272 264zM278 717l73 156h146l-114 -156h-105z" />
    <glyph glyph-name="Ucircumflex" unicode="&#xdb;" horiz-adv-x="674" 
d="M65 246v421h126v-399c0 -101 37 -165 146 -165s146 64 146 165v399h126v-421c0 -148 -99 -264 -272 -264s-272 116 -272 264zM173 717l110 156h111l110 -156h-104l-62 82l-61 -82h-104z" />
    <glyph glyph-name="Udieresis" unicode="&#xdc;" horiz-adv-x="674" 
d="M65 246v421h126v-399c0 -101 37 -165 146 -165s146 64 146 165v399h126v-421c0 -148 -99 -264 -272 -264s-272 116 -272 264zM382 737v117h123v-117h-123zM169 737v117h123v-117h-123z" />
    <glyph glyph-name="Yacute" unicode="&#xdd;" horiz-adv-x="600" 
d="M236 0v293l-231 374h138l160 -266l160 266h132l-231 -374v-293h-128zM248 717l73 156h146l-114 -156h-105z" />
    <glyph glyph-name="Thorn" unicode="&#xde;" horiz-adv-x="558" 
d="M70 0v667h121v-114h93c186 0 231 -129 231 -208c0 -149 -118 -211 -223 -211h-101v-134h-121zM191 240h91c64 0 105 41 105 101c0 63 -45 106 -105 106h-91v-207z" />
    <glyph glyph-name="germandbls" unicode="&#xdf;" horiz-adv-x="604" 
d="M58 0v474c0 159 93 210 229 210c100 0 190 -59 190 -152c0 -101 -112 -148 -112 -199c0 -24 30 -38 77 -49c81 -19 126 -58 126 -147c0 -92 -68 -148 -185 -148c-67 0 -123 19 -166 57l71 82c28 -25 63 -39 91 -39c53 0 75 11 75 42c0 29 -9 46 -86 70
c-61 19 -119 42 -119 133c0 82 106 135 106 180c0 39 -24 69 -80 69c-72 0 -99 -45 -99 -114v-469h-118z" />
    <glyph glyph-name="agrave" unicode="&#xe0;" horiz-adv-x="504" 
d="M338 0l-3 44c-25 -31 -81 -59 -145 -59c-76 0 -162 47 -162 152c0 108 83 168 206 168c19 0 43 -1 64 -2l37 -2v11c0 47 -41 75 -101 75c-67 0 -102 -21 -133 -41l-54 80c38 27 92 59 203 59c120 0 198 -70 198 -170v-315h-110zM335 166v46l-35 2c-19 1 -41 2 -56 2
c-76 0 -103 -35 -103 -74c0 -40 29 -64 85 -64c55 0 109 40 109 88zM213 540l-79 142h126l48 -142h-95z" />
    <glyph glyph-name="aacute" unicode="&#xe1;" horiz-adv-x="504" 
d="M199 540l48 142h126l-79 -142h-95zM338 0l-3 44c-25 -31 -81 -59 -145 -59c-76 0 -162 47 -162 152c0 108 83 168 206 168c19 0 43 -1 64 -2l37 -2v11c0 47 -41 75 -101 75c-67 0 -102 -21 -133 -41l-54 80c38 27 92 59 203 59c120 0 198 -70 198 -170v-315h-110z
M335 166v46l-35 2c-19 1 -41 2 -56 2c-76 0 -103 -35 -103 -74c0 -40 29 -64 85 -64c55 0 109 40 109 88z" />
    <glyph glyph-name="acircumflex" unicode="&#xe2;" horiz-adv-x="504" 
d="M84 540l104 142h111l104 -142h-104l-56 76l-55 -76h-104zM338 0l-3 44c-25 -31 -81 -59 -145 -59c-76 0 -162 47 -162 152c0 108 83 168 206 168c19 0 43 -1 64 -2l37 -2v11c0 47 -41 75 -101 75c-67 0 -102 -21 -133 -41l-54 80c38 27 92 59 203 59
c120 0 198 -70 198 -170v-315h-110zM335 166v46l-35 2c-19 1 -41 2 -56 2c-76 0 -103 -35 -103 -74c0 -40 29 -64 85 -64c55 0 109 40 109 88z" />
    <glyph glyph-name="atilde" unicode="&#xe3;" horiz-adv-x="504" 
d="M338 0l-3 44c-25 -31 -81 -59 -145 -59c-76 0 -162 47 -162 152c0 108 83 168 206 168c19 0 43 -1 64 -2l37 -2v11c0 47 -41 75 -101 75c-67 0 -102 -21 -133 -41l-54 80c38 27 92 59 203 59c120 0 198 -70 198 -170v-315h-110zM335 166v46l-35 2c-19 1 -41 2 -56 2
c-76 0 -103 -35 -103 -74c0 -40 29 -64 85 -64c55 0 109 40 109 88zM94 545l-45 70c21 23 68 58 121 58c55 0 75 -41 129 -41c45 0 69 23 88 36l45 -70c-22 -24 -66 -60 -120 -60c-56 0 -76 43 -130 43c-45 0 -69 -23 -88 -36z" />
    <glyph glyph-name="adieresis" unicode="&#xe4;" horiz-adv-x="504" 
d="M290 557v109h115v-109h-115zM105 557v109h115v-109h-115zM338 0l-3 44c-25 -31 -81 -59 -145 -59c-76 0 -162 47 -162 152c0 108 83 168 206 168c19 0 43 -1 64 -2l37 -2v11c0 47 -41 75 -101 75c-67 0 -102 -21 -133 -41l-54 80c38 27 92 59 203 59
c120 0 198 -70 198 -170v-315h-110zM335 166v46l-35 2c-19 1 -41 2 -56 2c-76 0 -103 -35 -103 -74c0 -40 29 -64 85 -64c55 0 109 40 109 88z" />
    <glyph glyph-name="aring" unicode="&#xe5;" horiz-adv-x="504" 
d="M137 644c0 65 53 113 117 113s118 -48 118 -112c0 -65 -53 -113 -117 -113s-118 48 -118 112zM254 600c25 0 44 19 44 44c0 24 -19 43 -43 43c-25 0 -44 -19 -44 -43c0 -25 19 -44 43 -44zM338 0l-3 44c-25 -31 -81 -59 -145 -59c-76 0 -162 47 -162 152
c0 108 83 168 206 168c19 0 43 -1 64 -2l37 -2v11c0 47 -41 75 -101 75c-67 0 -102 -21 -133 -41l-54 80c38 27 92 59 203 59c120 0 198 -70 198 -170v-315h-110zM335 166v46l-35 2c-19 1 -41 2 -56 2c-76 0 -103 -35 -103 -74c0 -40 29 -64 85 -64c55 0 109 40 109 88z" />
    <glyph glyph-name="ae" unicode="&#xe6;" horiz-adv-x="831" 
d="M101 346l-54 80c35 27 91 59 195 59c79 0 129 -22 166 -66c36 41 95 66 159 66c172 0 231 -137 231 -269v-17h-350c0 -69 68 -114 130 -114c91 0 134 39 150 55l64 -72c-8 -8 -68 -84 -215 -84c-80 0 -143 31 -187 82c-48 -59 -101 -81 -187 -81c-91 0 -175 47 -175 152
c0 107 83 159 206 159c36 0 96 -4 101 -4v20c0 47 -39 75 -95 75c-72 0 -108 -21 -139 -41zM335 166v37c-11 0 -64 4 -91 4c-71 0 -106 -26 -106 -65c0 -40 32 -64 88 -64c65 0 109 40 109 88zM447 284h230c0 47 -37 102 -110 102c-77 0 -120 -55 -120 -102z" />
    <glyph glyph-name="ccedilla" unicode="&#xe7;" horiz-adv-x="492" 
d="M401 138l70 -76c-44 -47 -103 -77 -183 -77c-160 0 -252 101 -252 250c0 136 103 250 252 250c76 0 140 -29 184 -76l-75 -76c-27 31 -62 49 -109 49c-91 0 -133 -71 -133 -147c0 -71 42 -147 133 -147c47 0 86 19 113 50zM150 -217l13 67c25 -9 48 -12 69 -12
c39 0 58 11 58 32c0 16 -15 30 -54 30c-23 0 -46 -4 -63 -11l11 67c24 7 45 12 84 12c72 0 115 -38 115 -93c0 -70 -64 -106 -131 -106c-32 0 -56 3 -75 7c-11 2 -20 4 -27 7z" />
    <glyph glyph-name="egrave" unicode="&#xe8;" horiz-adv-x="538" 
d="M435 140l64 -72c-8 -8 -68 -84 -215 -84c-150 0 -248 105 -248 256c0 138 98 245 238 245c172 0 231 -137 231 -269v-17h-350c0 -69 68 -114 130 -114c91 0 134 39 150 55zM154 284h230c0 47 -37 102 -110 102c-77 0 -120 -55 -120 -102zM238 540l-79 142h126l48 -142
h-95z" />
    <glyph glyph-name="eacute" unicode="&#xe9;" horiz-adv-x="538" 
d="M435 140l64 -72c-8 -8 -68 -84 -215 -84c-150 0 -248 105 -248 256c0 138 98 245 238 245c172 0 231 -137 231 -269v-17h-350c0 -69 68 -114 130 -114c91 0 134 39 150 55zM154 284h230c0 47 -37 102 -110 102c-77 0 -120 -55 -120 -102zM226 540l48 142h126l-79 -142
h-95z" />
    <glyph glyph-name="ecircumflex" unicode="&#xea;" horiz-adv-x="538" 
d="M435 140l64 -72c-8 -8 -68 -84 -215 -84c-150 0 -248 105 -248 256c0 138 98 245 238 245c172 0 231 -137 231 -269v-17h-350c0 -69 68 -114 130 -114c91 0 134 39 150 55zM154 284h230c0 47 -37 102 -110 102c-77 0 -120 -55 -120 -102zM111 540l104 142h111l104 -142
h-104l-56 76l-55 -76h-104z" />
    <glyph glyph-name="edieresis" unicode="&#xeb;" horiz-adv-x="538" 
d="M435 140l64 -72c-8 -8 -68 -84 -215 -84c-150 0 -248 105 -248 256c0 138 98 245 238 245c172 0 231 -137 231 -269v-17h-350c0 -69 68 -114 130 -114c91 0 134 39 150 55zM154 284h230c0 47 -37 102 -110 102c-77 0 -120 -55 -120 -102zM305 557v109h115v-109h-115z
M120 557v109h115v-109h-115z" />
    <glyph glyph-name="igrave" unicode="&#xec;" horiz-adv-x="244" 
d="M75 540l-79 142h126l48 -142h-95zM63 0v469h118v-469h-118z" />
    <glyph glyph-name="iacute" unicode="&#xed;" horiz-adv-x="244" 
d="M74 540l48 142h126l-79 -142h-95zM63 0v469h118v-469h-118z" />
    <glyph glyph-name="icircumflex" unicode="&#xee;" horiz-adv-x="244" 
d="M-36 540l104 142h111l104 -142h-104l-56 76l-55 -76h-104zM63 0v469h118v-469h-118z" />
    <glyph glyph-name="idieresis" unicode="&#xef;" horiz-adv-x="244" 
d="M158 557v109h115v-109h-115zM-27 557v109h115v-109h-115zM63 0v469h118v-469h-118z" />
    <glyph glyph-name="eth" unicode="&#xf0;" horiz-adv-x="555" 
d="M158 518l39 59c-24 6 -51 10 -80 12l14 88c45 -3 85 -9 121 -18l43 64l64 -38l-35 -53c136 -65 195 -195 195 -362c0 -196 -114 -286 -250 -286c-121 0 -233 81 -233 236c0 127 98 236 235 236c56 0 87 -11 104 -18c-20 45 -55 85 -106 112l-47 -70zM393 328
c-19 11 -54 28 -99 28c-81 0 -139 -52 -139 -136c0 -80 51 -134 121 -134c61 0 126 54 126 182c0 17 -1 36 -9 60z" />
    <glyph glyph-name="ntilde" unicode="&#xf1;" horiz-adv-x="551" 
d="M58 0v469h113l3 -53c24 26 67 63 141 63c117 0 180 -75 180 -194v-285h-118v284c0 60 -36 94 -88 94c-65 0 -113 -55 -113 -124v-254h-118zM132 545l-45 70c21 23 68 58 121 58c55 0 75 -41 129 -41c45 0 69 23 88 36l45 -70c-22 -24 -66 -60 -120 -60
c-56 0 -76 43 -130 43c-45 0 -69 -23 -88 -36z" />
    <glyph glyph-name="ograve" unicode="&#xf2;" horiz-adv-x="576" 
d="M36 235c0 136 103 250 252 250s252 -114 252 -250s-103 -251 -252 -251s-252 115 -252 251zM288 86c91 0 133 81 133 149s-42 148 -133 148s-133 -80 -133 -148s42 -149 133 -149zM253 540l-79 142h126l48 -142h-95z" />
    <glyph glyph-name="oacute" unicode="&#xf3;" horiz-adv-x="576" 
d="M36 235c0 136 103 250 252 250s252 -114 252 -250s-103 -251 -252 -251s-252 115 -252 251zM288 86c91 0 133 81 133 149s-42 148 -133 148s-133 -80 -133 -148s42 -149 133 -149zM236 540l48 142h126l-79 -142h-95z" />
    <glyph glyph-name="ocircumflex" unicode="&#xf4;" horiz-adv-x="576" 
d="M36 235c0 136 103 250 252 250s252 -114 252 -250s-103 -251 -252 -251s-252 115 -252 251zM288 86c91 0 133 81 133 149s-42 148 -133 148s-133 -80 -133 -148s42 -149 133 -149zM129 540l104 142h111l104 -142h-104l-56 76l-55 -76h-104z" />
    <glyph glyph-name="otilde" unicode="&#xf5;" horiz-adv-x="576" 
d="M36 235c0 136 103 250 252 250s252 -114 252 -250s-103 -251 -252 -251s-252 115 -252 251zM288 86c91 0 133 81 133 149s-42 148 -133 148s-133 -80 -133 -148s42 -149 133 -149zM144 545l-45 70c21 23 68 58 121 58c55 0 75 -41 129 -41c45 0 69 23 88 36l45 -70
c-22 -24 -66 -60 -120 -60c-56 0 -76 43 -130 43c-45 0 -69 -23 -88 -36z" />
    <glyph glyph-name="odieresis" unicode="&#xf6;" horiz-adv-x="576" 
d="M36 235c0 136 103 250 252 250s252 -114 252 -250s-103 -251 -252 -251s-252 115 -252 251zM288 86c91 0 133 81 133 149s-42 148 -133 148s-133 -80 -133 -148s42 -149 133 -149zM324 557v109h115v-109h-115zM139 557v109h115v-109h-115z" />
    <glyph glyph-name="divide" unicode="&#xf7;" horiz-adv-x="543" 
d="M72 272v99h398v-99h-398zM218 114v100h106v-100h-106zM218 430v100h106v-100h-106z" />
    <glyph glyph-name="oslash" unicode="&#xf8;" horiz-adv-x="576" 
d="M66 -13l45 66c-48 47 -75 110 -75 182c0 136 103 250 252 250c39 0 74 -8 107 -23l47 68l73 -45l-49 -71c47 -47 74 -108 74 -179c0 -136 -103 -251 -252 -251c-39 0 -75 8 -106 21l-44 -63zM178 149l156 226c-15 5 -30 8 -46 8c-91 0 -133 -80 -133 -148
c0 -29 7 -59 23 -86zM399 318l-156 -225c12 -5 27 -7 45 -7c91 0 133 81 133 149c0 28 -7 56 -22 83z" />
    <glyph glyph-name="ugrave" unicode="&#xf9;" horiz-adv-x="551" 
d="M56 184v285h118v-284c0 -60 36 -94 88 -94c65 0 113 55 113 124v254h118v-469h-113l-3 53c-24 -27 -67 -63 -141 -63c-117 0 -180 75 -180 194zM238 540l-79 142h126l48 -142h-95z" />
    <glyph glyph-name="uacute" unicode="&#xfa;" horiz-adv-x="551" 
d="M56 184v285h118v-284c0 -60 36 -94 88 -94c65 0 113 55 113 124v254h118v-469h-113l-3 53c-24 -27 -67 -63 -141 -63c-117 0 -180 75 -180 194zM222 540l48 142h126l-79 -142h-95z" />
    <glyph glyph-name="ucircumflex" unicode="&#xfb;" horiz-adv-x="551" 
d="M56 184v285h118v-284c0 -60 36 -94 88 -94c65 0 113 55 113 124v254h118v-469h-113l-3 53c-24 -27 -67 -63 -141 -63c-117 0 -180 75 -180 194zM117 540l104 142h111l104 -142h-104l-56 76l-55 -76h-104z" />
    <glyph glyph-name="udieresis" unicode="&#xfc;" horiz-adv-x="551" 
d="M56 184v285h118v-284c0 -60 36 -94 88 -94c65 0 113 55 113 124v254h118v-469h-113l-3 53c-24 -27 -67 -63 -141 -63c-117 0 -180 75 -180 194zM315 557v109h115v-109h-115zM130 557v109h115v-109h-115z" />
    <glyph glyph-name="yacute" unicode="&#xfd;" horiz-adv-x="527" 
d="M24 -176l53 83c13 -11 28 -23 52 -23c32 0 49 26 72 82l15 38l-211 465h136l134 -321l118 321h129l-196 -469c-37 -92 -67 -212 -189 -212c-53 0 -86 13 -113 36zM222 540l48 142h126l-79 -142h-95z" />
    <glyph glyph-name="thorn" unicode="&#xfe;" horiz-adv-x="571" 
d="M58 -202v869h117v-246c24 27 77 57 149 57c143 0 211 -117 211 -242c0 -73 -24 -128 -56 -167c-53 -64 -118 -85 -185 -85c-61 0 -85 12 -119 25v-211h-117zM175 254v-139c23 -19 59 -29 106 -29c85 0 135 70 135 150s-32 140 -122 140c-72 0 -119 -69 -119 -122z" />
    <glyph glyph-name="ydieresis" unicode="&#xff;" horiz-adv-x="527" 
d="M24 -176l53 83c13 -11 28 -23 52 -23c32 0 49 26 72 82l15 38l-211 465h136l134 -321l118 321h129l-196 -469c-37 -92 -67 -212 -189 -212c-53 0 -86 13 -113 36zM304 557v109h115v-109h-115zM119 557v109h115v-109h-115z" />
    <glyph glyph-name="Amacron" unicode="&#x100;" horiz-adv-x="646" 
d="M5 0l253 667h130l253 -667h-140l-58 169h-248l-58 -169h-132zM230 273h177l-88 259zM166 747v97h315v-97h-315z" />
    <glyph glyph-name="amacron" unicode="&#x101;" horiz-adv-x="504" 
d="M128 558v92h261v-92h-261zM338 0l-3 44c-25 -31 -81 -59 -145 -59c-76 0 -162 47 -162 152c0 108 83 168 206 168c19 0 43 -1 64 -2l37 -2v11c0 47 -41 75 -101 75c-67 0 -102 -21 -133 -41l-54 80c38 27 92 59 203 59c120 0 198 -70 198 -170v-315h-110zM335 166v46
l-35 2c-19 1 -41 2 -56 2c-76 0 -103 -35 -103 -74c0 -40 29 -64 85 -64c55 0 109 40 109 88z" />
    <glyph glyph-name="Abreve" unicode="&#x102;" horiz-adv-x="646" 
d="M5 0l253 667h130l253 -667h-140l-58 169h-248l-58 -169h-132zM230 273h177l-88 259zM162 863h93c0 -35 24 -67 67 -67s67 32 67 67h93c0 -76 -52 -149 -160 -149s-160 73 -160 149z" />
    <glyph glyph-name="abreve" unicode="&#x103;" horiz-adv-x="504" 
d="M89 682h92c0 -32 15 -65 62 -65s62 33 62 65h92c0 -72 -52 -142 -154 -142s-154 70 -154 142zM338 0l-3 44c-25 -31 -81 -59 -145 -59c-76 0 -162 47 -162 152c0 108 83 168 206 168c19 0 43 -1 64 -2l37 -2v11c0 47 -41 75 -101 75c-67 0 -102 -21 -133 -41l-54 80
c38 27 92 59 203 59c120 0 198 -70 198 -170v-315h-110zM335 166v46l-35 2c-19 1 -41 2 -56 2c-76 0 -103 -35 -103 -74c0 -40 29 -64 85 -64c55 0 109 40 109 88z" />
    <glyph glyph-name="Aogonek" unicode="&#x104;" horiz-adv-x="646" 
d="M5 0l253 667h130l253 -667c-25 -25 -47 -59 -47 -82c0 -14 9 -21 26 -21c19 0 34 6 50 17l29 -75c-35 -23 -78 -37 -113 -37c-69 0 -101 32 -101 80c0 40 28 82 63 118h-47l-58 169h-248l-58 -169h-132zM230 273h177l-88 259z" />
    <glyph glyph-name="aogonek" unicode="&#x105;" horiz-adv-x="504" 
d="M338 0l-3 44c-25 -31 -81 -59 -145 -59c-76 0 -162 47 -162 152c0 108 83 168 206 168c19 0 43 -1 64 -2l37 -2v11c0 47 -41 75 -101 75c-67 0 -102 -21 -133 -41l-54 80c38 27 92 59 203 59c120 0 198 -70 198 -170v-315c-25 -24 -52 -57 -52 -80c0 -14 8 -21 25 -21
c21 0 38 8 55 19l28 -74c-33 -23 -75 -36 -110 -36c-68 0 -98 31 -98 78c0 39 28 79 61 114h-19zM335 166v46l-35 2c-19 1 -41 2 -56 2c-76 0 -103 -35 -103 -74c0 -40 29 -64 85 -64c55 0 109 40 109 88z" />
    <glyph glyph-name="Cacute" unicode="&#x106;" horiz-adv-x="680" 
d="M569 198l88 -76c-39 -60 -147 -138 -274 -138c-199 0 -339 147 -339 346c0 194 140 353 343 353c132 0 217 -59 270 -134l-89 -79c-43 61 -96 102 -181 102c-131 0 -211 -111 -211 -239s81 -230 205 -230c116 0 156 63 188 95zM319 717l73 156h146l-114 -156h-105z" />
    <glyph glyph-name="cacute" unicode="&#x107;" horiz-adv-x="492" 
d="M401 138l70 -76c-44 -47 -103 -77 -183 -77c-160 0 -252 101 -252 250c0 136 103 250 252 250c76 0 140 -29 184 -76l-75 -76c-27 31 -62 49 -109 49c-91 0 -133 -71 -133 -147c0 -71 42 -147 133 -147c47 0 86 19 113 50zM226 540l48 142h126l-79 -142h-95z" />
    <glyph glyph-name="Ccircumflex" unicode="&#x108;" horiz-adv-x="680" 
d="M569 198l88 -76c-39 -60 -147 -138 -274 -138c-199 0 -339 147 -339 346c0 194 140 353 343 353c132 0 217 -59 270 -134l-89 -79c-43 61 -96 102 -181 102c-131 0 -211 -111 -211 -239s81 -230 205 -230c116 0 156 63 188 95zM222 717l110 156h111l110 -156h-104l-62 82
l-61 -82h-104z" />
    <glyph glyph-name="ccircumflex" unicode="&#x109;" horiz-adv-x="492" 
d="M401 138l70 -76c-44 -47 -103 -77 -183 -77c-160 0 -252 101 -252 250c0 136 103 250 252 250c76 0 140 -29 184 -76l-75 -76c-27 31 -62 49 -109 49c-91 0 -133 -71 -133 -147c0 -71 42 -147 133 -147c47 0 86 19 113 50zM127 540l104 142h111l104 -142h-104l-56 76
l-55 -76h-104z" />
    <glyph glyph-name="Cdotaccent" unicode="&#x10a;" horiz-adv-x="680" 
d="M569 198l88 -76c-39 -60 -147 -138 -274 -138c-199 0 -339 147 -339 346c0 194 140 353 343 353c132 0 217 -59 270 -134l-89 -79c-43 61 -96 102 -181 102c-131 0 -211 -111 -211 -239s81 -230 205 -230c116 0 156 63 188 95zM314 734v123h129v-123h-129z" />
    <glyph glyph-name="cdotaccent" unicode="&#x10b;" horiz-adv-x="492" 
d="M401 138l70 -76c-44 -47 -103 -77 -183 -77c-160 0 -252 101 -252 250c0 136 103 250 252 250c76 0 140 -29 184 -76l-75 -76c-27 31 -62 49 -109 49c-91 0 -133 -71 -133 -147c0 -71 42 -147 133 -147c47 0 86 19 113 50zM222 553v117h123v-117h-123z" />
    <glyph glyph-name="Ccaron" unicode="&#x10c;" horiz-adv-x="680" 
d="M569 198l88 -76c-39 -60 -147 -138 -274 -138c-199 0 -339 147 -339 346c0 194 140 353 343 353c132 0 217 -59 270 -134l-89 -79c-43 61 -96 102 -181 102c-131 0 -211 -111 -211 -239s81 -230 205 -230c116 0 156 63 188 95zM334 717l-110 156h104l62 -82l61 82h104
l-110 -156h-111z" />
    <glyph glyph-name="ccaron" unicode="&#x10d;" horiz-adv-x="492" 
d="M401 138l70 -76c-44 -47 -103 -77 -183 -77c-160 0 -252 101 -252 250c0 136 103 250 252 250c76 0 140 -29 184 -76l-75 -76c-27 31 -62 49 -109 49c-91 0 -133 -71 -133 -147c0 -71 42 -147 133 -147c47 0 86 19 113 50zM228 540l-104 142h104l56 -76l55 76h104
l-104 -142h-111z" />
    <glyph glyph-name="Dcaron" unicode="&#x10e;" horiz-adv-x="726" 
d="M70 0v667h249c208 0 354 -104 354 -337c0 -220 -150 -330 -355 -330h-248zM196 112h111c152 0 234 75 234 216c0 140 -70 227 -234 227h-111v-443zM265 717l-110 156h104l62 -82l61 82h104l-110 -156h-111z" />
    <glyph glyph-name="dcaron" unicode="&#x10f;" horiz-adv-x="557" 
d="M385 0l-3 46c-24 -27 -69 -62 -140 -62c-101 0 -206 87 -206 242c0 73 24 128 56 167c52 63 134 86 180 86c61 0 76 -8 110 -21v209h117v-667h-114zM382 208v144c-23 19 -50 25 -97 25s-75 -20 -98 -49c-20 -27 -32 -63 -32 -102c0 -80 41 -140 117 -140
c80 0 110 69 110 122zM560 498v169h110l-34 -169h-76z" />
    <glyph glyph-name="Dcroat" unicode="&#x110;" horiz-adv-x="726" 
d="M70 0v287h-67v102h67v278h249c208 0 354 -104 354 -337c0 -220 -150 -330 -355 -330h-248zM196 113h114c152 0 234 75 234 216c0 140 -70 227 -234 227h-114v-167h155v-102h-155v-174z" />
    <glyph glyph-name="dcroat" unicode="&#x111;" horiz-adv-x="548" 
d="M373 0v46c-24 -27 -69 -62 -140 -62c-101 0 -206 79 -206 234c0 73 24 120 56 159c53 63 134 81 180 81c61 0 76 -8 110 -21v85h-171v79h171v66h117v-66h56v-79h-56v-522h-117zM373 208v123c-23 15 -53 25 -97 25c-47 0 -75 -15 -98 -44c-20 -27 -32 -55 -32 -94
c0 -80 41 -132 117 -132c80 0 110 69 110 122z" />
    <glyph glyph-name="Emacron" unicode="&#x112;" horiz-adv-x="568" 
d="M70 0v667h432v-111h-306v-157h225v-112h-225v-174h329v-113h-455zM134 747v97h315v-97h-315z" />
    <glyph glyph-name="emacron" unicode="&#x113;" horiz-adv-x="538" 
d="M435 140l64 -72c-8 -8 -68 -84 -215 -84c-150 0 -248 105 -248 256c0 138 98 245 238 245c172 0 231 -137 231 -269v-17h-350c0 -69 68 -114 130 -114c91 0 134 39 150 55zM154 284h230c0 47 -37 102 -110 102c-77 0 -120 -55 -120 -102zM142 557v92h261v-92h-261z" />
    <glyph glyph-name="Ebreve" unicode="&#x114;" horiz-adv-x="568" 
d="M70 0v667h432v-111h-306v-157h225v-112h-225v-174h329v-113h-455zM130 863h93c0 -35 24 -67 67 -67s67 32 67 67h93c0 -76 -52 -149 -160 -149s-160 73 -160 149z" />
    <glyph glyph-name="ebreve" unicode="&#x115;" horiz-adv-x="538" 
d="M435 140l64 -72c-8 -8 -68 -84 -215 -84c-150 0 -248 105 -248 256c0 138 98 245 238 245c172 0 231 -137 231 -269v-17h-350c0 -69 68 -114 130 -114c91 0 134 39 150 55zM154 284h230c0 47 -37 102 -110 102c-77 0 -120 -55 -120 -102zM124 682h92c0 -32 15 -65 62 -65
s62 33 62 65h92c0 -72 -52 -142 -154 -142s-154 70 -154 142z" />
    <glyph glyph-name="Edotaccent" unicode="&#x116;" horiz-adv-x="568" 
d="M70 0v667h432v-111h-306v-157h225v-112h-225v-174h329v-113h-455zM230 734v123h129v-123h-129z" />
    <glyph glyph-name="edotaccent" unicode="&#x117;" horiz-adv-x="538" 
d="M435 140l64 -72c-8 -8 -68 -84 -215 -84c-150 0 -248 105 -248 256c0 138 98 245 238 245c172 0 231 -137 231 -269v-17h-350c0 -69 68 -114 130 -114c91 0 134 39 150 55zM154 284h230c0 47 -37 102 -110 102c-77 0 -120 -55 -120 -102zM215 553v117h123v-117h-123z" />
    <glyph glyph-name="Eogonek" unicode="&#x118;" horiz-adv-x="568" 
d="M70 0v667h432v-111h-306v-157h225v-112h-225v-174h329v-113h-58c-25 -25 -47 -59 -47 -82c0 -14 9 -21 26 -21c19 0 34 6 50 17l29 -75c-35 -23 -78 -37 -113 -37c-69 0 -101 32 -101 80c0 40 28 82 63 118h-304z" />
    <glyph glyph-name="eogonek" unicode="&#x119;" horiz-adv-x="538" 
d="M445 -82l28 -74c-33 -23 -75 -36 -110 -36c-68 0 -98 31 -98 78c0 33 20 68 47 99c-9 0 -19 -1 -28 -1c-150 0 -248 115 -248 256c0 138 100 245 240 245c161 0 229 -137 229 -269v-17h-350c0 -69 68 -114 130 -114c91 0 134 39 150 55l64 -72c-5 -5 -26 -23 -58 -47
c-28 -21 -76 -65 -76 -101c0 -14 8 -21 25 -21c21 0 38 8 55 19zM154 284h233c0 47 -37 100 -110 100s-123 -53 -123 -100z" />
    <glyph glyph-name="Ecaron" unicode="&#x11a;" horiz-adv-x="568" 
d="M70 0v667h432v-111h-306v-157h225v-112h-225v-174h329v-113h-455zM240 717l-110 156h104l62 -82l61 82h104l-110 -156h-111z" />
    <glyph glyph-name="ecaron" unicode="&#x11b;" horiz-adv-x="538" 
d="M435 140l64 -72c-8 -8 -68 -84 -215 -84c-150 0 -248 105 -248 256c0 138 98 245 238 245c172 0 231 -137 231 -269v-17h-350c0 -69 68 -114 130 -114c91 0 134 39 150 55zM154 284h230c0 47 -37 102 -110 102c-77 0 -120 -55 -120 -102zM219 540l-104 142h104l56 -76
l55 76h104l-104 -142h-111z" />
    <glyph glyph-name="Gcircumflex" unicode="&#x11c;" horiz-adv-x="723" 
d="M421 246v107h239v-276c-52 -49 -134 -93 -267 -93c-218 0 -349 152 -349 346s140 353 343 353c132 0 217 -59 270 -134l-89 -79c-43 61 -96 102 -181 102c-131 0 -211 -111 -211 -239c0 -143 101 -235 222 -235c61 0 109 15 142 44v104h-119zM215 717l110 156h111
l110 -156h-104l-62 82l-61 -82h-104z" />
    <glyph glyph-name="gcircumflex" unicode="&#x11d;" horiz-adv-x="555" 
d="M81 -163l53 87c37 -25 78 -36 137 -36c61 0 108 39 108 106v51c-32 -27 -65 -45 -128 -45c-135 0 -215 96 -215 228c0 140 102 251 265 251c81 0 153 -16 196 -31v-456c0 -131 -96 -204 -224 -204c-98 0 -150 17 -192 49zM379 199v168c-19 7 -33 10 -76 10
c-95 0 -147 -69 -147 -146c0 -72 34 -128 114 -128c72 0 109 29 109 96zM128 540l104 142h111l104 -142h-104l-56 76l-55 -76h-104z" />
    <glyph glyph-name="Gbreve" unicode="&#x11e;" horiz-adv-x="723" 
d="M421 246v107h239v-276c-52 -49 -134 -93 -267 -93c-218 0 -349 152 -349 346s140 353 343 353c132 0 217 -59 270 -134l-89 -79c-43 61 -96 102 -181 102c-131 0 -211 -111 -211 -239c0 -143 101 -235 222 -235c61 0 109 15 142 44v104h-119zM219 863h93
c0 -35 24 -67 67 -67s67 32 67 67h93c0 -76 -52 -149 -160 -149s-160 73 -160 149z" />
    <glyph glyph-name="gbreve" unicode="&#x11f;" horiz-adv-x="555" 
d="M81 -163l53 87c37 -25 78 -36 137 -36c61 0 108 39 108 106v51c-32 -27 -65 -45 -128 -45c-135 0 -215 96 -215 228c0 140 102 251 265 251c81 0 153 -16 196 -31v-456c0 -131 -96 -204 -224 -204c-98 0 -150 17 -192 49zM379 199v168c-19 7 -33 10 -76 10
c-95 0 -147 -69 -147 -146c0 -72 34 -128 114 -128c72 0 109 29 109 96zM145 682h92c0 -32 15 -65 62 -65s62 33 62 65h92c0 -72 -52 -142 -154 -142s-154 70 -154 142z" />
    <glyph glyph-name="Gdotaccent" unicode="&#x120;" horiz-adv-x="723" 
d="M421 246v107h239v-276c-52 -49 -134 -93 -267 -93c-218 0 -349 152 -349 346s140 353 343 353c132 0 217 -59 270 -134l-89 -79c-43 61 -96 102 -181 102c-131 0 -211 -111 -211 -239c0 -143 101 -235 222 -235c61 0 109 15 142 44v104h-119zM318 734v123h129v-123h-129z
" />
    <glyph glyph-name="gdotaccent" unicode="&#x121;" horiz-adv-x="555" 
d="M81 -163l53 87c37 -25 78 -36 137 -36c61 0 108 39 108 106v51c-32 -27 -65 -45 -128 -45c-135 0 -215 96 -215 228c0 140 102 251 265 251c81 0 153 -16 196 -31v-456c0 -131 -96 -204 -224 -204c-98 0 -150 17 -192 49zM379 199v168c-19 7 -33 10 -76 10
c-95 0 -147 -69 -147 -146c0 -72 34 -128 114 -128c72 0 109 29 109 96zM238 553v117h123v-117h-123z" />
    <glyph glyph-name="Gcommaaccent" unicode="&#x122;" horiz-adv-x="723" 
d="M421 246v107h239v-276c-52 -49 -134 -93 -267 -93c-218 0 -349 152 -349 346s140 353 343 353c132 0 217 -59 270 -134l-89 -79c-43 61 -96 102 -181 102c-131 0 -211 -111 -211 -239c0 -143 101 -235 222 -235c61 0 109 15 142 44v104h-119zM267 -209l53 158h139
l-88 -158h-104z" />
    <glyph glyph-name="gcommaaccent" unicode="&#x123;" horiz-adv-x="555" 
d="M81 -163l53 87c37 -25 78 -36 137 -36c61 0 108 39 108 106v51c-32 -27 -65 -45 -128 -45c-135 0 -215 96 -215 228c0 140 102 251 265 251c81 0 153 -16 196 -31v-456c0 -131 -96 -204 -224 -204c-98 0 -150 17 -192 49zM379 199v168c-19 7 -33 10 -76 10
c-95 0 -147 -69 -147 -146c0 -72 34 -128 114 -128c72 0 109 29 109 96zM231 540l79 142h95l-48 -142h-126z" />
    <glyph glyph-name="Hcircumflex" unicode="&#x124;" horiz-adv-x="723" 
d="M70 0v667h126v-268h331v268h126v-667h-126v287h-331v-287h-126zM195 717l110 156h111l110 -156h-104l-62 82l-61 -82h-104z" />
    <glyph glyph-name="hcircumflex" unicode="&#x125;" horiz-adv-x="551" 
d="M58 0v667h116v-246c24 27 69 58 141 58c116 0 180 -78 180 -194v-285h-118v284c0 60 -36 94 -88 94c-65 0 -113 -55 -113 -124v-254h-118zM62 717l110 156h111l110 -156h-104l-62 82l-61 -82h-104z" />
    <glyph glyph-name="Hbar" unicode="&#x126;" horiz-adv-x="723" 
d="M70 0v487h-70v88h70v92h125v-92h333v92h125v-92h70v-88h-70v-487h-125v287h-333v-287h-125zM195 399h333v88h-333v-88z" />
    <glyph glyph-name="hbar" unicode="&#x127;" horiz-adv-x="551" 
d="M58 0v522h-56v79h56v66h116v-66h172v-79h-172v-121c24 27 69 58 141 58c116 0 180 -78 180 -194v-265h-118v264c0 60 -36 94 -88 94c-65 0 -113 -55 -113 -124v-234h-118z" />
    <glyph glyph-name="Itilde" unicode="&#x128;" horiz-adv-x="266" 
d="M70 0v667h126v-667h-126zM-17 729l-49 75c25 25 70 61 128 61c59 0 79 -42 135 -42c47 0 73 22 92 37l49 -75c-24 -24 -69 -63 -127 -63s-80 44 -136 44c-47 0 -73 -22 -92 -37z" />
    <glyph glyph-name="itilde" unicode="&#x129;" horiz-adv-x="244" 
d="M63 0v469h118v-469h-118zM-23 545l-45 70c21 23 68 58 121 58c55 0 75 -41 129 -41c45 0 69 23 88 36l45 -70c-22 -24 -66 -60 -120 -60c-56 0 -76 43 -130 43c-45 0 -69 -23 -88 -36z" />
    <glyph glyph-name="Imacron" unicode="&#x12a;" horiz-adv-x="266" 
d="M70 0v667h126v-667h-126zM-23 747v97h315v-97h-315z" />
    <glyph glyph-name="imacron" unicode="&#x12b;" horiz-adv-x="244" 
d="M63 0v469h118v-469h-118zM-8 557v92h261v-92h-261z" />
    <glyph glyph-name="Ibreve" unicode="&#x12c;" horiz-adv-x="266" 
d="M70 0v667h126v-667h-126zM-27 863h93c0 -35 24 -67 67 -67s67 32 67 67h93c0 -76 -52 -149 -160 -149s-160 73 -160 149z" />
    <glyph glyph-name="ibreve" unicode="&#x12d;" horiz-adv-x="244" 
d="M63 0v469h118v-469h-118zM-29 682h92c0 -32 15 -65 62 -65s62 33 62 65h92c0 -72 -52 -142 -154 -142s-154 70 -154 142z" />
    <glyph glyph-name="Iogonek" unicode="&#x12e;" horiz-adv-x="266" 
d="M70 0v667h126v-667c-25 -25 -47 -59 -47 -82c0 -14 9 -21 26 -21c19 0 34 6 50 17l29 -75c-35 -23 -78 -37 -113 -37c-69 0 -101 32 -101 80c0 40 28 82 63 118h-33z" />
    <glyph glyph-name="iogonek" unicode="&#x12f;" horiz-adv-x="244" 
d="M63 0v469h118v-469c-25 -24 -52 -57 -52 -80c0 -14 8 -21 25 -21c21 0 38 8 55 19l28 -74c-33 -23 -75 -36 -110 -36c-68 0 -98 31 -98 78c0 39 28 79 61 114h-27zM59 543v124h126v-124h-126z" />
    <glyph glyph-name="Idotaccent" unicode="&#x130;" horiz-adv-x="266" 
d="M70 0v667h126v-667h-126zM68 734v123h129v-123h-129z" />
    <glyph glyph-name="dotlessi" unicode="&#x131;" horiz-adv-x="244" 
d="M63 0v469h118v-469h-118z" />
    <glyph glyph-name="IJ" unicode="&#x132;" horiz-adv-x="791" 
d="M70 0v667h126v-667h-126zM293 77l88 80c43 -47 74 -58 121 -58c48 0 98 35 98 104v464h126v-471c0 -160 -114 -214 -218 -214s-167 34 -215 95z" />
    <glyph glyph-name="ij" unicode="&#x133;" horiz-adv-x="475" 
d="M59 543v124h126v-124h-126zM63 0v469h118v-469h-118zM289 543v124h126v-124h-126zM144 -163l44 80c12 -7 29 -16 54 -16c31 0 52 26 52 75v493h118v-470c0 -92 -22 -199 -154 -199c-56 0 -91 21 -114 37z" />
    <glyph glyph-name="Jcircumflex" unicode="&#x134;" horiz-adv-x="508" 
d="M10 77l88 80c43 -47 74 -58 121 -58c48 0 98 35 98 104v464h126v-471c0 -160 -114 -214 -218 -214s-167 34 -215 95zM216 717l110 156h111l110 -156h-104l-62 82l-61 -82h-104z" />
    <glyph glyph-name="jcircumflex" unicode="&#x135;" horiz-adv-x="244" 
d="M-36 540l104 142h111l104 -142h-104l-56 76l-55 -76h-104zM-87 -163l44 80c12 -7 29 -16 54 -16c31 0 52 26 52 75v493h118v-470c0 -92 -22 -199 -154 -199c-56 0 -91 21 -114 37z" />
    <glyph glyph-name="Kcommaaccent" unicode="&#x136;" horiz-adv-x="621" 
d="M70 0v667h126v-274l247 274h143l-246 -273l273 -394h-152l-203 303l-62 -69v-234h-126zM193 -209l53 158h139l-88 -158h-104z" />
    <glyph glyph-name="kcommaaccent" unicode="&#x137;" horiz-adv-x="512" 
d="M58 0v667h118v-364l169 166h139l-176 -173l196 -296h-141l-136 216l-51 -50v-166h-118zM155 -193l48 142h126l-79 -142h-95z" />
    <glyph glyph-name="kgreenlandic" unicode="&#x138;" horiz-adv-x="512" 
d="M58 0v469h118v-166l169 166h139l-176 -173l196 -296h-141l-136 216l-51 -50v-166h-118z" />
    <glyph glyph-name="Lacute" unicode="&#x139;" horiz-adv-x="553" 
d="M70 0v667h126v-555h329v-112h-455zM80 717l73 156h146l-114 -156h-105z" />
    <glyph glyph-name="lacute" unicode="&#x13a;" horiz-adv-x="234" 
d="M58 0v667h118v-667h-118zM58 717l73 156h146l-114 -156h-105z" />
    <glyph glyph-name="Lcommaaccent" unicode="&#x13b;" horiz-adv-x="553" 
d="M70 0v667h126v-555h329v-112h-455zM180 -209l53 158h139l-88 -158h-104z" />
    <glyph glyph-name="lcommaaccent" unicode="&#x13c;" horiz-adv-x="234" 
d="M58 0v667h118v-667h-118zM5 -193l48 142h126l-79 -142h-95z" />
    <glyph glyph-name="Lcaron" unicode="&#x13d;" horiz-adv-x="553" 
d="M288 478v189h129l-34 -189h-95zM70 0v667h126v-555h329v-112h-455z" />
    <glyph glyph-name="lcaron" unicode="&#x13e;" horiz-adv-x="234" 
d="M58 0v667h118v-667h-118zM229 498v169h110l-34 -169h-76z" />
    <glyph glyph-name="Ldot" unicode="&#x13f;" horiz-adv-x="553" 
d="M70 0v667h126v-555h329v-112h-455zM341 317v123h129v-123h-129z" />
    <glyph glyph-name="ldot" unicode="&#x140;" horiz-adv-x="384" 
d="M58 0v667h118v-667h-118zM248 297v117h123v-117h-123z" />
    <glyph glyph-name="Lslash" unicode="&#x141;" horiz-adv-x="553" 
d="M70 0v252l-67 -42v109l67 42v306h126v-226l143 91v-110l-143 -90v-220h329v-112h-455z" />
    <glyph glyph-name="lslash" unicode="&#x142;" horiz-adv-x="234" 
d="M58 0v262l-55 -35v100l55 35v305h118v-228l55 36v-100l-55 -36v-339h-118z" />
    <glyph glyph-name="Nacute" unicode="&#x143;" horiz-adv-x="713" 
d="M70 0v667h127l323 -474v474h123v-667h-124l-326 480v-480h-123zM295 717l73 156h146l-114 -156h-105z" />
    <glyph glyph-name="nacute" unicode="&#x144;" horiz-adv-x="551" 
d="M58 0v469h113l3 -53c24 26 67 63 141 63c117 0 180 -75 180 -194v-285h-118v284c0 60 -36 94 -88 94c-65 0 -113 -55 -113 -124v-254h-118zM231 540l48 142h126l-79 -142h-95z" />
    <glyph glyph-name="Ncommaaccent" unicode="&#x145;" horiz-adv-x="713" 
d="M70 0v667h127l323 -474v474h123v-667h-124l-326 480v-480h-123zM257 -209l53 158h139l-88 -158h-104z" />
    <glyph glyph-name="ncommaaccent" unicode="&#x146;" horiz-adv-x="551" 
d="M58 0v469h113l3 -53c24 26 67 63 141 63c117 0 180 -75 180 -194v-285h-118v284c0 60 -36 94 -88 94c-65 0 -113 -55 -113 -124v-254h-118zM168 -193l48 142h126l-79 -142h-95z" />
    <glyph glyph-name="Ncaron" unicode="&#x147;" horiz-adv-x="713" 
d="M70 0v667h127l323 -474v474h123v-667h-124l-326 480v-480h-123zM304 717l-110 156h104l62 -82l61 82h104l-110 -156h-111z" />
    <glyph glyph-name="ncaron" unicode="&#x148;" horiz-adv-x="551" 
d="M58 0v469h113l3 -53c24 26 67 63 141 63c117 0 180 -75 180 -194v-285h-118v284c0 60 -36 94 -88 94c-65 0 -113 -55 -113 -124v-254h-118zM226 540l-104 142h104l56 -76l55 76h104l-104 -142h-111z" />
    <glyph glyph-name="napostrophe" unicode="&#x149;" horiz-adv-x="551" 
d="M58 0v469h113l3 -53c24 26 67 63 141 63c117 0 180 -75 180 -194v-285h-118v284c0 60 -36 94 -88 94c-65 0 -113 -55 -113 -124v-254h-118zM14 540l8 142h119l-39 -142h-88z" />
    <glyph glyph-name="Eng" unicode="&#x14a;" horiz-adv-x="713" 
d="M70 0v667h127l323 -474v474h123v-667c0 -94 -28 -200 -160 -200c-60 0 -95 21 -120 37l46 84c12 -7 31 -16 56 -16c33 0 54 26 54 77v18l-326 480v-480h-123z" />
    <glyph glyph-name="eng" unicode="&#x14b;" horiz-adv-x="551" 
d="M58 0v469h113l3 -53c24 26 67 63 141 63c116 0 180 -78 180 -194v-285c0 -92 -22 -199 -154 -199c-56 0 -91 21 -114 37l44 80c12 -7 29 -16 54 -16c31 0 52 26 52 75v307c0 60 -36 94 -88 94c-65 0 -113 -55 -113 -124v-254h-118z" />
    <glyph glyph-name="Omacron" unicode="&#x14c;" horiz-adv-x="782" 
d="M391 -18c-194 0 -347 157 -347 352s152 351 347 351c194 0 347 -156 347 -351s-153 -352 -347 -352zM391 101c132 0 215 110 215 236c0 128 -83 234 -215 234s-215 -106 -215 -234c0 -126 83 -236 215 -236zM235 747v97h315v-97h-315z" />
    <glyph glyph-name="omacron" unicode="&#x14d;" horiz-adv-x="576" 
d="M36 235c0 136 103 250 252 250s252 -114 252 -250s-103 -251 -252 -251s-252 115 -252 251zM288 86c91 0 133 81 133 149s-42 148 -133 148s-133 -80 -133 -148s42 -149 133 -149zM159 558v92h261v-92h-261z" />
    <glyph glyph-name="Obreve" unicode="&#x14e;" horiz-adv-x="782" 
d="M391 -18c-194 0 -347 157 -347 352s152 351 347 351c194 0 347 -156 347 -351s-153 -352 -347 -352zM391 101c132 0 215 110 215 236c0 128 -83 234 -215 234s-215 -106 -215 -234c0 -126 83 -236 215 -236zM231 863h93c0 -35 24 -67 67 -67s67 32 67 67h93
c0 -76 -52 -149 -160 -149s-160 73 -160 149z" />
    <glyph glyph-name="obreve" unicode="&#x14f;" horiz-adv-x="576" 
d="M36 235c0 136 103 250 252 250s252 -114 252 -250s-103 -251 -252 -251s-252 115 -252 251zM288 86c91 0 133 81 133 149s-42 148 -133 148s-133 -80 -133 -148s42 -149 133 -149zM135 682h92c0 -32 15 -65 62 -65s62 33 62 65h92c0 -72 -52 -142 -154 -142
s-154 70 -154 142z" />
    <glyph glyph-name="Ohungarumlaut" unicode="&#x150;" horiz-adv-x="782" 
d="M391 -18c-194 0 -347 157 -347 352s152 351 347 351c194 0 347 -156 347 -351s-153 -352 -347 -352zM391 101c132 0 215 110 215 236c0 128 -83 234 -215 234s-215 -106 -215 -234c0 -126 83 -236 215 -236zM256 717l73 156h138l-114 -156h-97zM441 717l73 156h138
l-114 -156h-97z" />
    <glyph glyph-name="ohungarumlaut" unicode="&#x151;" horiz-adv-x="576" 
d="M36 235c0 136 103 250 252 250s252 -114 252 -250s-103 -251 -252 -251s-252 115 -252 251zM288 86c91 0 133 81 133 149s-42 148 -133 148s-133 -80 -133 -148s42 -149 133 -149zM317 540l48 142h119l-79 -142h-88zM155 540l48 142h119l-79 -142h-88z" />
    <glyph glyph-name="OE" unicode="&#x152;" horiz-adv-x="1104" 
d="M606 0v83c-42 -61 -128 -101 -221 -101c-189 0 -341 157 -341 352s152 351 341 351c96 0 178 -42 221 -99v81h432v-111h-310v-157h229v-112h-229v-174h333v-113h-455zM391 101c131 0 214 110 214 236c0 128 -83 234 -215 234s-215 -106 -215 -234
c0 -126 84 -236 216 -236z" />
    <glyph glyph-name="oe" unicode="&#x153;" horiz-adv-x="922" 
d="M819 140l64 -72c-8 -8 -68 -84 -215 -84c-83 0 -148 33 -192 93c-40 -56 -109 -93 -188 -93c-149 0 -252 115 -252 251s103 250 252 250c77 0 145 -37 186 -90c43 57 105 90 184 90c172 0 231 -137 231 -269v-17h-350c0 -69 68 -114 130 -114c91 0 134 39 150 55z
M538 284h230c0 47 -37 102 -110 102c-77 0 -120 -55 -120 -102zM288 86c91 0 133 81 133 149s-42 148 -133 148s-133 -80 -133 -148s42 -149 133 -149z" />
    <glyph glyph-name="Racute" unicode="&#x154;" horiz-adv-x="586" 
d="M70 0v667h221c168 0 230 -114 230 -199c0 -84 -36 -150 -112 -189l154 -279h-142l-135 263h-95v-263h-121zM191 367h101c64 0 101 43 101 96c0 57 -41 97 -101 97h-101v-193zM206 717l73 156h146l-114 -156h-105z" />
    <glyph glyph-name="racute" unicode="&#x155;" horiz-adv-x="382" 
d="M58 0v469h113l3 -59c22 27 64 68 141 68c23 0 39 -2 58 -9l-24 -111c-16 7 -31 9 -54 9c-65 0 -119 -45 -119 -114v-253h-118zM166 540l48 142h126l-79 -142h-95z" />
    <glyph glyph-name="Rcommaaccent" unicode="&#x156;" horiz-adv-x="586" 
d="M70 0v667h221c168 0 230 -114 230 -199c0 -84 -36 -150 -112 -189l154 -279h-142l-135 263h-95v-263h-121zM191 367h101c64 0 101 43 101 96c0 57 -41 97 -101 97h-101v-193zM183 -209l53 158h139l-88 -158h-104z" />
    <glyph glyph-name="rcommaaccent" unicode="&#x157;" horiz-adv-x="382" 
d="M58 0v469h113l3 -59c22 27 64 68 141 68c23 0 39 -2 58 -9l-24 -111c-16 7 -31 9 -54 9c-65 0 -119 -45 -119 -114v-253h-118zM9 -193l48 142h126l-79 -142h-95z" />
    <glyph glyph-name="Rcaron" unicode="&#x158;" horiz-adv-x="586" 
d="M70 0v667h221c168 0 230 -114 230 -199c0 -84 -36 -150 -112 -189l154 -279h-142l-135 263h-95v-263h-121zM191 367h101c64 0 101 43 101 96c0 57 -41 97 -101 97h-101v-193zM218 717l-110 156h104l62 -82l61 82h104l-110 -156h-111z" />
    <glyph glyph-name="rcaron" unicode="&#x159;" horiz-adv-x="382" 
d="M58 0v469h113l3 -59c22 27 64 68 141 68c23 0 39 -2 58 -9l-24 -111c-16 7 -31 9 -54 9c-65 0 -119 -45 -119 -114v-253h-118zM154 540l-104 142h104l56 -76l55 76h104l-104 -142h-111z" />
    <glyph glyph-name="Sacute" unicode="&#x15a;" horiz-adv-x="593" 
d="M31 107l88 81c32 -37 86 -90 169 -90c79 0 116 41 116 92c0 57 -40 84 -160 108c-122 24 -179 106 -179 195c0 100 75 192 232 192c142 0 198 -76 214 -94l-83 -78c-14 12 -57 61 -135 61c-69 0 -101 -42 -101 -75c0 -47 30 -76 139 -97c104 -21 199 -81 199 -215
c0 -116 -101 -205 -240 -205c-133 0 -217 72 -259 125zM236 717l73 156h146l-114 -156h-105z" />
    <glyph glyph-name="sacute" unicode="&#x15b;" horiz-adv-x="478" 
d="M35 57l71 77c29 -29 75 -51 132 -51c51 0 84 12 84 43c0 26 -16 44 -119 68c-63 16 -150 53 -150 144c0 93 100 147 193 147c83 0 137 -17 184 -52l-61 -83c-25 19 -67 37 -123 37s-75 -19 -75 -43c0 -29 36 -42 113 -61c95 -21 156 -62 156 -151
c0 -91 -92 -148 -201 -148c-88 0 -161 25 -204 73zM199 540l48 142h126l-79 -142h-95z" />
    <glyph glyph-name="Scircumflex" unicode="&#x15c;" horiz-adv-x="593" 
d="M31 107l88 81c32 -37 86 -90 169 -90c79 0 116 41 116 92c0 57 -40 84 -160 108c-122 24 -179 106 -179 195c0 100 75 192 232 192c142 0 198 -76 214 -94l-83 -78c-14 12 -57 61 -135 61c-69 0 -101 -42 -101 -75c0 -47 30 -76 139 -97c104 -21 199 -81 199 -215
c0 -116 -101 -205 -240 -205c-133 0 -217 72 -259 125zM132 717l110 156h111l110 -156h-104l-62 82l-61 -82h-104z" />
    <glyph glyph-name="scircumflex" unicode="&#x15d;" horiz-adv-x="478" 
d="M35 57l71 77c29 -29 75 -51 132 -51c51 0 84 12 84 43c0 26 -16 44 -119 68c-63 16 -150 53 -150 144c0 93 100 147 193 147c83 0 137 -17 184 -52l-61 -83c-25 19 -67 37 -123 37s-75 -19 -75 -43c0 -29 36 -42 113 -61c95 -21 156 -62 156 -151
c0 -91 -92 -148 -201 -148c-88 0 -161 25 -204 73zM92 540l104 142h111l104 -142h-104l-56 76l-55 -76h-104z" />
    <glyph glyph-name="Scedilla" unicode="&#x15e;" horiz-adv-x="593" 
d="M31 107l88 81c32 -37 86 -90 169 -90c79 0 116 41 116 92c0 57 -40 84 -160 108c-122 24 -179 106 -179 195c0 100 75 192 232 192c142 0 198 -76 214 -94l-83 -78c-14 12 -57 61 -135 61c-69 0 -101 -42 -101 -75c0 -47 30 -76 139 -97c104 -21 199 -81 199 -215
c0 -116 -101 -205 -240 -205c-133 0 -217 72 -259 125zM165 -219l13 69c25 -9 49 -12 70 -12c35 0 56 10 56 30c0 16 -16 29 -52 29c-23 0 -47 -4 -64 -11l11 68c24 7 46 12 85 12c72 0 117 -38 117 -93c0 -70 -66 -106 -133 -106c-32 0 -56 3 -75 7c-11 2 -20 4 -28 7z" />
    <glyph glyph-name="scedilla" unicode="&#x15f;" horiz-adv-x="478" 
d="M35 57l71 77c29 -29 75 -51 132 -51c51 0 84 12 84 43c0 26 -16 44 -119 68c-63 16 -150 53 -150 144c0 93 100 147 193 147c83 0 137 -17 184 -52l-61 -83c-25 19 -67 37 -123 37s-75 -19 -75 -43c0 -29 36 -42 113 -61c95 -21 156 -62 156 -151
c0 -91 -92 -148 -201 -148c-88 0 -161 25 -204 73zM115 -217l13 67c25 -9 48 -12 69 -12c39 0 58 11 58 32c0 16 -15 30 -54 30c-23 0 -46 -4 -63 -11l11 67c24 7 45 12 84 12c72 0 115 -38 115 -93c0 -70 -64 -106 -131 -106c-32 0 -56 3 -75 7c-11 2 -20 4 -27 7z" />
    <glyph glyph-name="Scaron" unicode="&#x160;" horiz-adv-x="593" 
d="M31 107l88 81c32 -37 86 -90 169 -90c79 0 116 41 116 92c0 57 -40 84 -160 108c-122 24 -179 106 -179 195c0 100 75 192 232 192c142 0 198 -76 214 -94l-83 -78c-14 12 -57 61 -135 61c-69 0 -101 -42 -101 -75c0 -47 30 -76 139 -97c104 -21 199 -81 199 -215
c0 -116 -101 -205 -240 -205c-133 0 -217 72 -259 125zM243 717l-110 156h104l62 -82l61 82h104l-110 -156h-111z" />
    <glyph glyph-name="scaron" unicode="&#x161;" horiz-adv-x="478" 
d="M35 57l71 77c29 -29 75 -51 132 -51c51 0 84 12 84 43c0 26 -16 44 -119 68c-63 16 -150 53 -150 144c0 93 100 147 193 147c83 0 137 -17 184 -52l-61 -83c-25 19 -67 37 -123 37s-75 -19 -75 -43c0 -29 36 -42 113 -61c95 -21 156 -62 156 -151
c0 -91 -92 -148 -201 -148c-88 0 -161 25 -204 73zM199 540l-104 142h104l56 -76l55 76h104l-104 -142h-111z" />
    <glyph glyph-name="Tcommaaccent" unicode="&#x162;" horiz-adv-x="624" 
d="M249 0v556h-226v111h578v-111h-226v-556h-126zM190 -209l53 158h139l-88 -158h-104z" />
    <glyph glyph-name="tcommaaccent" unicode="&#x163;" horiz-adv-x="402" 
d="M98 160v213h-80v96h80v152h118v-152h126v-96h-126v-205c0 -53 17 -83 57 -83c37 0 56 12 76 27l50 -73c-47 -39 -89 -54 -145 -54c-116 0 -156 70 -156 175zM138 -193l48 142h126l-79 -142h-95z" />
    <glyph glyph-name="Tcaron" unicode="&#x164;" horiz-adv-x="624" 
d="M249 0v556h-226v111h578v-111h-226v-556h-126zM256 717l-110 156h104l62 -82l61 82h104l-110 -156h-111z" />
    <glyph glyph-name="tcaron" unicode="&#x165;" horiz-adv-x="402" 
d="M269 513v155h110l-34 -155h-76zM98 160v213h-80v96h80v152h118v-152h126v-96h-126v-205c0 -53 17 -83 57 -83c37 0 56 12 76 27l50 -73c-47 -39 -89 -54 -145 -54c-116 0 -156 70 -156 175z" />
    <glyph glyph-name="Tbar" unicode="&#x166;" horiz-adv-x="624" 
d="M249 0v255h-134v104h134v197h-226v111h578v-111h-226v-197h133v-104h-133v-255h-126z" />
    <glyph glyph-name="tbar" unicode="&#x167;" horiz-adv-x="402" 
d="M19 196v84h79v93h-80v96h80v152h118v-152h126v-96h-126v-93h126v-84h-126v-28c0 -53 17 -83 57 -83c37 0 56 12 76 27l50 -73c-47 -39 -89 -54 -145 -54c-116 0 -156 70 -156 175v36h-79z" />
    <glyph glyph-name="Utilde" unicode="&#x168;" horiz-adv-x="674" 
d="M65 246v421h126v-399c0 -101 37 -165 146 -165s146 64 146 165v399h126v-421c0 -148 -99 -264 -272 -264s-272 116 -272 264zM182 729l-49 75c25 25 70 61 128 61c59 0 79 -42 135 -42c47 0 73 22 92 37l49 -75c-24 -24 -69 -63 -127 -63s-80 44 -136 44
c-47 0 -73 -22 -92 -37z" />
    <glyph glyph-name="utilde" unicode="&#x169;" horiz-adv-x="551" 
d="M56 184v285h118v-284c0 -60 36 -94 88 -94c65 0 113 55 113 124v254h118v-469h-113l-3 53c-24 -27 -67 -63 -141 -63c-117 0 -180 75 -180 194zM124 545l-45 70c21 23 68 58 121 58c55 0 75 -41 129 -41c45 0 69 23 88 36l45 -70c-22 -24 -66 -60 -120 -60
c-56 0 -76 43 -130 43c-45 0 -69 -23 -88 -36z" />
    <glyph glyph-name="Umacron" unicode="&#x16a;" horiz-adv-x="674" 
d="M65 246v421h126v-399c0 -101 37 -165 146 -165s146 64 146 165v399h126v-421c0 -148 -99 -264 -272 -264s-272 116 -272 264zM181 747v97h315v-97h-315z" />
    <glyph glyph-name="umacron" unicode="&#x16b;" horiz-adv-x="551" 
d="M56 184v285h118v-284c0 -60 36 -94 88 -94c65 0 113 55 113 124v254h118v-469h-113l-3 53c-24 -27 -67 -63 -141 -63c-117 0 -180 75 -180 194zM142 557v92h261v-92h-261z" />
    <glyph glyph-name="Ubreve" unicode="&#x16c;" horiz-adv-x="674" 
d="M65 246v421h126v-399c0 -101 37 -165 146 -165s146 64 146 165v399h126v-421c0 -148 -99 -264 -272 -264s-272 116 -272 264zM179 863h93c0 -35 24 -67 67 -67s67 32 67 67h93c0 -76 -52 -149 -160 -149s-160 73 -160 149z" />
    <glyph glyph-name="ubreve" unicode="&#x16d;" horiz-adv-x="551" 
d="M56 184v285h118v-284c0 -60 36 -94 88 -94c65 0 113 55 113 124v254h118v-469h-113l-3 53c-24 -27 -67 -63 -141 -63c-117 0 -180 75 -180 194zM121 682h92c0 -32 15 -65 62 -65s62 33 62 65h92c0 -72 -52 -142 -154 -142s-154 70 -154 142z" />
    <glyph glyph-name="Uring" unicode="&#x16e;" horiz-adv-x="674" 
d="M65 246v421h126v-399c0 -101 37 -165 146 -165s146 64 146 165v399h126v-421c0 -148 -99 -264 -272 -264s-272 116 -272 264zM205 803c0 75 58 128 131 128c75 0 132 -54 132 -127c0 -75 -58 -128 -131 -128c-75 0 -132 54 -132 127zM337 751c31 0 50 21 50 53
c0 31 -19 52 -51 52c-31 0 -50 -21 -50 -53c0 -31 19 -52 51 -52z" />
    <glyph glyph-name="uring" unicode="&#x16f;" horiz-adv-x="551" 
d="M56 184v285h118v-284c0 -60 36 -94 88 -94c65 0 113 55 113 124v254h118v-469h-113l-3 53c-24 -27 -67 -63 -141 -63c-117 0 -180 75 -180 194zM155 644c0 65 53 113 117 113s118 -48 118 -112c0 -65 -53 -113 -117 -113s-118 48 -118 112zM272 600c25 0 44 19 44 44
c0 24 -19 43 -43 43c-25 0 -44 -19 -44 -43c0 -25 19 -44 43 -44z" />
    <glyph glyph-name="Uhungarumlaut" unicode="&#x170;" horiz-adv-x="674" 
d="M65 246v421h126v-399c0 -101 37 -165 146 -165s146 64 146 165v399h126v-421c0 -148 -99 -264 -272 -264s-272 116 -272 264zM182 717l73 156h138l-114 -156h-97zM367 717l73 156h138l-114 -156h-97z" />
    <glyph glyph-name="uhungarumlaut" unicode="&#x171;" horiz-adv-x="551" 
d="M56 184v285h118v-284c0 -60 36 -94 88 -94c65 0 113 55 113 124v254h118v-469h-113l-3 53c-24 -27 -67 -63 -141 -63c-117 0 -180 75 -180 194zM306 540l48 142h119l-79 -142h-88zM144 540l48 142h119l-79 -142h-88z" />
    <glyph glyph-name="Uogonek" unicode="&#x172;" horiz-adv-x="674" 
d="M65 246v421h126v-399c0 -101 37 -165 146 -165s149 64 149 165v399h123v-421c0 -136 -70 -195 -124 -227c-57 -36 -75 -62 -75 -93c0 -19 9 -29 26 -29c19 0 34 6 50 17l29 -75c-35 -23 -78 -37 -113 -37c-69 0 -101 32 -101 80c0 35 20 69 47 101h-17
c-171 0 -266 120 -266 263z" />
    <glyph glyph-name="uogonek" unicode="&#x173;" horiz-adv-x="551" 
d="M56 184v285h118v-284c0 -60 36 -94 88 -94c65 0 113 55 113 124v254h118v-469c-25 -24 -52 -57 -52 -80c0 -14 8 -21 25 -21c21 0 38 8 55 19l28 -74c-33 -23 -75 -36 -110 -36c-68 0 -98 31 -98 78c0 39 28 79 61 114h-22l-3 53c-24 -27 -67 -63 -141 -63
c-117 0 -180 75 -180 194z" />
    <glyph glyph-name="Wcircumflex" unicode="&#x174;" horiz-adv-x="880" 
d="M183 0l-173 667h138l109 -499l129 480h114l130 -480l108 499h132l-175 -667h-132l-124 441l-126 -441h-130zM280 717l110 156h111l110 -156h-104l-62 82l-61 -82h-104z" />
    <glyph glyph-name="wcircumflex" unicode="&#x175;" horiz-adv-x="749" 
d="M168 0l-159 469h130l90 -326l99 326h99l100 -326l89 326h124l-159 -469h-114l-96 283l-93 -283h-110zM222 540l104 142h111l104 -142h-104l-56 76l-55 -76h-104z" />
    <glyph glyph-name="Ycircumflex" unicode="&#x176;" horiz-adv-x="600" 
d="M236 0v293l-231 374h138l160 -266l160 266h132l-231 -374v-293h-128zM138 717l110 156h111l110 -156h-104l-62 82l-61 -82h-104z" />
    <glyph glyph-name="ycircumflex" unicode="&#x177;" horiz-adv-x="527" 
d="M24 -176l53 83c13 -11 28 -23 52 -23c32 0 49 26 72 82l15 38l-211 465h136l134 -321l118 321h129l-196 -469c-37 -92 -67 -212 -189 -212c-53 0 -86 13 -113 36zM110 540l104 142h111l104 -142h-104l-56 76l-55 -76h-104z" />
    <glyph glyph-name="Ydieresis" unicode="&#x178;" horiz-adv-x="600" 
d="M236 0v293l-231 374h138l160 -266l160 266h132l-231 -374v-293h-128zM347 737v117h123v-117h-123zM134 737v117h123v-117h-123z" />
    <glyph glyph-name="Zacute" unicode="&#x179;" horiz-adv-x="658" 
d="M53 0v110l393 446h-375v111h526v-111l-385 -446h393v-110h-552zM261 717l73 156h146l-114 -156h-105z" />
    <glyph glyph-name="zacute" unicode="&#x17a;" horiz-adv-x="472" 
d="M46 0v90l239 280h-232v99h379v-92l-247 -281h247v-96h-386zM208 540l48 142h126l-79 -142h-95z" />
    <glyph glyph-name="Zdotaccent" unicode="&#x17b;" horiz-adv-x="658" 
d="M53 0v110l393 446h-375v111h526v-111l-385 -446h393v-110h-552zM276 734v123h129v-123h-129z" />
    <glyph glyph-name="zdotaccent" unicode="&#x17c;" horiz-adv-x="472" 
d="M46 0v90l239 280h-232v99h379v-92l-247 -281h247v-96h-386zM191 553v117h123v-117h-123z" />
    <glyph glyph-name="Zcaron" unicode="&#x17d;" horiz-adv-x="658" 
d="M53 0v110l393 446h-375v111h526v-111l-385 -446h393v-110h-552zM284 717l-110 156h104l62 -82l61 82h104l-110 -156h-111z" />
    <glyph glyph-name="zcaron" unicode="&#x17e;" horiz-adv-x="472" 
d="M46 0v90l239 280h-232v99h379v-92l-247 -281h247v-96h-386zM198 540l-104 142h104l56 -76l55 76h104l-104 -142h-111z" />
    <glyph glyph-name="longs" unicode="&#x17f;" horiz-adv-x="233" 
d="M58 0v474c0 64 6 113 41 152c28 32 73 59 133 59c42 0 99 -7 146 -49l-55 -78c-36 27 -87 36 -122 8c-25 -20 -25 -49 -26 -97l1 -469h-118z" />
    <glyph glyph-name="florin" unicode="&#x192;" horiz-adv-x="545" 
d="M-74 -152l64 91c21 -20 47 -28 68 -28c45 0 69 15 82 87l54 296h-87v98h105l13 73c19 107 73 183 195 183c57 0 103 -14 138 -53l-62 -85c-23 20 -49 28 -70 28c-45 0 -69 -16 -82 -88l-11 -58h100v-98h-118l-56 -311c-21 -107 -72 -183 -200 -183c-31 0 -87 10 -133 48z
" />
    <glyph glyph-name="Scommaaccent" unicode="&#x218;" horiz-adv-x="593" 
d="M31 107l88 81c32 -37 86 -90 169 -90c79 0 116 41 116 92c0 57 -40 84 -160 108c-122 24 -179 106 -179 195c0 100 75 192 232 192c142 0 198 -76 214 -94l-83 -78c-14 12 -57 61 -135 61c-69 0 -101 -42 -101 -75c0 -47 30 -76 139 -97c104 -21 199 -81 199 -215
c0 -116 -101 -205 -240 -205c-133 0 -217 72 -259 125zM178 -209l53 158h139l-88 -158h-104z" />
    <glyph glyph-name="scommaaccent" unicode="&#x219;" horiz-adv-x="478" 
d="M35 57l71 77c29 -29 75 -51 132 -51c51 0 84 12 84 43c0 26 -16 44 -119 68c-63 16 -150 53 -150 144c0 93 100 147 193 147c83 0 137 -17 184 -52l-61 -83c-25 19 -67 37 -123 37s-75 -19 -75 -43c0 -29 36 -42 113 -61c95 -21 156 -62 156 -151
c0 -91 -92 -148 -201 -148c-88 0 -161 25 -204 73zM141 -193l48 142h126l-79 -142h-95z" />
    <glyph glyph-name="uni021A" unicode="&#x21a;" horiz-adv-x="624" 
d="M249 0v556h-226v111h578v-111h-226v-556h-126zM190 -209l53 158h139l-88 -158h-104z" />
    <glyph glyph-name="uni021B" unicode="&#x21b;" horiz-adv-x="402" 
d="M98 160v213h-80v96h80v152h118v-152h126v-96h-126v-205c0 -53 17 -83 57 -83c37 0 56 12 76 27l50 -73c-47 -39 -89 -54 -145 -54c-116 0 -156 70 -156 175zM138 -193l48 142h126l-79 -142h-95z" />
    <glyph glyph-name="dotlessj" unicode="&#x237;" horiz-adv-x="244" 
d="M-87 -163l44 80c12 -7 29 -16 54 -16c31 0 52 26 52 75v493h118v-470c0 -92 -22 -199 -154 -199c-56 0 -91 21 -114 37z" />
    <glyph glyph-name="apostrophe" unicode="&#x2bc;" horiz-adv-x="116" 
d="M10 540l8 142h119l-39 -142h-88z" />
    <glyph glyph-name="circumflex" unicode="&#x2c6;" horiz-adv-x="449" 
d="M65 540l104 142h111l104 -142h-104l-56 76l-55 -76h-104z" />
    <glyph glyph-name="caron" unicode="&#x2c7;" horiz-adv-x="449" 
d="M169 540l-104 142h104l56 -76l55 76h104l-104 -142h-111z" />
    <glyph glyph-name="uni02C9" unicode="&#x2c9;" horiz-adv-x="347" 
d="M43 557v92h261v-92h-261z" />
    <glyph glyph-name="breve" unicode="&#x2d8;" horiz-adv-x="460" 
d="M91 682h92c0 -32 15 -65 62 -65s62 33 62 65h92c0 -72 -52 -142 -154 -142s-154 70 -154 142z" />
    <glyph glyph-name="dotaccent" unicode="&#x2d9;" horiz-adv-x="259" 
d="M68 553v117h123v-117h-123z" />
    <glyph glyph-name="ring" unicode="&#x2da;" horiz-adv-x="315" 
d="M40 644c0 65 53 113 117 113s118 -48 118 -112c0 -65 -53 -113 -117 -113s-118 48 -118 112zM157 600c25 0 44 19 44 44c0 24 -19 43 -43 43c-25 0 -44 -19 -44 -43c0 -25 19 -44 43 -44z" />
    <glyph glyph-name="ogonek" unicode="&#x2db;" horiz-adv-x="298" 
d="M123 0h91c-25 -24 -52 -57 -52 -80c0 -14 8 -21 25 -21c21 0 38 8 55 19l28 -74c-33 -23 -75 -36 -110 -36c-68 0 -98 31 -98 78c0 39 28 79 61 114z" />
    <glyph glyph-name="tilde" unicode="&#x2dc;" horiz-adv-x="462" 
d="M83 545l-45 70c21 23 68 58 121 58c55 0 75 -41 129 -41c45 0 69 23 88 36l45 -70c-22 -24 -66 -60 -120 -60c-56 0 -76 43 -130 43c-45 0 -69 -23 -88 -36z" />
    <glyph glyph-name="hungarumlaut" unicode="&#x2dd;" horiz-adv-x="445" 
d="M220 540l48 142h119l-79 -142h-88zM58 540l48 142h119l-79 -142h-88z" />
    <glyph glyph-name="pi" unicode="&#x3c0;" horiz-adv-x="694" 
d="M153 0v373h-100v96h583v-96h-99v-215c0 -47 6 -62 41 -62c17 0 31 2 41 6l22 -91c-24 -11 -66 -16 -97 -16c-88 0 -124 58 -124 151l-1 227h-148v-373h-118z" />
    <glyph glyph-name="Wgrave" unicode="&#x1e80;" horiz-adv-x="880" 
d="M183 0l-173 667h138l109 -499l129 480h114l130 -480l108 499h132l-175 -667h-132l-124 441l-126 -441h-130zM383 717l-114 156h146l73 -156h-105z" />
    <glyph glyph-name="wgrave" unicode="&#x1e81;" horiz-adv-x="749" 
d="M168 0l-159 469h130l90 -326l99 326h99l100 -326l89 326h124l-159 -469h-114l-96 283l-93 -283h-110zM332 540l-79 142h126l48 -142h-95z" />
    <glyph glyph-name="Wacute" unicode="&#x1e82;" horiz-adv-x="880" 
d="M183 0l-173 667h138l109 -499l129 480h114l130 -480l108 499h132l-175 -667h-132l-124 441l-126 -441h-130zM392 717l73 156h146l-114 -156h-105z" />
    <glyph glyph-name="wacute" unicode="&#x1e83;" horiz-adv-x="749" 
d="M168 0l-159 469h130l90 -326l99 326h99l100 -326l89 326h124l-159 -469h-114l-96 283l-93 -283h-110zM328 540l48 142h126l-79 -142h-95z" />
    <glyph glyph-name="Wdieresis" unicode="&#x1e84;" horiz-adv-x="880" 
d="M183 0l-173 667h138l109 -499l129 480h114l130 -480l108 499h132l-175 -667h-132l-124 441l-126 -441h-130zM487 737v117h123v-117h-123zM274 737v117h123v-117h-123z" />
    <glyph glyph-name="wdieresis" unicode="&#x1e85;" horiz-adv-x="749" 
d="M168 0l-159 469h130l90 -326l99 326h99l100 -326l89 326h124l-159 -469h-114l-96 283l-93 -283h-110zM409 557v109h115v-109h-115zM224 557v109h115v-109h-115z" />
    <glyph glyph-name="Ygrave" unicode="&#x1ef2;" horiz-adv-x="600" 
d="M236 0v293l-231 374h138l160 -266l160 266h132l-231 -374v-293h-128zM263 717l-114 156h146l73 -156h-105z" />
    <glyph glyph-name="ygrave" unicode="&#x1ef3;" horiz-adv-x="527" 
d="M24 -176l53 83c13 -11 28 -23 52 -23c32 0 49 26 72 82l15 38l-211 465h136l134 -321l118 321h129l-196 -469c-37 -92 -67 -212 -189 -212c-53 0 -86 13 -113 36zM230 540l-79 142h126l48 -142h-95z" />
    <glyph glyph-name="endash" unicode="&#x2013;" horiz-adv-x="500" 
d="M0 224v112h500v-112h-500z" />
    <glyph glyph-name="emdash" unicode="&#x2014;" horiz-adv-x="1000" 
d="M0 224v112h1000v-112h-1000z" />
    <glyph glyph-name="quoteleft" unicode="&#x2018;" horiz-adv-x="268" 
d="M48 455l68 211h89l-22 -211h-135z" />
    <glyph glyph-name="quoteright" unicode="&#x2019;" horiz-adv-x="268" 
d="M63 455l22 211h135l-68 -211h-89z" />
    <glyph glyph-name="quotesinglbase" unicode="&#x201a;" horiz-adv-x="283" 
d="M68 -72l22 211h135l-68 -211h-89z" />
    <glyph glyph-name="quotedblleft" unicode="&#x201c;" horiz-adv-x="458" 
d="M48 455l68 211h89l-22 -211h-135zM238 455l68 211h89l-22 -211h-135z" />
    <glyph glyph-name="quotedblright" unicode="&#x201d;" horiz-adv-x="458" 
d="M63 455l22 211h135l-68 -211h-89zM253 455l22 211h135l-68 -211h-89z" />
    <glyph glyph-name="quotedblbase" unicode="&#x201e;" horiz-adv-x="475" 
d="M68 -72l22 211h135l-68 -211h-89zM261 -72l22 211h135l-68 -211h-89z" />
    <glyph glyph-name="dagger" unicode="&#x2020;" horiz-adv-x="529" 
d="M207 -121v504h-149v96h149v188h115v-188h149v-96h-149v-504h-115z" />
    <glyph glyph-name="daggerdbl" unicode="&#x2021;" horiz-adv-x="539" 
d="M212 -121v188h-149v96h149v220h-149v96h149v188h115v-188h149v-96h-149v-220h149v-96h-149v-188h-115z" />
    <glyph glyph-name="bullet" unicode="&#x2022;" horiz-adv-x="438" 
d="M83 343c0 76 60 136 136 136s136 -60 136 -136s-60 -136 -136 -136s-136 60 -136 136z" />
    <glyph glyph-name="ellipsis" unicode="&#x2026;" horiz-adv-x="793" 
d="M325 0v138h143v-138h-143zM585 0v138h143v-138h-143zM66 0v138h143v-138h-143z" />
    <glyph glyph-name="perthousand" unicode="&#x2030;" horiz-adv-x="1306" 
d="M203 0l406 630h107l-406 -630h-107zM210 285c-92 0 -159 61 -159 181s67 181 159 181s159 -61 159 -181s-67 -181 -159 -181zM210 364c29 0 61 25 61 102s-32 102 -61 102s-61 -25 -61 -102s32 -102 61 -102zM715 -9c-92 0 -159 61 -159 181s67 181 159 181
s159 -61 159 -181s-67 -181 -159 -181zM715 70c29 0 61 25 61 102s-32 102 -61 102s-61 -25 -61 -102s32 -102 61 -102zM1096 -9c-92 0 -159 61 -159 181s67 181 159 181s159 -61 159 -181s-67 -181 -159 -181zM1096 70c29 0 61 25 61 102s-32 102 -61 102s-61 -25 -61 -102
s32 -102 61 -102z" />
    <glyph glyph-name="guilsinglleft" unicode="&#x2039;" horiz-adv-x="340" 
d="M162 47l-104 194l104 194h115l-99 -194l99 -194h-115z" />
    <glyph glyph-name="guilsinglright" unicode="&#x203a;" horiz-adv-x="340" 
d="M63 47l99 194l-99 194h115l104 -194l-104 -194h-115z" />
    <glyph glyph-name="fraction" unicode="&#x2044;" horiz-adv-x="195" 
d="M-157 0l406 630h107l-406 -630h-107z" />
    <glyph glyph-name="zerosuperior" unicode="&#x2070;" 
d="M180 285c-92 0 -159 61 -159 181s67 181 159 181s159 -61 159 -181s-67 -181 -159 -181zM180 364c29 0 61 25 61 102s-32 102 -61 102s-61 -25 -61 -102s32 -102 61 -102z" />
    <glyph glyph-name="foursuperior" unicode="&#x2074;" 
d="M33 355v71l172 211h96v-211h41v-71h-41v-60h-87v60h-181zM111 426h103v122z" />
    <glyph glyph-name="fivesuperior" unicode="&#x2075;" 
d="M26 322l43 68c23 -19 55 -30 88 -30c24 0 61 6 61 43c0 28 -30 42 -62 42c-17 0 -38 -2 -57 -13l-44 35l38 170h199v-79h-131l-11 -52c12 3 24 5 37 5c64 0 123 -34 123 -107c0 -68 -58 -122 -149 -122c-51 0 -102 16 -135 40z" />
    <glyph glyph-name="sixsuperior" unicode="&#x2076;" 
d="M302 624l-31 -70c-15 8 -37 15 -60 15c-45 0 -81 -31 -84 -74c23 12 52 18 76 18c62 0 121 -30 121 -110c0 -64 -59 -118 -140 -118c-75 0 -150 49 -150 167c0 114 69 195 172 195c47 0 81 -15 96 -23zM127 429c0 -49 23 -73 55 -73c35 0 58 19 58 47c0 24 -17 44 -53 44
c-23 0 -49 -10 -60 -18z" />
    <glyph glyph-name="sevensuperior" unicode="&#x2077;" 
d="M185 295h-102c32 99 108 215 134 263h-172v79h269v-80c-30 -46 -105 -177 -129 -262z" />
    <glyph glyph-name="eightsuperior" unicode="&#x2078;" 
d="M99 476c-34 17 -51 42 -51 73c0 64 63 98 131 98s132 -33 132 -98c0 -31 -19 -57 -51 -73c39 -15 66 -41 66 -84c0 -72 -68 -107 -147 -107c-80 0 -146 35 -146 107c0 43 27 69 66 84zM181 446c-25 -7 -52 -24 -52 -52c0 -27 25 -38 50 -38c24 0 50 11 50 38
c0 28 -25 45 -48 52zM177 505c23 7 47 17 47 42c0 24 -21 36 -45 36s-45 -12 -45 -36c0 -25 20 -35 43 -42z" />
    <glyph glyph-name="ninesuperior" unicode="&#x2079;" 
d="M54 308l31 70c15 -8 36 -15 67 -15c53 0 77 31 80 74c-23 -12 -52 -18 -76 -18c-62 0 -121 30 -121 110c0 64 59 118 140 118c75 0 150 -50 150 -167c0 -114 -58 -195 -177 -195c-45 0 -79 15 -94 23zM232 503c0 49 -23 73 -55 73c-35 0 -58 -19 -58 -47
c0 -24 17 -44 53 -44c23 0 49 10 60 18z" />
    <glyph glyph-name="zeroinferior" unicode="&#x2080;" 
d="M180 -9c-92 0 -159 61 -159 181s67 181 159 181s159 -61 159 -181s-67 -181 -159 -181zM180 70c29 0 61 25 61 102s-32 102 -61 102s-61 -25 -61 -102s32 -102 61 -102z" />
    <glyph glyph-name="oneinferior" unicode="&#x2081;" 
d="M173 1v238l-78 -39l-36 72l126 71h86v-342h-98z" />
    <glyph glyph-name="twoinferior" unicode="&#x2082;" 
d="M49 1v45c0 104 166 139 166 191c0 24 -16 33 -39 33c-31 0 -70 -18 -97 -35l-36 70c33 23 86 48 145 48c88 0 128 -46 128 -106c0 -96 -103 -110 -156 -166h157v-80h-268z" />
    <glyph glyph-name="threeinferior" unicode="&#x2083;" 
d="M30 33l44 68c24 -19 55 -32 88 -32c32 0 54 13 54 41c0 35 -29 42 -66 42c-17 0 -36 -3 -49 -7l-16 35l106 84h-133v79h240v-76l-77 -61c69 -13 91 -55 91 -106c0 -64 -58 -109 -149 -109c-56 0 -101 17 -133 42z" />
    <glyph glyph-name="fourinferior" unicode="&#x2084;" 
d="M33 61v71l172 211h96v-211h41v-71h-41v-60h-87v60h-181zM111 132h103v122z" />
    <glyph glyph-name="fiveinferior" unicode="&#x2085;" 
d="M26 28l43 68c23 -19 55 -30 88 -30c24 0 61 6 61 43c0 28 -30 42 -62 42c-17 0 -38 -2 -57 -13l-44 35l38 170h199v-79h-131l-11 -52c12 3 24 5 37 5c64 0 123 -34 123 -107c0 -68 -58 -122 -149 -122c-51 0 -102 16 -135 40z" />
    <glyph glyph-name="sixinferior" unicode="&#x2086;" 
d="M302 330l-31 -70c-15 8 -37 15 -60 15c-45 0 -81 -31 -84 -74c23 12 52 18 76 18c62 0 121 -30 121 -110c0 -64 -59 -118 -140 -118c-75 0 -150 49 -150 167c0 114 69 195 172 195c47 0 81 -15 96 -23zM127 135c0 -49 23 -73 55 -73c35 0 58 19 58 47c0 24 -17 44 -53 44
c-23 0 -49 -10 -60 -18z" />
    <glyph glyph-name="seveninferior" unicode="&#x2087;" 
d="M185 1h-102c32 99 108 215 134 263h-172v79h269v-80c-30 -46 -105 -177 -129 -262z" />
    <glyph glyph-name="eightinferior" unicode="&#x2088;" 
d="M99 182c-34 17 -51 42 -51 73c0 64 63 98 131 98s132 -33 132 -98c0 -31 -19 -57 -51 -73c39 -15 66 -41 66 -84c0 -72 -68 -107 -147 -107c-80 0 -146 35 -146 107c0 43 27 69 66 84zM181 152c-25 -7 -52 -24 -52 -52c0 -27 25 -38 50 -38c24 0 50 11 50 38
c0 28 -25 45 -48 52zM177 211c23 7 47 17 47 42c0 24 -21 36 -45 36s-45 -12 -45 -36c0 -25 20 -35 43 -42z" />
    <glyph glyph-name="nineinferior" unicode="&#x2089;" 
d="M54 14l31 70c15 -8 36 -15 67 -15c53 0 77 31 80 74c-23 -12 -52 -18 -76 -18c-62 0 -121 30 -121 110c0 64 59 118 140 118c75 0 150 -50 150 -167c0 -114 -58 -195 -177 -195c-45 0 -79 15 -94 23zM232 209c0 49 -23 73 -55 73c-35 0 -58 -19 -58 -47
c0 -24 17 -44 53 -44c23 0 49 10 60 18z" />
    <glyph glyph-name="Euro" unicode="&#x20ac;" horiz-adv-x="545" 
d="M33 206l23 74h55c-1 13 -1 26 -1 41c0 13 0 25 1 38h-78l23 74h66c32 125 115 216 247 216c81 0 132 -30 176 -73l-63 -80c-31 31 -59 44 -110 44c-69 0 -109 -43 -128 -107h189l-23 -74h-179c-1 -13 -1 -25 -1 -38c0 -15 0 -28 1 -41h192l-23 -74h-155
c19 -64 59 -106 127 -106c51 0 79 13 110 44l63 -80c-44 -43 -95 -73 -176 -73c-132 0 -214 90 -246 215h-90z" />
    <glyph glyph-name="afii61289" unicode="&#x2113;" horiz-adv-x="472" 
d="M131 225v212c0 189 52 253 144 253c68 0 117 -52 117 -144c0 -121 -67 -227 -184 -336v-20c0 -108 34 -131 79 -131c43 0 86 25 107 56l19 -20l21 -18c-36 -53 -87 -86 -156 -86c-93 0 -146 50 -146 167c-17 -13 -32 -23 -49 -35c-7 15 -16 29 -25 44c25 17 49 37 73 58z
M208 490v-201c72 80 117 164 117 256c0 64 -25 87 -54 87c-35 0 -63 -41 -63 -142z" />
    <glyph glyph-name="trademark" unicode="&#x2122;" horiz-adv-x="861" 
d="M421 284l12 383h80l106 -163l104 163h85l12 -383h-87l-7 249l-93 -152h-32l-89 142l-7 -239h-84zM161 284v300h-128v83h352v-83h-128v-300h-96z" />
    <glyph glyph-name="Omega" unicode="&#x3a9;" horiz-adv-x="822" 
d="M53 0v113h126c-75 61 -115 134 -115 238c0 194 152 333 347 333s347 -139 347 -333c0 -104 -40 -177 -115 -238h126v-113h-298v113c97 27 156 135 156 241c0 127 -83 216 -215 216h-2c-132 0 -215 -89 -215 -216c0 -106 59 -214 156 -241v-113h-298z" />
    <glyph glyph-name="estimated" unicode="&#x212e;" horiz-adv-x="893" 
d="M195 335v-197c0 -9 3 -16 9 -22c64 -68 148 -107 245 -107c105 0 195 47 259 119h57c-69 -84 -189 -139 -317 -139c-221 0 -400 161 -400 360s179 361 400 361c222 0 402 -162 402 -361v-10h-650c-3 0 -5 -1 -5 -4zM200 358h498c3 0 4 2 4 7v197c0 9 -3 17 -9 24
c-64 64 -148 102 -244 102c-95 0 -181 -42 -244 -106c-7 -5 -10 -15 -10 -24v-193c0 -5 2 -7 5 -7z" />
    <glyph glyph-name="onequarter" unicode="&#xbc;" horiz-adv-x="925" 
d="M200 295v238l-78 -39l-36 72l126 71h86v-342h-98zM210 0l406 630h107l-406 -630h-107zM535 61v71l172 211h96v-211h41v-71h-41v-60h-87v60h-181zM613 132h103v122z" />
    <glyph glyph-name="onehalf" unicode="&#xbd;" horiz-adv-x="925" 
d="M180 295v238l-78 -39l-36 72l126 71h86v-342h-98zM190 0l406 630h107l-406 -630h-107zM591 1v45c0 104 166 139 166 191c0 24 -16 33 -39 33c-31 0 -70 -18 -97 -35l-36 70c33 23 86 48 145 48c88 0 128 -46 128 -106c0 -96 -103 -110 -156 -166h157v-80h-268z" />
    <glyph glyph-name="threequarters" unicode="&#xbe;" horiz-adv-x="925" 
d="M70 327l44 68c24 -19 55 -32 88 -32c32 0 54 13 54 41c0 35 -29 42 -66 42c-17 0 -36 -3 -49 -7l-16 35l106 84h-133v79h240v-76l-77 -61c69 -13 91 -55 91 -106c0 -64 -58 -109 -149 -109c-56 0 -101 17 -133 42zM228 0l406 630h107l-406 -630h-107zM553 61v71l172 211
h96v-211h41v-71h-41v-60h-87v60h-181zM631 132h103v122z" />
    <glyph glyph-name="onethird" unicode="&#x2153;" horiz-adv-x="925" 
d="M182 295v238l-78 -39l-36 72l126 71h86v-342h-98zM192 0l406 630h107l-406 -630h-107zM574 33l44 68c24 -19 55 -32 88 -32c32 0 54 13 54 41c0 35 -29 42 -66 42c-17 0 -36 -3 -49 -7l-16 35l106 84h-133v79h240v-76l-77 -61c69 -13 91 -55 91 -106
c0 -64 -58 -109 -149 -109c-56 0 -101 17 -133 42z" />
    <glyph glyph-name="twothirds" unicode="&#x2154;" horiz-adv-x="925" 
d="M56 295v45c0 104 166 139 166 191c0 24 -16 33 -39 33c-31 0 -70 -18 -97 -35l-36 70c33 23 86 48 145 48c88 0 128 -46 128 -106c0 -96 -103 -110 -156 -166h157v-80h-268zM210 0l406 630h107l-406 -630h-107zM592 33l44 68c24 -19 55 -32 88 -32c32 0 54 13 54 41
c0 35 -29 42 -66 42c-17 0 -36 -3 -49 -7l-16 35l106 84h-133v79h240v-76l-77 -61c69 -13 91 -55 91 -106c0 -64 -58 -109 -149 -109c-56 0 -101 17 -133 42z" />
    <glyph glyph-name="oneeighth" unicode="&#x215b;" horiz-adv-x="925" 
d="M175 295v238l-78 -39l-36 72l126 71h86v-342h-98zM185 0l406 630h107l-406 -630h-107zM636 182c-34 17 -51 42 -51 73c0 64 63 98 131 98s132 -33 132 -98c0 -31 -19 -57 -51 -73c39 -15 66 -41 66 -84c0 -72 -68 -107 -147 -107c-80 0 -146 35 -146 107
c0 43 27 69 66 84zM718 152c-25 -7 -52 -24 -52 -52c0 -27 25 -38 50 -38c24 0 50 11 50 38c0 28 -25 45 -48 52zM714 211c23 7 47 17 47 42c0 24 -21 36 -45 36s-45 -12 -45 -36c0 -25 20 -35 43 -42z" />
    <glyph glyph-name="threeeighths" unicode="&#x215c;" horiz-adv-x="925" 
d="M45 327l44 68c24 -19 55 -32 88 -32c32 0 54 13 54 41c0 35 -29 42 -66 42c-17 0 -36 -3 -49 -7l-16 35l106 84h-133v79h240v-76l-77 -61c69 -13 91 -55 91 -106c0 -64 -58 -109 -149 -109c-56 0 -101 17 -133 42zM203 0l406 630h107l-406 -630h-107zM654 182
c-34 17 -51 42 -51 73c0 64 63 98 131 98s132 -33 132 -98c0 -31 -19 -57 -51 -73c39 -15 66 -41 66 -84c0 -72 -68 -107 -147 -107c-80 0 -146 35 -146 107c0 43 27 69 66 84zM736 152c-25 -7 -52 -24 -52 -52c0 -27 25 -38 50 -38c24 0 50 11 50 38c0 28 -25 45 -48 52z
M732 211c23 7 47 17 47 42c0 24 -21 36 -45 36s-45 -12 -45 -36c0 -25 20 -35 43 -42z" />
    <glyph glyph-name="fiveeighths" unicode="&#x215d;" horiz-adv-x="925" 
d="M45 322l43 68c23 -19 55 -30 88 -30c24 0 61 6 61 43c0 28 -30 42 -62 42c-17 0 -38 -2 -57 -13l-44 35l38 170h199v-79h-131l-11 -52c12 3 24 5 37 5c64 0 123 -34 123 -107c0 -68 -58 -122 -149 -122c-51 0 -102 16 -135 40zM202 0l406 630h107l-406 -630h-107z
M653 182c-34 17 -51 42 -51 73c0 64 63 98 131 98s132 -33 132 -98c0 -31 -19 -57 -51 -73c39 -15 66 -41 66 -84c0 -72 -68 -107 -147 -107c-80 0 -146 35 -146 107c0 43 27 69 66 84zM735 152c-25 -7 -52 -24 -52 -52c0 -27 25 -38 50 -38c24 0 50 11 50 38
c0 28 -25 45 -48 52zM731 211c23 7 47 17 47 42c0 24 -21 36 -45 36s-45 -12 -45 -36c0 -25 20 -35 43 -42z" />
    <glyph glyph-name="seveneighths" unicode="&#x215e;" horiz-adv-x="925" 
d="M209 295h-102c32 99 108 215 134 263h-172v79h269v-80c-30 -46 -105 -177 -129 -262zM177 0l406 630h107l-406 -630h-107zM628 182c-34 17 -51 42 -51 73c0 64 63 98 131 98s132 -33 132 -98c0 -31 -19 -57 -51 -73c39 -15 66 -41 66 -84c0 -72 -68 -107 -147 -107
c-80 0 -146 35 -146 107c0 43 27 69 66 84zM710 152c-25 -7 -52 -24 -52 -52c0 -27 25 -38 50 -38c24 0 50 11 50 38c0 28 -25 45 -48 52zM706 211c23 7 47 17 47 42c0 24 -21 36 -45 36s-45 -12 -45 -36c0 -25 20 -35 43 -42z" />
    <glyph glyph-name="onefifth" unicode="&#x2155;" horiz-adv-x="925" 
d="M183 295v238l-78 -39l-36 72l126 71h86v-342h-98zM193 0l406 630h107l-406 -630h-107zM571 28l43 68c23 -19 55 -30 88 -30c24 0 61 6 61 43c0 28 -30 42 -62 42c-17 0 -38 -2 -57 -13l-44 35l38 170h199v-79h-131l-11 -52c12 3 24 5 37 5c64 0 123 -34 123 -107
c0 -68 -58 -122 -149 -122c-51 0 -102 16 -135 40z" />
    <glyph glyph-name="twofifths" unicode="&#x2156;" horiz-adv-x="925" 
d="M57 295v45c0 104 166 139 166 191c0 24 -16 33 -39 33c-31 0 -70 -18 -97 -35l-36 70c33 23 86 48 145 48c88 0 128 -46 128 -106c0 -96 -103 -110 -156 -166h157v-80h-268zM211 0l406 630h107l-406 -630h-107zM589 28l43 68c23 -19 55 -30 88 -30c24 0 61 6 61 43
c0 28 -30 42 -62 42c-17 0 -38 -2 -57 -13l-44 35l38 170h199v-79h-131l-11 -52c12 3 24 5 37 5c64 0 123 -34 123 -107c0 -68 -58 -122 -149 -122c-51 0 -102 16 -135 40z" />
    <glyph glyph-name="threefifths" unicode="&#x2157;" horiz-adv-x="925" 
d="M53 327l44 68c24 -19 55 -32 88 -32c32 0 54 13 54 41c0 35 -29 42 -66 42c-17 0 -36 -3 -49 -7l-16 35l106 84h-133v79h240v-76l-77 -61c69 -13 91 -55 91 -106c0 -64 -58 -109 -149 -109c-56 0 -101 17 -133 42zM211 0l406 630h107l-406 -630h-107zM589 28l43 68
c23 -19 55 -30 88 -30c24 0 61 6 61 43c0 28 -30 42 -62 42c-17 0 -38 -2 -57 -13l-44 35l38 170h199v-79h-131l-11 -52c12 3 24 5 37 5c64 0 123 -34 123 -107c0 -68 -58 -122 -149 -122c-51 0 -102 16 -135 40z" />
    <glyph glyph-name="fourfifths" unicode="&#x2158;" horiz-adv-x="925" 
d="M44 355v71l172 211h96v-211h41v-71h-41v-60h-87v60h-181zM122 426h103v122zM214 0l406 630h107l-406 -630h-107zM592 28l43 68c23 -19 55 -30 88 -30c24 0 61 6 61 43c0 28 -30 42 -62 42c-17 0 -38 -2 -57 -13l-44 35l38 170h199v-79h-131l-11 -52c12 3 24 5 37 5
c64 0 123 -34 123 -107c0 -68 -58 -122 -149 -122c-51 0 -102 16 -135 40z" />
    <glyph glyph-name="onesixth" unicode="&#x2159;" horiz-adv-x="925" 
d="M186 295v238l-78 -39l-36 72l126 71h86v-342h-98zM196 0l406 630h107l-406 -630h-107zM830 330l-31 -70c-15 8 -37 15 -60 15c-45 0 -81 -31 -84 -74c23 12 52 18 76 18c62 0 121 -30 121 -110c0 -64 -59 -118 -140 -118c-75 0 -150 49 -150 167c0 114 69 195 172 195
c47 0 81 -15 96 -23zM655 135c0 -49 23 -73 55 -73c35 0 58 19 58 47c0 24 -17 44 -53 44c-23 0 -49 -10 -60 -18z" />
    <glyph glyph-name="fivesixths" unicode="&#x215a;" horiz-adv-x="925" 
d="M56 322l43 68c23 -19 55 -30 88 -30c24 0 61 6 61 43c0 28 -30 42 -62 42c-17 0 -38 -2 -57 -13l-44 35l38 170h199v-79h-131l-11 -52c12 3 24 5 37 5c64 0 123 -34 123 -107c0 -68 -58 -122 -149 -122c-51 0 -102 16 -135 40zM213 0l406 630h107l-406 -630h-107z
M847 330l-31 -70c-15 8 -37 15 -60 15c-45 0 -81 -31 -84 -74c23 12 52 18 76 18c62 0 121 -30 121 -110c0 -64 -59 -118 -140 -118c-75 0 -150 49 -150 167c0 114 69 195 172 195c47 0 81 -15 96 -23zM672 135c0 -49 23 -73 55 -73c35 0 58 19 58 47c0 24 -17 44 -53 44
c-23 0 -49 -10 -60 -18z" />
    <glyph glyph-name="oneseventh" unicode="&#xf506;" horiz-adv-x="925" 
d="M181 295v238l-78 -39l-36 72l126 71h86v-342h-98zM191 0l406 630h107l-406 -630h-107zM728 1h-102c32 99 108 215 134 263h-172v79h269v-80c-30 -46 -105 -177 -129 -262z" />
    <glyph glyph-name="twosevenths" unicode="&#xf507;" horiz-adv-x="925" 
d="M55 295v45c0 104 166 139 166 191c0 24 -16 33 -39 33c-31 0 -70 -18 -97 -35l-36 70c33 23 86 48 145 48c88 0 128 -46 128 -106c0 -96 -103 -110 -156 -166h157v-80h-268zM209 0l406 630h107l-406 -630h-107zM746 1h-102c32 99 108 215 134 263h-172v79h269v-80
c-30 -46 -105 -177 -129 -262z" />
    <glyph glyph-name="threesevenths" unicode="&#xf508;" horiz-adv-x="925" 
d="M51 327l44 68c24 -19 55 -32 88 -32c32 0 54 13 54 41c0 35 -29 42 -66 42c-17 0 -36 -3 -49 -7l-16 35l106 84h-133v79h240v-76l-77 -61c69 -13 91 -55 91 -106c0 -64 -58 -109 -149 -109c-56 0 -101 17 -133 42zM209 0l406 630h107l-406 -630h-107zM746 1h-102
c32 99 108 215 134 263h-172v79h269v-80c-30 -46 -105 -177 -129 -262z" />
    <glyph glyph-name="foursevenths" unicode="&#xf509;" horiz-adv-x="925" 
d="M42 355v71l172 211h96v-211h41v-71h-41v-60h-87v60h-181zM120 426h103v122zM212 0l406 630h107l-406 -630h-107zM749 1h-102c32 99 108 215 134 263h-172v79h269v-80c-30 -46 -105 -177 -129 -262z" />
    <glyph glyph-name="fivesevenths" unicode="&#xf50a;" horiz-adv-x="925" 
d="M51 322l43 68c23 -19 55 -30 88 -30c24 0 61 6 61 43c0 28 -30 42 -62 42c-17 0 -38 -2 -57 -13l-44 35l38 170h199v-79h-131l-11 -52c12 3 24 5 37 5c64 0 123 -34 123 -107c0 -68 -58 -122 -149 -122c-51 0 -102 16 -135 40zM208 0l406 630h107l-406 -630h-107zM745 1
h-102c32 99 108 215 134 263h-172v79h269v-80c-30 -46 -105 -177 -129 -262z" />
    <glyph glyph-name="sixsevenths" unicode="&#xf50b;" horiz-adv-x="925" 
d="M313 624l-31 -70c-15 8 -37 15 -60 15c-45 0 -81 -31 -84 -74c23 12 52 18 76 18c62 0 121 -30 121 -110c0 -64 -59 -118 -140 -118c-75 0 -150 49 -150 167c0 114 69 195 172 195c47 0 81 -15 96 -23zM138 429c0 -49 23 -73 55 -73c35 0 58 19 58 47c0 24 -17 44 -53 44
c-23 0 -49 -10 -60 -18zM214 0l406 630h107l-406 -630h-107zM751 1h-102c32 99 108 215 134 263h-172v79h269v-80c-30 -46 -105 -177 -129 -262z" />
    <glyph glyph-name="oneninth" unicode="&#xf50c;" horiz-adv-x="925" 
d="M176 295v238l-78 -39l-36 72l126 71h86v-342h-98zM186 0l406 630h107l-406 -630h-107zM592 14l31 70c15 -8 36 -15 67 -15c53 0 77 31 80 74c-23 -12 -52 -18 -76 -18c-62 0 -121 30 -121 110c0 64 59 118 140 118c75 0 150 -50 150 -167c0 -114 -58 -195 -177 -195
c-45 0 -79 15 -94 23zM770 209c0 49 -23 73 -55 73c-35 0 -58 -19 -58 -47c0 -24 17 -44 53 -44c23 0 49 10 60 18z" />
    <glyph glyph-name="twoninths" unicode="&#xf50d;" horiz-adv-x="925" 
d="M50 295v45c0 104 166 139 166 191c0 24 -16 33 -39 33c-31 0 -70 -18 -97 -35l-36 70c33 23 86 48 145 48c88 0 128 -46 128 -106c0 -96 -103 -110 -156 -166h157v-80h-268zM204 0l406 630h107l-406 -630h-107zM610 14l31 70c15 -8 36 -15 67 -15c53 0 77 31 80 74
c-23 -12 -52 -18 -76 -18c-62 0 -121 30 -121 110c0 64 59 118 140 118c75 0 150 -50 150 -167c0 -114 -58 -195 -177 -195c-45 0 -79 15 -94 23zM788 209c0 49 -23 73 -55 73c-35 0 -58 -19 -58 -47c0 -24 17 -44 53 -44c23 0 49 10 60 18z" />
    <glyph glyph-name="fourninths" unicode="&#xf50e;" horiz-adv-x="925" 
d="M36 355v71l172 211h96v-211h41v-71h-41v-60h-87v60h-181zM114 426h103v122zM206 0l406 630h107l-406 -630h-107zM612 14l31 70c15 -8 36 -15 67 -15c53 0 77 31 80 74c-23 -12 -52 -18 -76 -18c-62 0 -121 30 -121 110c0 64 59 118 140 118c75 0 150 -50 150 -167
c0 -114 -58 -195 -177 -195c-45 0 -79 15 -94 23zM790 209c0 49 -23 73 -55 73c-35 0 -58 -19 -58 -47c0 -24 17 -44 53 -44c23 0 49 10 60 18z" />
    <glyph glyph-name="fiveninths" unicode="&#xf50f;" horiz-adv-x="925" 
d="M45 322l43 68c23 -19 55 -30 88 -30c24 0 61 6 61 43c0 28 -30 42 -62 42c-17 0 -38 -2 -57 -13l-44 35l38 170h199v-79h-131l-11 -52c12 3 24 5 37 5c64 0 123 -34 123 -107c0 -68 -58 -122 -149 -122c-51 0 -102 16 -135 40zM202 0l406 630h107l-406 -630h-107zM608 14
l31 70c15 -8 36 -15 67 -15c53 0 77 31 80 74c-23 -12 -52 -18 -76 -18c-62 0 -121 30 -121 110c0 64 59 118 140 118c75 0 150 -50 150 -167c0 -114 -58 -195 -177 -195c-45 0 -79 15 -94 23zM786 209c0 49 -23 73 -55 73c-35 0 -58 -19 -58 -47c0 -24 17 -44 53 -44
c23 0 49 10 60 18z" />
    <glyph glyph-name="sevenninths" unicode="&#xf510;" horiz-adv-x="925" 
d="M200 295h-102c32 99 108 215 134 263h-172v79h269v-80c-30 -46 -105 -177 -129 -262zM168 0l406 630h107l-406 -630h-107zM574 14l31 70c15 -8 36 -15 67 -15c53 0 77 31 80 74c-23 -12 -52 -18 -76 -18c-62 0 -121 30 -121 110c0 64 59 118 140 118
c75 0 150 -50 150 -167c0 -114 -58 -195 -177 -195c-45 0 -79 15 -94 23zM752 209c0 49 -23 73 -55 73c-35 0 -58 -19 -58 -47c0 -24 17 -44 53 -44c23 0 49 10 60 18z" />
    <glyph glyph-name="eightninths" unicode="&#xf511;" horiz-adv-x="925" 
d="M105 476c-34 17 -51 42 -51 73c0 64 63 98 131 98s132 -33 132 -98c0 -31 -19 -57 -51 -73c39 -15 66 -41 66 -84c0 -72 -68 -107 -147 -107c-80 0 -146 35 -146 107c0 43 27 69 66 84zM187 446c-25 -7 -52 -24 -52 -52c0 -27 25 -38 50 -38c24 0 50 11 50 38
c0 28 -25 45 -48 52zM183 505c23 7 47 17 47 42c0 24 -21 36 -45 36s-45 -12 -45 -36c0 -25 20 -35 43 -42zM209 0l406 630h107l-406 -630h-107zM615 14l31 70c15 -8 36 -15 67 -15c53 0 77 31 80 74c-23 -12 -52 -18 -76 -18c-62 0 -121 30 -121 110c0 64 59 118 140 118
c75 0 150 -50 150 -167c0 -114 -58 -195 -177 -195c-45 0 -79 15 -94 23zM793 209c0 49 -23 73 -55 73c-35 0 -58 -19 -58 -47c0 -24 17 -44 53 -44c23 0 49 10 60 18z" />
    <glyph glyph-name="partialdiff" unicode="&#x2202;" horiz-adv-x="549" 
d="M154 506l-46 94c26 15 104 48 178 48c149 0 223 -117 223 -274c0 -180 -79 -392 -281 -392c-122 0 -186 73 -186 181c0 119 94 245 238 245c56 0 89 -13 118 -30v13c0 72 -38 148 -125 148c-32 0 -61 -9 -84 -17c-13 -5 -24 -10 -35 -16zM384 266c-24 16 -58 36 -118 36
c-63 0 -110 -58 -110 -126c0 -56 31 -91 86 -91c63 0 121 40 142 181z" />
    <glyph glyph-name="Delta" unicode="&#x2206;" horiz-adv-x="711" 
d="M38 0v113l255 554h125l255 -554v-113h-635zM161 113h388l-197 425z" />
    <glyph glyph-name="product" unicode="&#x220f;" horiz-adv-x="761" 
d="M132 -122v678h-109v111h715v-111h-109v-678h-125v678h-247v-678h-125z" />
    <glyph glyph-name="summation" unicode="&#x2211;" horiz-adv-x="578" 
d="M43 -121v113l198 289l-198 275v111h492v-111h-348l195 -275l-196 -289h349v-113h-492z" />
    <glyph glyph-name="uni2126" unicode="&#x2126;" horiz-adv-x="822" 
d="M53 0v113h126c-75 61 -115 134 -115 238c0 194 152 333 347 333s347 -139 347 -333c0 -104 -40 -177 -115 -238h126v-113h-298v113c97 27 156 135 156 241c0 127 -83 216 -215 216h-2c-132 0 -215 -89 -215 -216c0 -106 59 -214 156 -241v-113h-298z" />
    <glyph glyph-name="minus" unicode="&#x2212;" horiz-adv-x="545" 
d="M74 272v99h398v-99h-398z" />
    <glyph glyph-name="uni2215" unicode="&#x2215;" horiz-adv-x="201" 
d="M-154 0l406 630h107l-406 -630h-107z" />
    <glyph glyph-name="uni2219" unicode="&#x2219;" horiz-adv-x="259" 
d="M68 296v117h123v-117h-123z" />
    <glyph glyph-name="radical" unicode="&#x221a;" horiz-adv-x="592" 
d="M239 0l-138 280h-77v111h151l113 -246l177 587h116l-218 -732h-124z" />
    <glyph glyph-name="infinity" unicode="&#x221e;" horiz-adv-x="689" 
d="M345 191c-25 -37 -76 -70 -136 -70c-104 0 -176 76 -176 193s72 193 176 193c60 0 111 -34 136 -71c25 37 77 71 137 71c101 0 174 -76 174 -193s-72 -193 -176 -193c-60 0 -110 34 -135 70zM389 314c15 -53 54 -88 89 -88c48 0 75 44 75 88s-27 88 -75 88
c-35 0 -74 -35 -89 -88zM300 314c-15 53 -54 88 -89 88c-48 0 -75 -44 -75 -88s27 -88 75 -88c35 0 74 35 89 88z" />
    <glyph glyph-name="integral" unicode="&#x222b;" horiz-adv-x="539" 
d="M3 -73l55 78c21 -15 47 -25 72 -25c19 0 35 5 50 17c25 20 26 49 26 97v375c0 69 6 118 41 157c28 32 73 59 133 59c42 0 99 -7 146 -49l-55 -78c-21 15 -47 25 -72 25c-19 0 -35 -5 -50 -17c-25 -20 -26 -49 -26 -97v-380c0 -64 -6 -113 -41 -152
c-28 -32 -73 -59 -133 -59c-42 0 -98 6 -146 49z" />
    <glyph glyph-name="approxequal" unicode="&#x2248;" horiz-adv-x="545" 
d="M111 339l-50 76c24 27 75 65 133 65c61 0 84 -46 143 -46c50 0 76 27 97 40l50 -76c-25 -27 -73 -67 -132 -67c-61 0 -86 48 -144 48c-49 0 -77 -25 -97 -40zM111 162l-50 76c24 27 75 65 133 65c61 0 84 -46 143 -46c50 0 76 27 97 40l50 -76c-25 -27 -73 -67 -132 -67
c-61 0 -86 48 -144 48c-49 0 -77 -25 -97 -40z" />
    <glyph glyph-name="notequal" unicode="&#x2260;" horiz-adv-x="545" 
d="M106 107l45 80h-74v99h130l39 69h-169v99h224l63 111l72 -36l-42 -75h75v-99h-131l-39 -69h170v-99h-226l-65 -116z" />
    <glyph glyph-name="lessequal" unicode="&#x2264;" horiz-adv-x="545" 
d="M56 325v72l357 187l43 -85l-267 -138l267 -138l-43 -85zM51 0v99h398v-99h-398z" />
    <glyph glyph-name="greaterequal" unicode="&#x2265;" horiz-adv-x="545" 
d="M132 138l-43 85l267 138l-267 138l43 85l357 -187v-72zM96 0v99h398v-99h-398z" />
    <glyph glyph-name="lozenge" unicode="&#x25ca;" horiz-adv-x="588" 
d="M232 -1l-199 334l199 334h124l199 -334l-199 -334h-124zM294 97l135 236l-135 236l-135 -236z" />
    <glyph glyph-name="zero.alt" unicode="&#xf800;" horiz-adv-x="579" 
d="M289 -16c-163 0 -246 139 -246 339c0 195 83 325 247 325c163 0 246 -130 246 -325c0 -200 -83 -339 -247 -339zM290 92c83 0 125 101 125 231c0 126 -43 216 -126 216s-125 -90 -125 -216c0 -130 43 -231 126 -231z" />
    <glyph glyph-name="one.alt" unicode="&#xf801;" horiz-adv-x="438" 
d="M79 0v103h108v398l-121 -64l-49 92l185 101h103v-527h104v-103h-330z" />
    <glyph glyph-name="two.alt" unicode="&#xf802;" horiz-adv-x="504" 
d="M52 0v79c0 115 85 183 159 246c74 64 116 85 116 142c0 36 -22 76 -90 76c-61 0 -98 -42 -117 -74l-88 63c32 53 94 116 215 116c144 0 206 -85 206 -170c0 -91 -64 -153 -128 -206c-77 -64 -140 -102 -140 -165h272v-107h-405z" />
    <glyph glyph-name="three.alt" unicode="&#xf803;" horiz-adv-x="514" 
d="M12 55l68 83c36 -32 78 -53 134 -53c72 0 118 43 118 107c0 56 -28 101 -109 101c-19 0 -40 -5 -56 -9l-35 56l161 181h-236v108h377v-90l-140 -164c112 -13 163 -85 163 -184c0 -132 -106 -209 -242 -209c-91 0 -156 30 -203 73z" />
    <glyph glyph-name="four.alt" unicode="&#xf804;" horiz-adv-x="534" 
d="M39 121v99l275 410h118v-409h65v-100h-65v-121h-113v121h-280zM153 221h166v243z" />
    <glyph glyph-name="five.alt" unicode="&#xf805;" horiz-adv-x="517" 
d="M12 54l66 85c36 -32 73 -52 137 -52c85 0 119 56 119 117c0 40 -25 106 -125 106c-45 0 -68 -11 -91 -19l-60 46l63 292h327v-110h-242l-25 -121c9 4 33 9 65 9c123 0 210 -77 210 -198c0 -117 -66 -227 -248 -227c-89 0 -149 29 -196 72z" />
    <glyph glyph-name="six.alt" unicode="&#xf806;" horiz-adv-x="539" 
d="M487 606l-51 -93l-30 15c-19 8 -46 16 -78 16c-95 0 -159 -90 -159 -180c29 17 68 44 132 44c116 0 196 -76 196 -206c0 -117 -75 -220 -215 -220c-133 0 -232 94 -232 310c0 209 96 356 279 356c73 0 132 -27 158 -42zM168 269c0 -141 52 -184 114 -184
c63 0 104 49 104 121c0 61 -39 101 -96 101c-60 0 -98 -22 -122 -38z" />
    <glyph glyph-name="seven.alt" unicode="&#xf807;" horiz-adv-x="474" 
d="M216 0h-128c56 179 171 433 225 519h-287v111h408v-106c-52 -83 -178 -371 -218 -524z" />
    <glyph glyph-name="eight.alt" unicode="&#xf808;" horiz-adv-x="560" 
d="M280 391c53 15 88 54 88 93c0 44 -36 76 -88 76c-49 0 -88 -32 -88 -79c0 -35 35 -75 88 -90zM278 294c-61 -13 -115 -57 -115 -114c0 -71 63 -99 117 -99s117 28 117 99c0 57 -58 101 -119 114zM160 349c-41 24 -79 75 -79 132c0 100 80 167 199 167
c130 0 199 -68 199 -162c0 -63 -39 -110 -82 -133c76 -32 120 -93 120 -174c0 -85 -66 -195 -237 -195c-173 0 -237 107 -237 193c0 81 46 141 117 172z" />
    <glyph glyph-name="nine.alt" unicode="&#xf809;" horiz-adv-x="543" 
d="M58 26l48 95c11 -7 24 -12 37 -17c23 -8 54 -16 86 -16c95 0 143 84 146 175c-21 -17 -60 -43 -135 -43c-116 0 -197 94 -197 208c0 117 79 220 219 220c133 0 232 -94 232 -310c0 -204 -84 -354 -267 -354c-74 0 -143 26 -169 42zM376 361c0 141 -52 184 -114 184
c-63 0 -108 -46 -108 -118c0 -59 39 -102 102 -102c65 0 96 20 120 36z" />
    <glyph glyph-name="zero.sups" unicode="&#xf80a;" 
d="M180 375c-92 0 -159 61 -159 181s67 181 159 181s159 -61 159 -181s-67 -181 -159 -181zM180 454c29 0 61 25 61 102s-32 102 -61 102s-61 -25 -61 -102s32 -102 61 -102z" />
    <glyph glyph-name="one.sups" unicode="&#xf80b;" 
d="M173 385v238l-78 -39l-36 72l126 71h86v-342h-98z" />
    <glyph glyph-name="two.sups" unicode="&#xf80c;" 
d="M49 385v45c0 104 166 139 166 191c0 24 -16 33 -39 33c-31 0 -70 -18 -97 -35l-36 70c33 23 86 48 145 48c88 0 128 -46 128 -106c0 -96 -103 -110 -156 -166h157v-80h-268z" />
    <glyph glyph-name="three.sups" unicode="&#xf80d;" 
d="M30 417l44 68c24 -19 55 -32 88 -32c32 0 54 13 54 41c0 35 -29 42 -66 42c-17 0 -36 -3 -49 -7l-16 35l106 84h-133v79h240v-76l-77 -61c69 -13 91 -55 91 -106c0 -64 -58 -109 -149 -109c-56 0 -101 17 -133 42z" />
    <glyph glyph-name="four.sups" unicode="&#xf80e;" 
d="M33 445v71l172 211h96v-211h41v-71h-41v-60h-87v60h-181zM111 516h103v122z" />
    <glyph glyph-name="five.sups" unicode="&#xf80f;" 
d="M26 412l43 68c23 -19 55 -30 88 -30c24 0 61 6 61 43c0 28 -30 42 -62 42c-17 0 -38 -2 -57 -13l-44 35l38 170h199v-79h-131l-11 -52c12 3 24 5 37 5c64 0 123 -34 123 -107c0 -68 -58 -122 -149 -122c-51 0 -102 16 -135 40z" />
    <glyph glyph-name="six.sups" unicode="&#xf810;" 
d="M302 714l-31 -70c-15 8 -37 15 -60 15c-45 0 -81 -31 -84 -74c23 12 52 18 76 18c62 0 121 -30 121 -110c0 -64 -59 -118 -140 -118c-75 0 -150 49 -150 167c0 114 69 195 172 195c47 0 81 -15 96 -23zM127 519c0 -49 23 -73 55 -73c35 0 58 19 58 47c0 24 -17 44 -53 44
c-23 0 -49 -10 -60 -18z" />
    <glyph glyph-name="seven.sups" unicode="&#xf811;" 
d="M185 385h-102c32 99 108 215 134 263h-172v79h269v-80c-30 -46 -105 -177 -129 -262z" />
    <glyph glyph-name="eight.sups" unicode="&#xf812;" 
d="M99 566c-34 17 -51 42 -51 73c0 64 63 98 131 98s132 -33 132 -98c0 -31 -19 -57 -51 -73c39 -15 66 -41 66 -84c0 -72 -68 -107 -147 -107c-80 0 -146 35 -146 107c0 43 27 69 66 84zM181 536c-25 -7 -52 -24 -52 -52c0 -27 25 -38 50 -38c24 0 50 11 50 38
c0 28 -25 45 -48 52zM177 595c23 7 47 17 47 42c0 24 -21 36 -45 36s-45 -12 -45 -36c0 -25 20 -35 43 -42z" />
    <glyph glyph-name="nine.sups" unicode="&#xf813;" 
d="M54 398l31 70c15 -8 36 -15 67 -15c53 0 77 31 80 74c-23 -12 -52 -18 -76 -18c-62 0 -121 30 -121 110c0 64 59 118 140 118c75 0 150 -50 150 -167c0 -114 -58 -195 -177 -195c-45 0 -79 15 -94 23zM232 593c0 49 -23 73 -55 73c-35 0 -58 -19 -58 -47
c0 -24 17 -44 53 -44c23 0 49 10 60 18z" />
    <glyph glyph-name="zero.sinf" unicode="&#xf814;" 
d="M180 -99c-92 0 -159 61 -159 181s67 181 159 181s159 -61 159 -181s-67 -181 -159 -181zM180 -20c29 0 61 25 61 102s-32 102 -61 102s-61 -25 -61 -102s32 -102 61 -102z" />
    <glyph glyph-name="one.sinf" unicode="&#xf815;" 
d="M173 -89v238l-78 -39l-36 72l126 71h86v-342h-98z" />
    <glyph glyph-name="two.sinf" unicode="&#xf816;" 
d="M49 -89v45c0 104 166 139 166 191c0 24 -16 33 -39 33c-31 0 -70 -18 -97 -35l-36 70c33 23 86 48 145 48c88 0 128 -46 128 -106c0 -96 -103 -110 -156 -166h157v-80h-268z" />
    <glyph glyph-name="three.sinf" unicode="&#xf817;" 
d="M30 -57l44 68c24 -19 55 -32 88 -32c32 0 54 13 54 41c0 35 -29 42 -66 42c-17 0 -36 -3 -49 -7l-16 35l106 84h-133v79h240v-76l-77 -61c69 -13 91 -55 91 -106c0 -64 -58 -109 -149 -109c-56 0 -101 17 -133 42z" />
    <glyph glyph-name="four.sinf" unicode="&#xf818;" 
d="M33 -29v71l172 211h96v-211h41v-71h-41v-60h-87v60h-181zM111 42h103v122z" />
    <glyph glyph-name="five.sinf" unicode="&#xf819;" 
d="M26 -62l43 68c23 -19 55 -30 88 -30c24 0 61 6 61 43c0 28 -30 42 -62 42c-17 0 -38 -2 -57 -13l-44 35l38 170h199v-79h-131l-11 -52c12 3 24 5 37 5c64 0 123 -34 123 -107c0 -68 -58 -122 -149 -122c-51 0 -102 16 -135 40z" />
    <glyph glyph-name="six.sinf" unicode="&#xf81a;" 
d="M302 240l-31 -70c-15 8 -37 15 -60 15c-45 0 -81 -31 -84 -74c23 12 52 18 76 18c62 0 121 -30 121 -110c0 -64 -59 -118 -140 -118c-75 0 -150 49 -150 167c0 114 69 195 172 195c47 0 81 -15 96 -23zM127 45c0 -49 23 -73 55 -73c35 0 58 19 58 47c0 24 -17 44 -53 44
c-23 0 -49 -10 -60 -18z" />
    <glyph glyph-name="seven.sinf" unicode="&#xf81b;" 
d="M185 -89h-102c32 99 108 215 134 263h-172v79h269v-80c-30 -46 -105 -177 -129 -262z" />
    <glyph glyph-name="eight.sinf" unicode="&#xf81c;" 
d="M99 92c-34 17 -51 42 -51 73c0 64 63 98 131 98s132 -33 132 -98c0 -31 -19 -57 -51 -73c39 -15 66 -41 66 -84c0 -72 -68 -107 -147 -107c-80 0 -146 35 -146 107c0 43 27 69 66 84zM181 62c-25 -7 -52 -24 -52 -52c0 -27 25 -38 50 -38c24 0 50 11 50 38
c0 28 -25 45 -48 52zM177 121c23 7 47 17 47 42c0 24 -21 36 -45 36s-45 -12 -45 -36c0 -25 20 -35 43 -42z" />
    <glyph glyph-name="nine.sinf" unicode="&#xf81d;" 
d="M54 -76l31 70c15 -8 36 -15 67 -15c53 0 77 31 80 74c-23 -12 -52 -18 -76 -18c-62 0 -121 30 -121 110c0 64 59 118 140 118c75 0 150 -50 150 -167c0 -114 -58 -195 -177 -195c-45 0 -79 15 -94 23zM232 119c0 49 -23 73 -55 73c-35 0 -58 -19 -58 -47
c0 -24 17 -44 53 -44c23 0 49 10 60 18z" />
    <glyph glyph-name="hungarumlaut.cap" horiz-adv-x="498" 
d="M51 717l73 156h138l-114 -156h-97zM236 717l73 156h138l-114 -156h-97z" />
    <glyph glyph-name="cedilla.cap" horiz-adv-x="356" 
d="M91 -198l13 69c25 -9 49 -12 70 -12c35 0 56 10 56 30c0 16 -16 29 -52 29c-23 0 -47 -4 -64 -11l11 68c24 7 46 12 85 12c72 0 117 -38 117 -93c0 -70 -66 -106 -133 -106c-32 0 -56 3 -75 7c-11 2 -20 4 -28 7z" />
    <glyph glyph-name="tilde.cap" horiz-adv-x="490" 
d="M92 729l-49 75c25 25 70 61 128 61c59 0 79 -42 135 -42c47 0 73 22 92 37l49 -75c-24 -24 -69 -63 -127 -63s-80 44 -136 44c-47 0 -73 -22 -92 -37z" />
    <glyph glyph-name="ogonek.cap" horiz-adv-x="298" 
d="M122 0h93c-25 -25 -47 -59 -47 -82c0 -14 9 -21 26 -21c19 0 34 6 50 17l29 -75c-35 -23 -78 -37 -113 -37c-69 0 -101 32 -101 80c0 40 28 82 63 118z" />
    <glyph glyph-name="ring.cap" horiz-adv-x="315" 
d="M26 803c0 75 58 128 131 128c75 0 132 -54 132 -127c0 -75 -58 -128 -131 -128c-75 0 -132 54 -132 127zM158 751c31 0 50 21 50 53c0 31 -19 52 -51 52c-31 0 -50 -21 -50 -53c0 -31 19 -52 51 -52z" />
    <glyph glyph-name="caron.cap" horiz-adv-x="417" 
d="M153 717l-110 156h104l62 -82l61 82h104l-110 -156h-111z" />
    <glyph glyph-name="macron.cap" horiz-adv-x="361" 
d="M23 747v97h315v-97h-315z" />
    <glyph glyph-name="dieresis.cap" horiz-adv-x="322" 
d="M206 737v117h123v-117h-123zM-7 737v117h123v-117h-123z" />
    <glyph glyph-name="dotaccent.cap" horiz-adv-x="215" 
d="M43 734v123h129v-123h-129z" />
    <glyph glyph-name="circumflex.cap" horiz-adv-x="417" 
d="M43 717l110 156h111l110 -156h-104l-62 82l-61 -82h-104z" />
    <glyph glyph-name="acute.cap" horiz-adv-x="305" 
d="M43 717l73 156h146l-114 -156h-105z" />
    <glyph glyph-name="grave.cap" horiz-adv-x="305" 
d="M157 717l-114 156h146l73 -156h-105z" />
    <glyph glyph-name="breve.cap" horiz-adv-x="406" 
d="M43 863h93c0 -35 24 -67 67 -67s67 32 67 67h93c0 -76 -52 -149 -160 -149s-160 73 -160 149z" />
    <glyph glyph-name="commaaccent.cap" horiz-adv-x="238" 
d="M23 -209l53 158h139l-88 -158h-104z" />
    <glyph glyph-name="caron.alt" horiz-adv-x="374" 
d="M112 498v169h110l-34 -169h-76z" />
    <glyph glyph-name="commaaccent" horiz-adv-x="181" 
d="M5 -193l48 142h126l-79 -142h-95z" />
    <glyph glyph-name="revcommaaccent" horiz-adv-x="181" 
d="M5 540l79 142h95l-48 -142h-126z" />
    <glyph glyph-name="at.alt" horiz-adv-x="797" 
d="M316 278v50h-261c-8 245 168 346 342 346c204 0 357 -124 357 -360c0 -231 -103 -330 -257 -330c-94 0 -132 42 -151 69c-47 -61 -106 -69 -151 -69c-83 0 -170 44 -170 145c0 105 76 153 197 153c27 0 78 -4 94 -4zM167 415h149v89h109v-89h110v-87h-110v-166
c0 -57 24 -84 83 -84c99 0 143 91 143 246c0 180 -117 258 -254 258c-152 0 -230 -101 -230 -167zM316 134v60c-17 0 -61 3 -86 3c-68 0 -97 -28 -97 -63s25 -56 80 -56c45 0 90 21 103 56z" />
    </font>
</defs>
</svg>
