<?xml version="1.0" standalone="no"?>
<!DOCTYPE svg PUBLIC "-//W3C//DTD SVG 1.1//EN" "http://www.w3.org/Graphics/SVG/1.1/DTD/svg11.dtd" >
<svg xmlns="http://www.w3.org/2000/svg" xmlns:xlink="http://www.w3.org/1999/xlink" version="1.1">
<metadata>
Created by FontForge 20190801 at Fri Mar  7 19:53:39 2014
 By root
Copyright \(c\) 2007 by Jonas Schudel and Dalton Maag Ltd. All rights reserved.
</metadata>
<defs>
<font id="Effra-Bold" horiz-adv-x="360" >
  <font-face 
    font-family="Effra"
    font-weight="700"
    font-stretch="normal"
    units-per-em="1000"
    panose-1="2 0 8 6 8 0 0 2 0 4"
    ascent="800"
    descent="-200"
    x-height="469"
    cap-height="667"
    bbox="-165 -231 1252 943"
    underline-thickness="50"
    underline-position="-100"
    stemh="125"
    stemv="144"
    unicode-range="U+0020-FB04"
  />
<missing-glyph horiz-adv-x="560" 
d="M50 0v700h460v-700h-460zM115 54h330v592h-330v-592z" />
    <glyph glyph-name="ff" unicode="ff" horiz-adv-x="667" 
d="M90 0v356h-76v113h76v16c0 148 97 200 188 200c41 0 86 -11 125 -42l-53 -94c-19 13 -38 20 -57 20c-32 0 -60 -20 -60 -71v-29h168v24c0 131 92 192 192 192c51 0 105 -13 148 -49l-61 -91c-20 15 -45 23 -70 23c-39 0 -66 -29 -66 -73v-26h111v-113h-111v-356h-143v356
h-168v-356h-143z" />
    <glyph glyph-name="fi" unicode="fi" horiz-adv-x="585" 
d="M90 0v356h-76v113h76v6c0 160 118 210 242 210c61 0 136 -17 191 -50l-54 -99c-36 19 -86 36 -133 36c-65 0 -103 -22 -103 -82v-21h294v-469h-143v356h-151v-356h-143z" />
    <glyph glyph-name="fl" unicode="fl" horiz-adv-x="586" 
d="M90 0v356h-76v113h76v12c0 152 109 204 238 204c84 0 163 -28 204 -52v-633h-143v561c-16 7 -43 10 -66 10c-63 0 -90 -24 -90 -84v-18h100v-113h-100v-356h-143z" />
    <glyph glyph-name="ffi" unicode="ffi" horiz-adv-x="896" 
d="M90 0v356h-76v113h76v16c0 144 94 200 188 200c41 0 86 -11 125 -42l-53 -94c-19 13 -38 20 -57 20c-32 0 -61 -20 -61 -71v-29h169v6c0 156 115 210 238 210c65 0 140 -17 195 -50l-54 -99c-36 19 -86 36 -133 36c-65 0 -103 -21 -103 -89v-14h294v-469h-143v356h-151
v-356h-143v356h-167v-356h-144z" />
    <glyph glyph-name="ffl" unicode="ffl" horiz-adv-x="897" 
d="M90 0v356h-76v113h76v24c0 132 96 192 188 192c41 0 86 -11 125 -42l-53 -94c-19 13 -38 20 -57 20c-32 0 -61 -20 -61 -71v-29h169v12c0 152 109 204 238 204c84 0 163 -28 204 -52v-633h-143v561c-16 7 -43 10 -66 10c-63 0 -90 -24 -90 -84v-18h100v-113h-100v-356
h-143v356h-167v-356h-144z" />
    <glyph glyph-name=".notdef" horiz-adv-x="560" 
d="M50 0v700h460v-700h-460zM115 54h330v592h-330v-592z" />
    <glyph glyph-name=".null" horiz-adv-x="0" 
 />
    <glyph glyph-name="CR" horiz-adv-x="175" 
 />
    <glyph glyph-name="space" unicode=" " horiz-adv-x="181" 
 />
    <glyph glyph-name="exclam" unicode="!" horiz-adv-x="292" 
d="M73 217l-6 450h158l-6 -450h-146zM67 0v154h157v-154h-157z" />
    <glyph glyph-name="quotedbl" unicode="&#x22;" horiz-adv-x="422" 
d="M241 418v249h133v-249h-133zM47 418v249h133v-249h-133z" />
    <glyph glyph-name="numbersign" unicode="#" horiz-adv-x="729" 
d="M107 0l39 145h-93v101h120l35 130h-93v101h120l41 152h113l-41 -152h124l41 152h113l-41 -152h90v-101h-117l-35 -130h90v-101h-117l-39 -145h-113l39 145h-124l-39 -145h-113zM286 246h124l35 130h-124z" />
    <glyph glyph-name="dollar" unicode="$" horiz-adv-x="545" 
d="M10 90l90 100c39 -41 101 -80 177 -80c43 0 90 15 90 64c0 41 -35 62 -127 85l-24 8c-113 32 -175 92 -175 188c0 103 70 170 186 185v89h96v-89c85 -11 137 -51 168 -80l-86 -96c-24 21 -70 55 -129 55c-41 0 -95 -17 -95 -61c0 -43 39 -58 122 -79
c100 -24 206 -74 206 -203c0 -103 -82 -170 -186 -186v-97h-96v93c-96 9 -170 53 -217 104z" />
    <glyph glyph-name="percent" unicode="%" horiz-adv-x="925" 
d="M195 0l402 630h125l-400 -630h-127zM714 -10c-101 0 -161 69 -161 182s60 180 161 180s161 -67 161 -180s-60 -182 -161 -182zM714 77c35 0 53 39 53 95c0 55 -18 94 -53 94s-53 -39 -53 -94c0 -56 18 -95 53 -95zM209 284c-101 0 -161 69 -161 182s60 180 161 180
s161 -67 161 -180s-60 -182 -161 -182zM209 371c35 0 53 39 53 95c0 55 -18 94 -53 94s-53 -39 -53 -94c0 -56 18 -95 53 -95z" />
    <glyph glyph-name="ampersand" unicode="&#x26;" horiz-adv-x="666" 
d="M482 0l-47 55c-60 -49 -114 -71 -187 -71c-133 0 -220 80 -220 194c0 79 39 152 131 208c-31 41 -44 86 -44 125c0 95 80 174 204 174c97 0 156 -52 187 -116l-102 -63c-21 45 -48 62 -79 62c-40 0 -67 -26 -67 -61c0 -27 16 -51 35 -74l156 -185l90 103l97 -85
l-103 -117l126 -149h-177zM355 152l-122 143c-48 -35 -64 -66 -64 -105c0 -48 35 -80 91 -80c39 0 64 15 95 42z" />
    <glyph glyph-name="quotesingle" unicode="'" horiz-adv-x="227" 
d="M47 418v249h133v-249h-133z" />
    <glyph glyph-name="parenleft" unicode="(" horiz-adv-x="322" 
d="M295 -93h-144c-27 48 -95 199 -95 399s68 351 95 400h144c-27 -48 -90 -217 -90 -400s63 -351 90 -399z" />
    <glyph glyph-name="parenright" unicode=")" horiz-adv-x="322" 
d="M171 -93h-144c27 48 90 216 90 399s-63 352 -90 400h144c27 -49 95 -200 95 -400s-68 -351 -95 -399z" />
    <glyph glyph-name="asterisk" unicode="*" horiz-adv-x="493" 
d="M105 371l-56 97l108 50l-108 50l56 97l95 -66l-10 115h112l-8 -116l94 65l56 -97l-107 -47l107 -50l-56 -97l-95 66l9 -116h-112l11 114z" />
    <glyph glyph-name="plus" unicode="+" horiz-adv-x="545" 
d="M73 261v115h140v142h118v-142h141v-115h-141v-140h-118v140h-140z" />
    <glyph glyph-name="comma" unicode="," horiz-adv-x="283" 
d="M58 -143l63 143h-57v160h165v-159l-84 -144h-87z" />
    <glyph glyph-name="hyphen" unicode="-" horiz-adv-x="445" 
d="M64 211v137h317v-137h-317z" />
    <glyph glyph-name="period" unicode="." horiz-adv-x="285" 
d="M61 0v159h163v-159h-163z" />
    <glyph glyph-name="slash" unicode="/" horiz-adv-x="448" 
d="M20 -16l266 701h142l-263 -701h-145z" />
    <glyph glyph-name="zero" unicode="0" horiz-adv-x="545" 
d="M272 -16c-164 0 -248 137 -248 335c0 196 84 329 249 329c169 0 248 -133 248 -329c0 -198 -79 -335 -249 -335zM273 115c73 0 102 90 102 204c0 112 -31 197 -103 197c-73 0 -102 -85 -102 -197c0 -114 28 -204 103 -204z" />
    <glyph glyph-name="one" unicode="1" horiz-adv-x="545" 
d="M112 0v123h109v350l-105 -56l-61 110l187 103h119v-507h103v-123h-352z" />
    <glyph glyph-name="two" unicode="2" horiz-adv-x="545" 
d="M49 0v85c0 200 279 272 279 372c0 32 -23 66 -82 66c-60 0 -91 -43 -110 -70l-105 73c35 59 108 122 231 122c144 0 213 -89 213 -179c0 -179 -260 -248 -260 -341h263v-128h-429z" />
    <glyph glyph-name="three" unicode="3" horiz-adv-x="545" 
d="M10 61l78 102c41 -36 83 -56 135 -56c61 0 107 35 107 95c0 47 -30 89 -98 89c-25 0 -49 -6 -61 -11l-37 59l161 165h-235v125h396v-103l-131 -148c100 -19 152 -87 152 -186c0 -133 -118 -209 -246 -209c-93 0 -168 30 -221 78z" />
    <glyph glyph-name="four" unicode="4" horiz-adv-x="545" 
d="M29 115v111l272 404h143v-402h64v-113h-64v-115h-134v115h-281zM158 228h152v233z" />
    <glyph glyph-name="five" unicode="5" horiz-adv-x="545" 
d="M16 63l77 100c36 -33 75 -55 131 -55c76 0 107 49 107 100c0 41 -30 95 -110 95c-35 0 -63 -8 -90 -19l-66 49l55 296h340v-126h-241l-19 -101c9 4 38 8 63 8c124 0 212 -78 212 -201c0 -120 -76 -226 -247 -226c-96 0 -161 33 -212 80z" />
    <glyph glyph-name="six" unicode="6" horiz-adv-x="545" 
d="M487 608l-54 -111c-16 8 -56 27 -101 27c-71 0 -135 -59 -143 -147c29 19 69 37 120 37c124 0 201 -83 201 -206s-82 -225 -225 -225c-137 0 -242 91 -242 315c0 197 101 350 289 350c72 0 123 -24 155 -40zM186 264c0 -121 48 -157 99 -157c56 0 91 42 91 102
c0 56 -37 90 -88 90c-48 0 -79 -16 -102 -35z" />
    <glyph glyph-name="seven" unicode="7" horiz-adv-x="545" 
d="M259 0h-151c51 165 163 409 221 502h-278v128h425v-121c-80 -136 -171 -353 -217 -509z" />
    <glyph glyph-name="eight" unicode="8" horiz-adv-x="545" 
d="M272 388c47 15 81 47 81 86c0 43 -33 72 -81 72c-47 0 -82 -30 -82 -74c0 -36 35 -69 82 -84zM271 285c-52 -13 -102 -47 -102 -101c0 -60 52 -86 103 -86c49 0 103 26 103 86c0 54 -54 88 -104 101zM135 347c-40 24 -76 72 -76 132c0 96 84 169 213 169
c134 0 214 -71 214 -167c0 -61 -38 -108 -78 -132c68 -31 111 -87 111 -168c0 -88 -75 -197 -247 -197s-247 102 -247 195c0 81 45 137 110 168z" />
    <glyph glyph-name="nine" unicode="9" horiz-adv-x="545" 
d="M57 24l55 112c16 -8 65 -29 110 -29c87 0 128 60 135 143c-27 -17 -67 -36 -124 -36c-124 0 -197 97 -197 208c0 123 81 226 224 226c137 0 241 -92 241 -325c0 -181 -82 -339 -279 -339c-72 0 -134 23 -165 40zM360 367c0 116 -43 156 -98 156c-56 0 -92 -40 -92 -100
c0 -51 34 -91 86 -91c53 0 79 16 104 35z" />
    <glyph glyph-name="colon" unicode=":" horiz-adv-x="285" 
d="M61 310v159h163v-159h-163zM61 0v159h163v-159h-163z" />
    <glyph glyph-name="semicolon" unicode=";" horiz-adv-x="290" 
d="M61 -143l63 143h-57v160h165v-159l-84 -144h-87zM68 310v159h163v-159h-163z" />
    <glyph glyph-name="less" unicode="&#x3c;" horiz-adv-x="545" 
d="M67 275v85l355 190l52 -102l-248 -129l252 -129l-56 -105z" />
    <glyph glyph-name="equal" unicode="=" horiz-adv-x="545" 
d="M73 165v115h399v-115h-399zM73 348v115h399v-115h-399z" />
    <glyph glyph-name="greater" unicode="&#x3e;" horiz-adv-x="545" 
d="M131 85l-56 105l252 129l-248 129l52 102l355 -190v-85z" />
    <glyph glyph-name="question" unicode="?" horiz-adv-x="526" 
d="M174 217v13c0 72 23 126 79 167c39 29 80 54 80 94c0 41 -39 62 -82 62c-61 0 -108 -37 -132 -61l-88 93c35 40 111 100 230 100c124 0 217 -69 217 -185c0 -76 -34 -117 -82 -152c-49 -38 -85 -59 -85 -118v-13h-137zM164 0v154h157v-154h-157z" />
    <glyph glyph-name="at" unicode="@" horiz-adv-x="960" 
d="M556 169v39c-3 -1 -23 3 -47 3c-76 0 -108 -24 -108 -65c0 -37 25 -58 69 -58c45 0 86 29 86 81zM233 47l-81 -65c-42 34 -113 143 -113 289c0 280 216 415 448 415c276 0 433 -152 433 -398c0 -231 -124 -303 -219 -303c-60 0 -94 17 -121 58c-41 -40 -83 -59 -158 -59
c-66 0 -158 38 -158 147c0 110 90 167 214 167c31 0 67 -1 78 -4v18c0 43 -40 62 -84 62c-67 0 -105 -19 -134 -39l-60 88c40 32 101 62 213 62c124 0 201 -66 201 -179v-166c0 -33 12 -49 35 -49c38 0 83 64 83 199c0 212 -149 297 -325 297c-152 0 -333 -83 -333 -312
c0 -123 58 -205 81 -228z" />
    <glyph glyph-name="A" unicode="A" horiz-adv-x="675" 
d="M7 0l249 667h167l244 -667h-165l-51 153h-235l-51 -153h-158zM251 270h164l-81 252z" />
    <glyph glyph-name="B" unicode="B" horiz-adv-x="614" 
d="M65 0v667h250c165 0 226 -83 226 -174c0 -85 -69 -131 -101 -139c48 -11 136 -54 136 -163c0 -138 -101 -191 -261 -191h-250zM212 400h89c45 0 91 19 91 75c0 59 -47 75 -91 75h-89v-150zM212 116h98c44 0 113 8 113 87c0 72 -67 87 -113 87h-98v-174z" />
    <glyph glyph-name="C" unicode="C" horiz-adv-x="681" 
d="M564 217l103 -94c-56 -77 -162 -140 -285 -140c-203 0 -343 146 -343 348c0 197 140 353 345 353c124 0 217 -47 278 -132l-103 -99c-40 56 -93 93 -169 93c-120 0 -194 -95 -194 -211c0 -117 75 -208 191 -208c96 0 136 44 177 90z" />
    <glyph glyph-name="D" unicode="D" horiz-adv-x="717" 
d="M65 0v667h252c206 0 356 -104 356 -337c0 -220 -152 -330 -357 -330h-251zM216 134h92c133 0 208 74 208 197s-65 203 -208 203h-92v-400z" />
    <glyph glyph-name="E" unicode="E" horiz-adv-x="580" 
d="M65 0v667h456v-132h-305v-130h237v-128h-237v-144h327v-133h-478z" />
    <glyph glyph-name="F" unicode="F" horiz-adv-x="539" 
d="M65 0v667h448v-133h-297v-151h226v-129h-226v-254h-151z" />
    <glyph glyph-name="G" unicode="G" horiz-adv-x="723" 
d="M410 245v122h257v-289c-69 -60 -161 -94 -280 -94c-219 0 -348 143 -348 348c0 199 141 352 345 352c121 0 213 -47 273 -127l-102 -97c-43 51 -90 86 -165 86c-123 0 -194 -97 -194 -214c0 -128 85 -211 200 -211c53 0 97 12 132 40v84h-118z" />
    <glyph glyph-name="H" unicode="H" horiz-adv-x="721" 
d="M65 0v667h151v-256h289v256h151v-667h-151v274h-289v-274h-151z" />
    <glyph glyph-name="I" unicode="I" horiz-adv-x="281" 
d="M65 0v667h151v-667h-151z" />
    <glyph glyph-name="J" unicode="J" horiz-adv-x="524" 
d="M10 81l98 93c36 -43 71 -59 114 -59c56 0 91 34 91 98v454h151v-464c0 -153 -109 -221 -231 -221c-97 0 -171 33 -223 99z" />
    <glyph glyph-name="K" unicode="K" horiz-adv-x="654" 
d="M65 0v667h151v-266l223 266h175l-229 -260l260 -407h-183l-178 291l-68 -76v-215h-151z" />
    <glyph glyph-name="L" unicode="L" horiz-adv-x="559" 
d="M65 0v667h151v-533h319v-134h-470z" />
    <glyph glyph-name="M" unicode="M" horiz-adv-x="801" 
d="M54 0l31 667h143l174 -313l170 313h144l31 -667h-151l-19 436l-138 -260h-78l-146 257l-17 -433h-144z" />
    <glyph glyph-name="N" unicode="N" horiz-adv-x="712" 
d="M65 0v667h144l289 -433v433h149v-667h-137l-296 441v-441h-149z" />
    <glyph glyph-name="O" unicode="O" horiz-adv-x="772" 
d="M386 -17c-197 0 -347 153 -347 351c0 199 150 351 347 351s347 -152 347 -351c0 -198 -150 -351 -347 -351zM386 125c117 0 189 97 189 211c0 115 -72 209 -189 209c-118 0 -190 -94 -190 -209c0 -114 72 -211 190 -211z" />
    <glyph glyph-name="P" unicode="P" horiz-adv-x="578" 
d="M65 0v667h243c164 0 234 -103 234 -215c0 -143 -107 -217 -227 -217h-103v-235h-147zM212 357h88c56 0 91 37 91 92c0 56 -36 95 -92 95h-87v-187z" />
    <glyph glyph-name="Q" unicode="Q" horiz-adv-x="772" 
d="M617 -75l-75 93c-47 -23 -100 -35 -156 -35c-197 0 -347 153 -347 351c0 199 150 351 347 351s347 -152 347 -351c0 -101 -39 -190 -104 -254l70 -87zM447 135l-72 91l81 68l76 -96c28 37 43 86 43 138c0 115 -72 209 -189 209c-118 0 -190 -94 -190 -209
c0 -114 72 -211 190 -211c23 0 42 3 61 10z" />
    <glyph glyph-name="R" unicode="R" horiz-adv-x="607" 
d="M65 0v667h248c156 0 234 -94 234 -209c0 -87 -40 -152 -109 -191l148 -267h-166l-124 245h-84v-245h-147zM212 366h93c56 0 90 37 90 88c0 55 -34 89 -90 89h-93v-177z" />
    <glyph glyph-name="S" unicode="S" horiz-adv-x="591" 
d="M18 94l97 105c35 -37 94 -82 171 -82c45 0 96 28 96 73c0 49 -46 71 -150 98c-102 24 -176 90 -176 191c0 111 80 206 244 206c138 0 203 -65 228 -90l-87 -96c-29 24 -78 60 -143 60c-43 0 -87 -28 -87 -63c0 -45 51 -71 135 -90c99 -24 198 -77 198 -215
c0 -120 -113 -208 -256 -208c-132 0 -219 54 -270 111z" />
    <glyph glyph-name="T" unicode="T" horiz-adv-x="625" 
d="M237 0v534h-216v133h583v-133h-215v-534h-152z" />
    <glyph glyph-name="U" unicode="U" horiz-adv-x="680" 
d="M60 253v414h152v-395c0 -87 32 -145 128 -145c94 0 127 58 127 145v395h153v-414c0 -160 -108 -271 -280 -271s-280 110 -280 271z" />
    <glyph glyph-name="V" unicode="V" horiz-adv-x="664" 
d="M252 0l-245 667h167l163 -487l159 487h160l-245 -667h-159z" />
    <glyph glyph-name="W" unicode="W" horiz-adv-x="905" 
d="M177 0l-167 667h162l98 -483l117 465h137l118 -465l97 483h156l-170 -667h-159l-114 436l-116 -436h-159z" />
    <glyph glyph-name="X" unicode="X" horiz-adv-x="641" 
d="M2 0l225 343l-220 324h185l125 -196l120 196h167l-206 -314l240 -353h-186l-144 224l-140 -224h-166z" />
    <glyph glyph-name="Y" unicode="Y" horiz-adv-x="636" 
d="M241 0v279l-234 388h171l145 -252l141 252h164l-234 -387v-280h-153z" />
    <glyph glyph-name="Z" unicode="Z" horiz-adv-x="635" 
d="M39 0v123l365 411h-348v133h533v-124l-358 -411h365v-132h-557z" />
    <glyph glyph-name="bracketleft" unicode="[" horiz-adv-x="349" 
d="M71 -93v799h251v-117h-117v-564h117v-118h-251z" />
    <glyph glyph-name="backslash" unicode="\" horiz-adv-x="448" 
d="M283 -16l-263 701h142l266 -701h-145z" />
    <glyph glyph-name="bracketright" unicode="]" horiz-adv-x="349" 
d="M27 -93v118h117v564h-117v117h251v-799h-251z" />
    <glyph glyph-name="asciicircum" unicode="^" horiz-adv-x="564" 
d="M44 300l176 367h124l176 -367h-144l-94 211l-94 -211h-144z" />
    <glyph glyph-name="underscore" unicode="_" horiz-adv-x="500" 
d="M0 -120v55h500v-55h-500z" />
    <glyph glyph-name="grave" unicode="`" horiz-adv-x="471" 
d="M215 540l-85 142h143l48 -142h-106z" />
    <glyph glyph-name="a" unicode="a" horiz-adv-x="515" 
d="M329 0l-4 44c-32 -37 -82 -58 -142 -58c-66 0 -158 33 -158 145c0 110 93 170 216 170c33 0 73 -1 84 -4v10c0 48 -43 67 -90 67c-64 0 -104 -19 -133 -39l-59 88c40 29 101 62 212 62c143 0 209 -83 209 -212v-273h-135zM325 169v38c-7 1 -27 4 -51 4
c-80 0 -110 -24 -110 -65c0 -39 23 -58 70 -58c45 0 91 29 91 81z" />
    <glyph glyph-name="b" unicode="b" horiz-adv-x="562" 
d="M197 259v-145c16 -7 32 -10 67 -10c76 0 120 54 120 134c0 58 -27 118 -93 118c-64 0 -94 -38 -94 -97zM53 18v649h144v-233c27 28 78 45 123 45c133 0 209 -109 209 -236c0 -153 -101 -259 -274 -259c-80 0 -155 18 -202 34z" />
    <glyph glyph-name="c" unicode="c" horiz-adv-x="487" 
d="M390 156l84 -94c-39 -43 -102 -78 -189 -78c-151 0 -253 104 -253 251c0 139 106 250 253 250c85 0 147 -30 190 -77l-87 -94c-21 24 -49 46 -100 46c-69 0 -111 -59 -111 -125c0 -61 42 -125 111 -125c49 0 82 23 102 46z" />
    <glyph glyph-name="d" unicode="d" horiz-adv-x="565" 
d="M378 0l-6 47c-29 -35 -76 -61 -135 -61c-115 0 -205 94 -205 242c0 169 133 251 245 251c45 0 65 -7 92 -16v204h143v-667h-134zM369 212v128c-20 12 -41 17 -76 17c-73 0 -116 -55 -116 -132c0 -68 33 -116 100 -116c65 0 92 49 92 103z" />
    <glyph glyph-name="e" unicode="e" horiz-adv-x="535" 
d="M437 142l59 -91c-22 -14 -85 -67 -206 -67c-161 0 -258 103 -258 252c0 132 90 249 242 249c151 0 232 -112 232 -269v-24h-334c1 -51 47 -95 123 -95c75 0 121 29 142 45zM172 284h198c0 39 -31 89 -97 89c-67 0 -101 -50 -101 -89z" />
    <glyph glyph-name="f" unicode="f" horiz-adv-x="356" 
d="M90 0v356h-76v113h76v24c0 132 96 192 192 192c51 0 105 -13 148 -49c-20 -31 -41 -60 -61 -91c-20 15 -45 23 -70 23c-40 0 -66 -26 -66 -73v-26h111v-113h-111v-356h-143z" />
    <glyph glyph-name="g" unicode="g" horiz-adv-x="561" 
d="M72 -162l58 102c37 -23 78 -36 129 -36c65 0 105 35 105 104v33c-30 -26 -70 -39 -120 -39c-133 0 -212 93 -212 224c0 152 108 253 270 253c77 0 149 -15 205 -35v-429c0 -155 -91 -227 -239 -227c-84 0 -144 15 -196 50zM365 209v141c-19 7 -34 10 -65 10
c-83 0 -123 -60 -123 -129c0 -68 33 -111 96 -111c59 0 92 28 92 89z" />
    <glyph glyph-name="h" unicode="h" horiz-adv-x="564" 
d="M53 0v667h143v-243c31 36 86 56 138 56c108 0 178 -65 178 -190v-290h-143v268c0 55 -30 87 -77 87c-62 0 -95 -48 -95 -103v-252h-144z" />
    <glyph glyph-name="i" unicode="i" horiz-adv-x="258" 
d="M52 538v129h154v-129h-154zM57 0v469h144v-469h-144z" />
    <glyph glyph-name="j" unicode="j" horiz-adv-x="265" 
d="M58 538v129h154v-129h-154zM-107 -157l53 97c15 -9 34 -18 57 -18c45 0 61 29 61 80v467h143v-445c0 -117 -31 -224 -180 -224c-57 0 -103 19 -134 43z" />
    <glyph glyph-name="k" unicode="k" horiz-adv-x="533" 
d="M53 0v667h144v-346l143 148h163l-168 -173l191 -296h-167l-120 198l-42 -43v-155h-144z" />
    <glyph glyph-name="l" unicode="l" horiz-adv-x="250" 
d="M53 0v667h144v-667h-144z" />
    <glyph glyph-name="m" unicode="m" horiz-adv-x="863" 
d="M53 0v469h138l5 -52c29 36 75 63 136 63c74 0 116 -35 138 -65c39 41 97 65 157 65c120 0 185 -73 185 -190v-290h-144v267c0 56 -25 88 -74 88c-56 0 -92 -43 -92 -103v-252h-139v267c0 56 -25 88 -74 88c-55 0 -92 -43 -92 -103v-252h-144z" />
    <glyph glyph-name="n" unicode="n" horiz-adv-x="562" 
d="M54 0v469h138l4 -51c31 37 84 62 139 62c108 0 176 -65 176 -190v-290h-144v270c0 52 -27 85 -74 85c-64 0 -96 -48 -96 -103v-252h-143z" />
    <glyph glyph-name="o" unicode="o" horiz-adv-x="568" 
d="M284 109c73 0 112 62 112 126s-39 125 -112 125s-113 -61 -113 -125s40 -126 113 -126zM32 235c0 139 103 250 252 250c148 0 251 -111 251 -250c0 -138 -103 -251 -251 -251c-149 0 -252 113 -252 251z" />
    <glyph glyph-name="p" unicode="p" horiz-adv-x="570" 
d="M53 -200v669h138c3 -17 4 -34 5 -51c31 39 82 60 134 60c137 0 207 -116 207 -240c0 -174 -129 -253 -245 -253c-45 0 -72 10 -96 18v-203h-143zM196 249v-125c19 -13 46 -19 83 -19c71 0 114 51 114 130c0 62 -27 120 -98 120c-64 0 -99 -53 -99 -106z" />
    <glyph glyph-name="q" unicode="q" horiz-adv-x="564" 
d="M367 -200v227c-21 -23 -61 -40 -118 -40c-132 0 -217 94 -217 242c0 141 101 250 272 250c76 0 143 -12 207 -35v-644h-144zM367 205v143c-19 7 -33 9 -65 9c-83 0 -125 -50 -125 -129c0 -64 31 -119 99 -119c60 0 91 29 91 96z" />
    <glyph glyph-name="r" unicode="r" horiz-adv-x="393" 
d="M53 0v469h138l5 -59c24 32 64 68 131 68c25 0 42 -2 59 -9l-23 -127c-15 5 -32 7 -52 7c-68 0 -114 -42 -114 -117v-232h-144z" />
    <glyph glyph-name="s" unicode="s" horiz-adv-x="482" 
d="M30 53l71 92c31 -28 86 -49 133 -49c43 0 74 8 74 39c0 25 -20 36 -109 60c-73 19 -146 58 -146 144c0 87 85 146 198 146c80 0 137 -18 188 -53l-61 -95c-31 20 -70 39 -119 39c-44 0 -63 -14 -63 -35c0 -31 44 -40 115 -59c96 -27 137 -71 137 -148
c0 -103 -103 -150 -208 -150c-84 0 -163 22 -210 69z" />
    <glyph glyph-name="t" unicode="t" horiz-adv-x="418" 
d="M88 179v177h-74v113h74v142h144v-142h121v-113h-121v-185c0 -45 17 -71 56 -71c29 0 49 12 68 25l58 -88c-45 -36 -95 -54 -148 -54c-133 0 -178 80 -178 196z" />
    <glyph glyph-name="u" unicode="u" horiz-adv-x="561" 
d="M51 178v291h144v-270c0 -53 26 -86 77 -86c59 0 92 49 92 103v253h143v-469h-138l-4 50c-31 -36 -84 -62 -139 -62c-108 0 -175 65 -175 190z" />
    <glyph glyph-name="v" unicode="v" horiz-adv-x="545" 
d="M203 0l-198 469h160l111 -308l107 308h157l-201 -469h-136z" />
    <glyph glyph-name="w" unicode="w" horiz-adv-x="769" 
d="M168 0l-161 469h148l82 -301l91 301h115l92 -301l82 301h145l-161 -469h-130l-88 262l-87 -262h-128z" />
    <glyph glyph-name="x" unicode="x" horiz-adv-x="527" 
d="M6 0l174 235l-171 234h172l84 -125l85 125h157l-165 -224l180 -245h-172l-93 135l-94 -135h-157z" />
    <glyph glyph-name="y" unicode="y" horiz-adv-x="550" 
d="M21 -173l58 99c16 -12 35 -23 58 -23c31 0 49 17 68 64l14 38l-214 464h164l117 -296l106 296h153l-192 -466c-43 -104 -74 -215 -206 -215c-51 0 -91 14 -126 39z" />
    <glyph glyph-name="z" unicode="z" horiz-adv-x="490" 
d="M40 0v97l230 256h-220v116h402v-99l-231 -257h232v-113h-413z" />
    <glyph glyph-name="braceleft" unicode="{" horiz-adv-x="310" 
d="M115 29l-14 165c-4 41 -22 73 -73 73v80c51 0 69 32 73 73l14 165c5 59 18 96 49 121h132c-31 -31 -45 -84 -50 -140l-14 -165c-4 -48 -41 -83 -78 -94c47 -15 70 -52 81 -124l13 -165c3 -39 24 -87 48 -111h-132c-31 25 -44 63 -49 122z" />
    <glyph glyph-name="bar" unicode="|" horiz-adv-x="263" 
d="M66 -164v997h130v-997h-130z" />
    <glyph glyph-name="braceright" unicode="}" horiz-adv-x="310" 
d="M146 -93h-132c24 24 45 72 48 111l13 165c11 72 34 109 81 124c-37 11 -74 46 -78 94l-14 165c-5 56 -19 109 -50 140h132c31 -25 44 -62 49 -121l14 -165c4 -41 22 -73 73 -73v-80c-51 0 -69 -32 -73 -73l-14 -165c-5 -59 -18 -97 -49 -122z" />
    <glyph glyph-name="asciitilde" unicode="~" horiz-adv-x="503" 
d="M97 217l-62 100c27 30 77 73 141 73c55 0 85 -43 136 -43c39 0 62 18 93 45l63 -100c-26 -34 -81 -75 -135 -75c-62 0 -91 45 -142 45c-40 0 -63 -20 -94 -45z" />
    <glyph glyph-name="uni00A0" unicode="&#xa0;" horiz-adv-x="187" 
 />
    <glyph glyph-name="exclamdown" unicode="&#xa1;" horiz-adv-x="292" 
d="M67 -197l6 449h146l6 -449h-158zM67 315v154h157v-154h-157z" />
    <glyph glyph-name="cent" unicode="&#xa2;" horiz-adv-x="545" 
d="M273 -19v85c-125 19 -206 116 -206 247c0 124 85 225 206 246v90h88v-89c64 -8 113 -35 149 -74l-87 -94c-21 24 -49 46 -100 46c-69 0 -111 -59 -111 -125c0 -67 43 -125 111 -125c49 0 82 24 102 47l84 -95c-33 -36 -83 -66 -148 -75v-84h-88z" />
    <glyph glyph-name="sterling" unicode="&#xa3;" horiz-adv-x="545" 
d="M110 0v269h-73v96h73v61c0 108 63 222 222 222c92 0 149 -37 189 -81l-88 -96c-24 25 -49 44 -89 44c-61 0 -83 -52 -83 -105v-45h178v-96h-178v-136h263v-133h-414z" />
    <glyph glyph-name="currency" unicode="&#xa4;" horiz-adv-x="545" 
d="M27 159l65 67c-17 30 -25 63 -25 98s8 67 24 95l-64 66l80 81l65 -66c28 15 60 25 95 25c36 0 70 -10 101 -29l68 70l81 -81l-71 -72c13 -27 22 -57 22 -89c0 -33 -8 -64 -23 -92l72 -73l-81 -80l-70 71c-31 -17 -64 -26 -99 -26s-65 8 -92 23l-68 -68zM178 324
c0 -49 40 -89 89 -89s89 40 89 89s-40 89 -89 89s-89 -40 -89 -89z" />
    <glyph glyph-name="yen" unicode="&#xa5;" horiz-adv-x="545" 
d="M66 108v82h131v70h-131v82h87l-154 288h160l116 -256l116 256h155l-155 -288h92v-82h-135v-70h135v-82h-135v-108h-151v108h-131z" />
    <glyph glyph-name="brokenbar" unicode="&#xa6;" horiz-adv-x="263" 
d="M66 -164v379h130v-379h-130zM66 454v379h130v-379h-130z" />
    <glyph glyph-name="section" unicode="&#xa7;" horiz-adv-x="470" 
d="M349 195l-204 132c-68 43 -95 103 -95 167c0 104 81 191 200 191c84 0 141 -47 157 -60l-69 -105c-24 16 -55 36 -87 36c-37 0 -59 -25 -59 -52c0 -23 5 -41 40 -64l194 -130zM57 -153l70 105c24 -16 54 -36 87 -36c36 0 59 26 59 53c0 23 -5 40 -40 63l-194 131l77 115
l204 -133c67 -43 95 -103 94 -167c0 -104 -81 -190 -200 -190c-85 0 -141 45 -157 59z" />
    <glyph glyph-name="dieresis" unicode="&#xa8;" horiz-adv-x="393" 
d="M231 554v114h123v-114h-123zM38 554v114h123v-114h-123z" />
    <glyph glyph-name="copyright" unicode="&#xa9;" horiz-adv-x="806" 
d="M492 285l70 -56c-32 -47 -86 -83 -155 -83c-114 0 -191 82 -191 192c0 105 79 190 191 190c69 0 123 -37 155 -84l-70 -54c-15 25 -44 48 -80 48c-59 0 -96 -44 -96 -101c0 -56 39 -100 96 -100c39 0 65 25 80 48zM402 -14c-194 0 -346 154 -346 349
c0 194 152 349 347 349c194 0 346 -155 346 -349c0 -195 -153 -349 -347 -349zM402 69c147 0 257 115 257 266c0 149 -111 266 -256 266c-146 0 -258 -117 -258 -266c0 -151 110 -266 257 -266z" />
    <glyph glyph-name="ordfeminine" unicode="&#xaa;" horiz-adv-x="384" 
d="M88 542l-43 62c39 29 82 44 145 44c84 0 142 -43 142 -123v-203h-93c0 4 -1 17 -2 26c-23 -23 -55 -36 -90 -36c-59 0 -110 34 -110 101c0 77 72 107 147 107c16 0 33 -1 51 -3v12c0 27 -24 41 -55 41c-39 0 -67 -12 -92 -28zM235 435v19c-7 1 -18 3 -45 3
c-39 0 -57 -17 -57 -37c0 -23 15 -34 46 -34c32 0 56 21 56 49z" />
    <glyph glyph-name="guillemotleft" unicode="&#xab;" horiz-adv-x="577" 
d="M378 44l-104 197l104 197h142l-102 -197l102 -197h-142zM157 44l-104 197l104 197h142l-102 -197l102 -197h-142z" />
    <glyph glyph-name="logicalnot" unicode="&#xac;" horiz-adv-x="545" 
d="M73 261v115h399v-255h-118v140h-281z" />
    <glyph glyph-name="uni00AD" unicode="&#xad;" horiz-adv-x="445" 
d="M64 211v137h317v-137h-317z" />
    <glyph glyph-name="registered" unicode="&#xae;" horiz-adv-x="806" 
d="M268 165v347h146c95 0 131 -62 131 -106c0 -39 -21 -78 -60 -98l83 -143h-100l-73 128h-38v-128h-89zM357 364h54c33 0 44 15 44 36c0 25 -15 37 -44 37h-54v-73zM402 -14c-194 0 -346 154 -346 349c0 194 152 349 347 349c194 0 346 -155 346 -349
c0 -195 -153 -349 -347 -349zM402 69c147 0 257 115 257 266c0 149 -111 266 -256 266c-146 0 -258 -117 -258 -266c0 -151 110 -266 257 -266z" />
    <glyph glyph-name="macron" unicode="&#xaf;" horiz-adv-x="393" 
d="M60 552v102h273v-102h-273z" />
    <glyph glyph-name="degree" unicode="&#xb0;" horiz-adv-x="359" 
d="M34 524c0 84 65 143 145 143c81 0 146 -59 146 -142s-65 -142 -146 -142c-80 0 -145 60 -145 141zM179 467c33 0 56 25 56 58c0 32 -23 57 -56 57s-55 -25 -55 -58c0 -32 22 -57 55 -57z" />
    <glyph glyph-name="plusminus" unicode="&#xb1;" horiz-adv-x="545" 
d="M73 0v115h399v-115h-399zM73 261v115h140v142h118v-142h141v-115h-141v-117h-118v117h-140z" />
    <glyph glyph-name="twosuperior" unicode="&#xb2;" 
d="M44 294v54c0 98 162 134 162 183c0 19 -14 27 -35 27c-27 0 -60 -13 -88 -32l-46 72c41 28 88 48 144 48c83 0 135 -39 135 -106c0 -93 -91 -109 -146 -159h148v-87h-274z" />
    <glyph glyph-name="threesuperior" unicode="&#xb3;" 
d="M22 327l49 75c27 -19 58 -31 90 -31c28 0 49 11 49 35c0 29 -27 36 -55 36c-16 0 -35 -3 -50 -7l-21 43l109 75h-138v84h247v-76l-74 -59c64 -11 88 -52 88 -104c0 -73 -71 -114 -154 -114c-53 0 -101 16 -140 43z" />
    <glyph glyph-name="acute" unicode="&#xb4;" horiz-adv-x="471" 
d="M164 540l48 142h142l-84 -142h-106z" />
    <glyph glyph-name="mu" unicode="&#xb5;" horiz-adv-x="562" 
d="M54 -200v669h143v-269c0 -56 28 -87 77 -87c60 0 92 45 92 101v255h144v-469h-138c-3 15 -3 30 -4 45c-21 -31 -61 -53 -109 -53c-21 0 -39 4 -62 16v-208h-143z" />
    <glyph glyph-name="paragraph" unicode="&#xb6;" horiz-adv-x="568" 
d="M364 -122v789h137v-789h-137zM306 296h-36c-131 0 -239 42 -239 185c0 142 110 186 239 186h36v-371zM169 -122v372c31 -9 70 -11 101 -11h36v-361h-137z" />
    <glyph glyph-name="periodcentered" unicode="&#xb7;" horiz-adv-x="285" 
d="M61 240v159h163v-159h-163z" />
    <glyph glyph-name="cedilla" unicode="&#xb8;" horiz-adv-x="572" 
d="M95 -206l14 71c24 -8 47 -13 70 -13c28 0 56 7 56 30c0 20 -24 27 -52 27c-24 0 -46 -4 -66 -12l13 68c27 7 51 12 86 12c65 0 117 -32 117 -93c0 -72 -67 -106 -134 -106c-51 0 -87 9 -104 16z" />
    <glyph glyph-name="onesuperior" unicode="&#xb9;" 
d="M165 294v234l-72 -36l-40 79l124 66h97v-343h-109z" />
    <glyph glyph-name="ordmasculine" unicode="&#xba;" horiz-adv-x="423" 
d="M42 480c0 95 70 168 170 168c99 0 168 -73 168 -168c0 -96 -69 -167 -168 -167c-100 0 -170 71 -170 167zM212 404c43 0 67 33 67 76s-24 77 -67 77c-44 0 -68 -34 -68 -77s24 -76 68 -76z" />
    <glyph glyph-name="guillemotright" unicode="&#xbb;" horiz-adv-x="573" 
d="M57 44l102 197l-102 197h142l104 -197l-104 -197h-142zM278 44l102 197l-102 197h142l104 -197l-104 -197h-142z" />
    <glyph glyph-name="questiondown" unicode="&#xbf;" horiz-adv-x="526" 
d="M407 -23l88 -93c-37 -40 -109 -100 -230 -100c-124 0 -217 69 -217 185c0 77 34 115 82 152c49 38 85 59 85 118v13h137v-13c0 -72 -23 -126 -79 -167c-39 -29 -80 -54 -80 -94c0 -41 39 -62 82 -62c60 0 108 37 132 61zM205 315v154h157v-154h-157z" />
    <glyph glyph-name="Agrave" unicode="&#xc0;" horiz-adv-x="675" 
d="M7 0l249 667h167l244 -667h-165l-51 153h-235l-51 -153h-158zM251 270h164l-81 252zM295 717l-119 156h163l73 -156h-117z" />
    <glyph glyph-name="Aacute" unicode="&#xc1;" horiz-adv-x="675" 
d="M7 0l249 667h167l244 -667h-165l-51 153h-235l-51 -153h-158zM251 270h164l-81 252zM273 717l73 156h163l-119 -156h-117z" />
    <glyph glyph-name="Acircumflex" unicode="&#xc2;" horiz-adv-x="675" 
d="M7 0l249 667h167l244 -667h-165l-51 153h-235l-51 -153h-158zM251 270h164l-81 252zM164 717l113 156h120l113 -156h-120l-53 75l-54 -75h-119z" />
    <glyph glyph-name="Atilde" unicode="&#xc3;" horiz-adv-x="675" 
d="M7 0l249 667h167l244 -667h-165l-51 153h-235l-51 -153h-158zM251 270h164l-81 252zM185 724l-54 82c28 31 74 62 129 62c53 0 85 -42 137 -42c41 0 70 18 93 37l54 -82c-29 -31 -74 -63 -129 -63c-53 0 -85 43 -137 43c-43 0 -70 -18 -93 -37z" />
    <glyph glyph-name="Adieresis" unicode="&#xc4;" horiz-adv-x="675" 
d="M7 0l249 667h167l244 -667h-165l-51 153h-235l-51 -153h-158zM251 270h164l-81 252zM380 734v122h132v-122h-132zM161 734v122h132v-122h-132z" />
    <glyph glyph-name="Aring" unicode="&#xc5;" horiz-adv-x="675" 
d="M7 0l245 658c-31 23 -49 60 -49 103c0 76 60 133 136 133s137 -57 137 -133c0 -43 -19 -80 -50 -103l241 -658h-165l-51 153h-235l-51 -153h-158zM251 270h164l-81 252zM340 713c27 0 46 21 46 48c0 28 -19 48 -47 48c-27 0 -46 -20 -46 -48c0 -27 19 -48 47 -48z" />
    <glyph glyph-name="AE" unicode="&#xc6;" horiz-adv-x="959" 
d="M0 0l365 667h535v-132h-292v-130h225v-128h-225v-144h314v-133h-459v155h-222l-80 -155h-161zM301 271h162v272h-22z" />
    <glyph glyph-name="Ccedilla" unicode="&#xc7;" horiz-adv-x="681" 
d="M564 217l103 -94c-56 -77 -162 -140 -285 -140c-203 0 -343 146 -343 348c0 197 140 353 345 353c124 0 217 -47 278 -132l-103 -99c-40 56 -93 93 -169 93c-120 0 -194 -95 -194 -211c0 -117 75 -208 191 -208c96 0 136 44 177 90zM254 -216l14 72c24 -8 48 -12 71 -12
c27 0 55 4 55 27c0 19 -24 25 -51 25c-23 0 -47 -3 -67 -10l13 68c27 8 52 11 87 11c65 0 119 -31 119 -91c0 -73 -70 -105 -136 -105c-51 0 -88 8 -105 15z" />
    <glyph glyph-name="Egrave" unicode="&#xc8;" horiz-adv-x="580" 
d="M65 0v667h456v-132h-305v-130h237v-128h-237v-144h327v-133h-478zM267 717l-119 156h163l73 -156h-117z" />
    <glyph glyph-name="Eacute" unicode="&#xc9;" horiz-adv-x="580" 
d="M65 0v667h456v-132h-305v-130h237v-128h-237v-144h327v-133h-478zM233 717l73 156h163l-119 -156h-117z" />
    <glyph glyph-name="Ecircumflex" unicode="&#xca;" horiz-adv-x="580" 
d="M65 0v667h456v-132h-305v-130h237v-128h-237v-144h327v-133h-478zM123 717l113 156h120l113 -156h-120l-53 75l-54 -75h-119z" />
    <glyph glyph-name="Edieresis" unicode="&#xcb;" horiz-adv-x="580" 
d="M65 0v667h456v-132h-305v-130h237v-128h-237v-144h327v-133h-478zM338 734v122h132v-122h-132zM119 734v122h132v-122h-132z" />
    <glyph glyph-name="Igrave" unicode="&#xcc;" horiz-adv-x="281" 
d="M65 0v667h151v-667h-151zM96 717l-119 156h163l73 -156h-117z" />
    <glyph glyph-name="Iacute" unicode="&#xcd;" horiz-adv-x="281" 
d="M65 0v667h151v-667h-151zM71 717l73 156h163l-119 -156h-117z" />
    <glyph glyph-name="Icircumflex" unicode="&#xce;" horiz-adv-x="281" 
d="M65 0v667h151v-667h-151zM-31 717l113 156h120l113 -156h-120l-53 75l-54 -75h-119z" />
    <glyph glyph-name="Idieresis" unicode="&#xcf;" horiz-adv-x="281" 
d="M65 0v667h151v-667h-151zM185 734v122h132v-122h-132zM-34 734v122h132v-122h-132z" />
    <glyph glyph-name="Eth" unicode="&#xd0;" horiz-adv-x="717" 
d="M65 0v288h-64v96h64v283h252c206 0 356 -104 356 -337c0 -220 -152 -330 -357 -330h-251zM216 134h93c133 0 208 74 208 197s-63 203 -208 203h-93v-150h132v-96h-132v-154z" />
    <glyph glyph-name="Ntilde" unicode="&#xd1;" horiz-adv-x="712" 
d="M65 0v667h144l289 -433v433h149v-667h-137l-296 441v-441h-149zM196 724l-54 82c28 31 74 62 129 62c53 0 85 -42 137 -42c41 0 70 18 93 37l54 -82c-29 -31 -74 -63 -129 -63c-53 0 -85 43 -137 43c-43 0 -70 -18 -93 -37z" />
    <glyph glyph-name="Ograve" unicode="&#xd2;" horiz-adv-x="772" 
d="M386 -17c-197 0 -347 153 -347 351c0 199 150 351 347 351s347 -152 347 -351c0 -198 -150 -351 -347 -351zM386 125c117 0 189 97 189 211c0 115 -72 209 -189 209c-118 0 -190 -94 -190 -209c0 -114 72 -211 190 -211zM344 717l-119 156h163l73 -156h-117z" />
    <glyph glyph-name="Oacute" unicode="&#xd3;" horiz-adv-x="772" 
d="M386 -17c-197 0 -347 153 -347 351c0 199 150 351 347 351s347 -152 347 -351c0 -198 -150 -351 -347 -351zM386 125c117 0 189 97 189 211c0 115 -72 209 -189 209c-118 0 -190 -94 -190 -209c0 -114 72 -211 190 -211zM310 717l73 156h163l-119 -156h-117z" />
    <glyph glyph-name="Ocircumflex" unicode="&#xd4;" horiz-adv-x="772" 
d="M386 -17c-197 0 -347 153 -347 351c0 199 150 351 347 351s347 -152 347 -351c0 -198 -150 -351 -347 -351zM386 125c117 0 189 97 189 211c0 115 -72 209 -189 209c-118 0 -190 -94 -190 -209c0 -114 72 -211 190 -211zM213 717l113 156h120l113 -156h-120l-53 75
l-54 -75h-119z" />
    <glyph glyph-name="Otilde" unicode="&#xd5;" horiz-adv-x="772" 
d="M386 -17c-197 0 -347 153 -347 351c0 199 150 351 347 351s347 -152 347 -351c0 -198 -150 -351 -347 -351zM386 125c117 0 189 97 189 211c0 115 -72 209 -189 209c-118 0 -190 -94 -190 -209c0 -114 72 -211 190 -211zM234 724l-54 82c28 31 74 62 129 62
c53 0 85 -42 137 -42c41 0 70 18 93 37l54 -82c-29 -31 -74 -63 -129 -63c-53 0 -85 43 -137 43c-43 0 -70 -18 -93 -37z" />
    <glyph glyph-name="Odieresis" unicode="&#xd6;" horiz-adv-x="772" 
d="M386 -17c-197 0 -347 153 -347 351c0 199 150 351 347 351s347 -152 347 -351c0 -198 -150 -351 -347 -351zM386 125c117 0 189 97 189 211c0 115 -72 209 -189 209c-118 0 -190 -94 -190 -209c0 -114 72 -211 190 -211zM429 734v122h132v-122h-132zM210 734v122h132
v-122h-132z" />
    <glyph glyph-name="multiply" unicode="&#xd7;" horiz-adv-x="545" 
d="M75 201l116 117l-115 116l81 81l116 -116l117 117l80 -81l-116 -117l115 -115l-81 -82l-116 116l-116 -117z" />
    <glyph glyph-name="Oslash" unicode="&#xd8;" horiz-adv-x="772" 
d="M89 -11l58 84c-68 64 -108 155 -108 259c0 199 150 351 347 351c57 0 110 -12 158 -37l57 83l84 -54l-59 -86c67 -64 107 -153 107 -257c0 -198 -150 -351 -347 -351c-57 0 -110 12 -157 35l-56 -81zM235 200l227 328c-23 10 -49 15 -76 15c-118 0 -190 -94 -190 -209
c0 -52 13 -97 39 -134zM538 463l-225 -325c21 -10 45 -15 73 -15c117 0 189 97 189 211c0 49 -12 92 -37 129z" />
    <glyph glyph-name="Ugrave" unicode="&#xd9;" horiz-adv-x="680" 
d="M60 253v414h152v-395c0 -87 32 -145 128 -145c94 0 127 58 127 145v395h153v-414c0 -160 -108 -271 -280 -271s-280 110 -280 271zM309 717l-119 156h163l73 -156h-117z" />
    <glyph glyph-name="Uacute" unicode="&#xda;" horiz-adv-x="680" 
d="M60 253v414h152v-395c0 -87 32 -145 128 -145c94 0 127 58 127 145v395h153v-414c0 -160 -108 -271 -280 -271s-280 110 -280 271zM268 717l73 156h163l-119 -156h-117z" />
    <glyph glyph-name="Ucircumflex" unicode="&#xdb;" horiz-adv-x="680" 
d="M60 253v414h152v-395c0 -87 32 -145 128 -145c94 0 127 58 127 145v395h153v-414c0 -160 -108 -271 -280 -271s-280 110 -280 271zM167 717l113 156h120l113 -156h-120l-53 75l-54 -75h-119z" />
    <glyph glyph-name="Udieresis" unicode="&#xdc;" horiz-adv-x="680" 
d="M60 253v414h152v-395c0 -87 32 -145 128 -145c94 0 127 58 127 145v395h153v-414c0 -160 -108 -271 -280 -271s-280 110 -280 271zM383 734v122h132v-122h-132zM164 734v122h132v-122h-132z" />
    <glyph glyph-name="Yacute" unicode="&#xdd;" horiz-adv-x="636" 
d="M241 0v279l-234 388h171l145 -252l141 252h164l-234 -387v-280h-153zM262 717l73 156h163l-119 -156h-117z" />
    <glyph glyph-name="Thorn" unicode="&#xde;" horiz-adv-x="578" 
d="M65 0v667h147v-109h96c164 0 234 -103 234 -214c0 -144 -107 -218 -227 -218h-103v-126h-147zM212 249h88c56 0 91 36 91 91c0 57 -36 95 -92 95h-87v-186z" />
    <glyph glyph-name="germandbls" unicode="&#xdf;" horiz-adv-x="618" 
d="M51 0v467c0 156 101 217 243 217c106 0 206 -53 206 -161c0 -98 -94 -143 -94 -184c0 -23 25 -34 64 -46c67 -22 120 -55 120 -152c0 -99 -84 -155 -190 -155c-64 0 -124 15 -169 51l73 97c25 -21 57 -34 85 -34c39 0 64 11 64 40c0 31 -25 45 -85 65
c-52 18 -102 44 -102 125c0 82 94 129 94 177c0 39 -28 62 -73 62c-67 0 -92 -46 -92 -107v-462h-144z" />
    <glyph glyph-name="agrave" unicode="&#xe0;" horiz-adv-x="515" 
d="M329 0l-4 44c-32 -37 -82 -58 -142 -58c-66 0 -158 33 -158 145c0 110 93 170 216 170c33 0 73 -1 84 -4v10c0 48 -43 67 -90 67c-64 0 -104 -19 -133 -39l-59 88c40 29 101 62 212 62c143 0 209 -83 209 -212v-273h-135zM325 169v38c-7 1 -27 4 -51 4
c-80 0 -110 -24 -110 -65c0 -39 23 -58 70 -58c45 0 91 29 91 81zM217 540l-85 142h143l48 -142h-106z" />
    <glyph glyph-name="aacute" unicode="&#xe1;" horiz-adv-x="515" 
d="M329 0l-4 44c-32 -37 -82 -58 -142 -58c-66 0 -158 33 -158 145c0 110 93 170 216 170c33 0 73 -1 84 -4v10c0 48 -43 67 -90 67c-64 0 -104 -19 -133 -39l-59 88c40 29 101 62 212 62c143 0 209 -83 209 -212v-273h-135zM325 169v38c-7 1 -27 4 -51 4
c-80 0 -110 -24 -110 -65c0 -39 23 -58 70 -58c45 0 91 29 91 81zM192 540l48 142h142l-84 -142h-106z" />
    <glyph glyph-name="acircumflex" unicode="&#xe2;" horiz-adv-x="515" 
d="M329 0l-4 44c-32 -37 -82 -58 -142 -58c-66 0 -158 33 -158 145c0 110 93 170 216 170c33 0 73 -1 84 -4v10c0 48 -43 67 -90 67c-64 0 -104 -19 -133 -39l-59 88c40 29 101 62 212 62c143 0 209 -83 209 -212v-273h-135zM325 169v38c-7 1 -27 4 -51 4
c-80 0 -110 -24 -110 -65c0 -39 23 -58 70 -58c45 0 91 29 91 81zM87 540l106 142h121l106 -142h-119l-48 66l-47 -66h-119z" />
    <glyph glyph-name="atilde" unicode="&#xe3;" horiz-adv-x="515" 
d="M329 0l-4 44c-32 -37 -82 -58 -142 -58c-66 0 -158 33 -158 145c0 110 93 170 216 170c33 0 73 -1 84 -4v10c0 48 -43 67 -90 67c-64 0 -104 -19 -133 -39l-59 88c40 29 101 62 212 62c143 0 209 -83 209 -212v-273h-135zM325 169v38c-7 1 -27 4 -51 4
c-80 0 -110 -24 -110 -65c0 -39 23 -58 70 -58c45 0 91 29 91 81zM103 541l-51 79c27 29 72 60 124 60s82 -42 133 -42c40 0 67 20 90 37l51 -79c-27 -29 -72 -61 -124 -61c-53 0 -81 42 -133 42c-40 0 -67 -19 -90 -36z" />
    <glyph glyph-name="adieresis" unicode="&#xe4;" horiz-adv-x="515" 
d="M329 0l-4 44c-32 -37 -82 -58 -142 -58c-66 0 -158 33 -158 145c0 110 93 170 216 170c33 0 73 -1 84 -4v10c0 48 -43 67 -90 67c-64 0 -104 -19 -133 -39l-59 88c40 29 101 62 212 62c143 0 209 -83 209 -212v-273h-135zM325 169v38c-7 1 -27 4 -51 4
c-80 0 -110 -24 -110 -65c0 -39 23 -58 70 -58c45 0 91 29 91 81zM293 554v114h123v-114h-123zM100 554v114h123v-114h-123z" />
    <glyph glyph-name="aring" unicode="&#xe5;" horiz-adv-x="515" 
d="M329 0l-4 44c-32 -37 -82 -58 -142 -58c-66 0 -158 33 -158 145c0 110 93 170 216 170c33 0 73 -1 84 -4v10c0 48 -43 67 -90 67c-64 0 -104 -19 -133 -39l-59 88c40 29 101 62 212 62c143 0 209 -83 209 -212v-273h-135zM325 169v38c-7 1 -27 4 -51 4
c-80 0 -110 -24 -110 -65c0 -39 23 -58 70 -58c45 0 91 29 91 81zM137 645c0 68 55 116 120 116c67 0 121 -48 121 -116c0 -66 -55 -116 -120 -116c-67 0 -121 50 -121 116zM257 604c23 0 41 18 41 41s-17 41 -40 41s-41 -18 -41 -41s17 -41 40 -41z" />
    <glyph glyph-name="ae" unicode="&#xe6;" horiz-adv-x="822" 
d="M102 335l-59 88c40 29 100 62 205 62c73 0 123 -21 158 -60c36 39 90 60 159 60c149 0 227 -112 227 -269v-24h-334c0 -50 49 -95 124 -95s121 29 142 45c19 -31 39 -60 58 -91c-22 -14 -83 -67 -205 -67c-84 0 -145 27 -188 74c-52 -53 -106 -73 -186 -73
c-91 0 -178 40 -178 148c0 110 93 164 216 164c32 0 71 -3 84 -4v14c0 48 -42 67 -94 67c-59 0 -100 -19 -129 -39zM325 169v34c-10 2 -30 3 -60 3c-65 0 -103 -19 -103 -60c0 -37 25 -58 72 -58c51 0 91 29 91 81zM458 284h199c0 44 -31 89 -97 89c-67 0 -102 -50 -102 -89
z" />
    <glyph glyph-name="ccedilla" unicode="&#xe7;" horiz-adv-x="487" 
d="M390 156l84 -94c-39 -43 -102 -78 -189 -78c-151 0 -253 104 -253 251c0 139 106 250 253 250c85 0 147 -30 190 -77l-87 -94c-21 24 -49 46 -100 46c-69 0 -111 -59 -111 -125c0 -61 42 -125 111 -125c49 0 82 23 102 46zM159 -215l14 71c24 -8 47 -13 70 -13
c28 0 56 7 56 30c0 20 -24 27 -52 27c-24 0 -46 -4 -66 -12l13 68c27 7 51 12 86 12c65 0 117 -32 117 -93c0 -72 -67 -106 -134 -106c-51 0 -87 9 -104 16z" />
    <glyph glyph-name="egrave" unicode="&#xe8;" horiz-adv-x="535" 
d="M437 142l59 -91c-22 -14 -85 -67 -206 -67c-161 0 -258 103 -258 252c0 132 90 249 242 249c151 0 232 -112 232 -269v-24h-334c1 -51 47 -95 123 -95c75 0 121 29 142 45zM172 284h198c0 39 -31 89 -97 89c-67 0 -101 -50 -101 -89zM233 540l-85 142h143l48 -142h-106z
" />
    <glyph glyph-name="eacute" unicode="&#xe9;" horiz-adv-x="535" 
d="M437 142l59 -91c-22 -14 -85 -67 -206 -67c-161 0 -258 103 -258 252c0 132 90 249 242 249c151 0 232 -112 232 -269v-24h-334c1 -51 47 -95 123 -95c75 0 121 29 142 45zM172 284h198c0 39 -31 89 -97 89c-67 0 -101 -50 -101 -89zM217 540l48 142h142l-84 -142h-106z
" />
    <glyph glyph-name="ecircumflex" unicode="&#xea;" horiz-adv-x="535" 
d="M437 142l59 -91c-22 -14 -85 -67 -206 -67c-161 0 -258 103 -258 252c0 132 90 249 242 249c151 0 232 -112 232 -269v-24h-334c1 -51 47 -95 123 -95c75 0 121 29 142 45zM172 284h198c0 39 -31 89 -97 89c-67 0 -101 -50 -101 -89zM103 540l106 142h121l106 -142h-119
l-48 66l-47 -66h-119z" />
    <glyph glyph-name="edieresis" unicode="&#xeb;" horiz-adv-x="535" 
d="M437 142l59 -91c-22 -14 -85 -67 -206 -67c-161 0 -258 103 -258 252c0 132 90 249 242 249c151 0 232 -112 232 -269v-24h-334c1 -51 47 -95 123 -95c75 0 121 29 142 45zM172 284h198c0 39 -31 89 -97 89c-67 0 -101 -50 -101 -89zM304 554v114h123v-114h-123zM111 554
v114h123v-114h-123z" />
    <glyph glyph-name="igrave" unicode="&#xec;" horiz-adv-x="258" 
d="M80 540l-85 142h143l48 -142h-106zM57 0v469h144v-469h-144z" />
    <glyph glyph-name="iacute" unicode="&#xed;" horiz-adv-x="258" 
d="M73 540l48 142h142l-84 -142h-106zM57 0v469h144v-469h-144z" />
    <glyph glyph-name="icircumflex" unicode="&#xee;" horiz-adv-x="258" 
d="M57 0v469h144v-469h-144zM-36 540l106 142h121l106 -142h-119l-48 66l-47 -66h-119z" />
    <glyph glyph-name="idieresis" unicode="&#xef;" horiz-adv-x="258" 
d="M165 554v114h123v-114h-123zM-28 554v114h123v-114h-123zM57 0v469h144v-469h-144z" />
    <glyph glyph-name="eth" unicode="&#xf0;" horiz-adv-x="559" 
d="M144 515l37 55c-23 7 -48 10 -75 13l18 98c43 -3 83 -9 119 -18l41 60l65 -42l-30 -45c152 -72 207 -211 207 -359c0 -192 -107 -293 -257 -293c-129 0 -237 88 -237 235c0 131 104 230 234 230c40 0 73 -8 93 -15c-17 39 -47 77 -103 108l-47 -70zM380 313
c-21 12 -52 24 -88 24c-67 0 -120 -41 -120 -116c0 -64 43 -112 103 -112c65 0 111 52 111 148c0 17 -1 36 -6 56z" />
    <glyph glyph-name="ntilde" unicode="&#xf1;" horiz-adv-x="562" 
d="M54 0v469h138l4 -51c31 37 84 62 139 62c108 0 176 -65 176 -190v-290h-144v270c0 52 -27 85 -74 85c-64 0 -96 -48 -96 -103v-252h-143zM129 541l-51 79c27 29 72 60 124 60s82 -42 133 -42c40 0 67 20 90 37l51 -79c-27 -29 -72 -61 -124 -61c-53 0 -81 42 -133 42
c-40 0 -67 -19 -90 -36z" />
    <glyph glyph-name="ograve" unicode="&#xf2;" horiz-adv-x="568" 
d="M284 109c73 0 112 62 112 126s-39 125 -112 125s-113 -61 -113 -125s40 -126 113 -126zM32 235c0 139 103 250 252 250c148 0 251 -111 251 -250c0 -138 -103 -251 -251 -251c-149 0 -252 113 -252 251zM243 540l-85 142h143l48 -142h-106z" />
    <glyph glyph-name="oacute" unicode="&#xf3;" horiz-adv-x="568" 
d="M284 109c73 0 112 62 112 126s-39 125 -112 125s-113 -61 -113 -125s40 -126 113 -126zM32 235c0 139 103 250 252 250c148 0 251 -111 251 -250c0 -138 -103 -251 -251 -251c-149 0 -252 113 -252 251zM220 540l48 142h142l-84 -142h-106z" />
    <glyph glyph-name="ocircumflex" unicode="&#xf4;" horiz-adv-x="568" 
d="M284 109c73 0 112 62 112 126s-39 125 -112 125s-113 -61 -113 -125s40 -126 113 -126zM32 235c0 139 103 250 252 250c148 0 251 -111 251 -250c0 -138 -103 -251 -251 -251c-149 0 -252 113 -252 251zM118 540l106 142h121l106 -142h-119l-48 66l-47 -66h-119z" />
    <glyph glyph-name="otilde" unicode="&#xf5;" horiz-adv-x="568" 
d="M284 109c73 0 112 62 112 126s-39 125 -112 125s-113 -61 -113 -125s40 -126 113 -126zM32 235c0 139 103 250 252 250c148 0 251 -111 251 -250c0 -138 -103 -251 -251 -251c-149 0 -252 113 -252 251zM137 541l-51 79c27 29 72 60 124 60s82 -42 133 -42
c40 0 67 20 90 37l51 -79c-27 -29 -72 -61 -124 -61c-53 0 -81 42 -133 42c-40 0 -67 -19 -90 -36z" />
    <glyph glyph-name="odieresis" unicode="&#xf6;" horiz-adv-x="568" 
d="M284 109c73 0 112 62 112 126s-39 125 -112 125s-113 -61 -113 -125s40 -126 113 -126zM32 235c0 139 103 250 252 250c148 0 251 -111 251 -250c0 -138 -103 -251 -251 -251c-149 0 -252 113 -252 251zM319 554v114h123v-114h-123zM126 554v114h123v-114h-123z" />
    <glyph glyph-name="divide" unicode="&#xf7;" horiz-adv-x="545" 
d="M209 89v118h127v-118h-127zM209 431v118h127v-118h-127zM73 261v115h399v-115h-399z" />
    <glyph glyph-name="oslash" unicode="&#xf8;" horiz-adv-x="568" 
d="M64 -11l43 63c-47 47 -75 111 -75 183c0 139 103 250 252 250c39 0 75 -8 108 -23l44 63l68 -45l-44 -64c47 -47 75 -109 75 -181c0 -138 -103 -251 -251 -251c-39 0 -76 7 -109 22l-43 -62zM382 303l-134 -192c12 -3 24 -5 36 -5c75 0 115 64 115 129c0 25 -6 47 -17 68
zM186 165l133 192c-11 4 -23 6 -35 6c-75 0 -115 -64 -115 -128c0 -25 5 -50 17 -70z" />
    <glyph glyph-name="ugrave" unicode="&#xf9;" horiz-adv-x="561" 
d="M51 178v291h144v-270c0 -53 26 -86 77 -86c59 0 92 49 92 103v253h143v-469h-138l-4 50c-31 -36 -84 -62 -139 -62c-108 0 -175 65 -175 190zM243 540l-85 142h143l48 -142h-106z" />
    <glyph glyph-name="uacute" unicode="&#xfa;" horiz-adv-x="561" 
d="M51 178v291h144v-270c0 -53 26 -86 77 -86c59 0 92 49 92 103v253h143v-469h-138l-4 50c-31 -36 -84 -62 -139 -62c-108 0 -175 65 -175 190zM219 540l48 142h142l-84 -142h-106z" />
    <glyph glyph-name="ucircumflex" unicode="&#xfb;" horiz-adv-x="561" 
d="M51 178v291h144v-270c0 -53 26 -86 77 -86c59 0 92 49 92 103v253h143v-469h-138l-4 50c-31 -36 -84 -62 -139 -62c-108 0 -175 65 -175 190zM114 540l106 142h121l106 -142h-119l-48 66l-47 -66h-119z" />
    <glyph glyph-name="udieresis" unicode="&#xfc;" horiz-adv-x="561" 
d="M51 178v291h144v-270c0 -53 26 -86 77 -86c59 0 92 49 92 103v253h143v-469h-138l-4 50c-31 -36 -84 -62 -139 -62c-108 0 -175 65 -175 190zM317 554v114h123v-114h-123zM124 554v114h123v-114h-123z" />
    <glyph glyph-name="yacute" unicode="&#xfd;" horiz-adv-x="550" 
d="M21 -173l58 99c16 -12 35 -23 58 -23c31 0 49 17 68 64l14 38l-214 464h164l117 -296l106 296h153l-192 -466c-43 -104 -74 -215 -206 -215c-51 0 -91 14 -126 39zM225 540l48 142h142l-84 -142h-106z" />
    <glyph glyph-name="thorn" unicode="&#xfe;" horiz-adv-x="570" 
d="M53 -201v868h143v-246c31 39 85 57 134 57c137 0 207 -115 207 -238c0 -176 -127 -255 -245 -255c-45 0 -72 10 -96 18v-204h-143zM196 249v-125c19 -13 46 -19 83 -19c71 0 114 51 114 132c0 62 -27 118 -98 118c-64 0 -99 -53 -99 -106z" />
    <glyph glyph-name="ydieresis" unicode="&#xff;" horiz-adv-x="550" 
d="M21 -173l58 99c16 -12 35 -23 58 -23c31 0 49 17 68 64l14 38l-214 464h164l117 -296l106 296h153l-192 -466c-43 -104 -74 -215 -206 -215c-51 0 -91 14 -126 39zM312 554v114h123v-114h-123zM119 554v114h123v-114h-123z" />
    <glyph glyph-name="Amacron" unicode="&#x100;" horiz-adv-x="675" 
d="M7 0l249 667h167l244 -667h-165l-51 153h-235l-51 -153h-158zM251 270h164l-81 252zM178 742v106h317v-106h-317z" />
    <glyph glyph-name="amacron" unicode="&#x101;" horiz-adv-x="515" 
d="M329 0l-4 44c-32 -37 -82 -58 -142 -58c-66 0 -158 33 -158 145c0 110 93 170 216 170c33 0 73 -1 84 -4v10c0 48 -43 67 -90 67c-64 0 -104 -19 -133 -39l-59 88c40 29 101 62 212 62c143 0 209 -83 209 -212v-273h-135zM325 169v38c-7 1 -27 4 -51 4
c-80 0 -110 -24 -110 -65c0 -39 23 -58 70 -58c45 0 91 29 91 81zM123 552v102h273v-102h-273z" />
    <glyph glyph-name="Abreve" unicode="&#x102;" horiz-adv-x="675" 
d="M7 0l249 667h167l244 -667h-165l-51 153h-235l-51 -153h-158zM251 270h164l-81 252zM174 863h105c1 -31 21 -57 57 -57s56 26 56 57h106c0 -87 -62 -149 -162 -149s-162 62 -162 149z" />
    <glyph glyph-name="abreve" unicode="&#x103;" horiz-adv-x="515" 
d="M329 0l-4 44c-32 -37 -82 -58 -142 -58c-66 0 -158 33 -158 145c0 110 93 170 216 170c33 0 73 -1 84 -4v10c0 48 -43 67 -90 67c-64 0 -104 -19 -133 -39l-59 88c40 29 101 62 212 62c143 0 209 -83 209 -212v-273h-135zM325 169v38c-7 1 -27 4 -51 4
c-80 0 -110 -24 -110 -65c0 -39 23 -58 70 -58c45 0 91 29 91 81zM95 682h104c1 -29 15 -56 52 -56c39 0 52 27 52 56h104c0 -83 -62 -142 -156 -142s-156 59 -156 142z" />
    <glyph glyph-name="Aogonek" unicode="&#x104;" horiz-adv-x="675" 
d="M7 0l249 667h167l244 -667c-19 -22 -47 -56 -47 -80c0 -15 8 -22 25 -22c19 0 35 6 50 17l31 -80c-35 -23 -76 -36 -115 -36c-63 0 -102 27 -102 83c0 43 30 83 63 118h-70l-51 153h-235l-51 -153h-158zM251 270h164l-81 252z" />
    <glyph glyph-name="aogonek" unicode="&#x105;" horiz-adv-x="515" 
d="M329 0l-4 44c-32 -37 -82 -58 -142 -58c-66 0 -158 33 -158 145c0 110 93 170 216 170c33 0 73 -1 84 -4v10c0 48 -43 67 -90 67c-64 0 -104 -19 -133 -39l-59 88c40 29 101 62 212 62c143 0 209 -83 209 -212v-273c-24 -21 -54 -56 -54 -78c0 -14 8 -21 25 -21
c19 0 36 6 52 17l30 -78c-33 -23 -76 -35 -113 -35c-60 0 -99 27 -99 80c0 43 30 82 61 115h-37zM325 169v38c-7 1 -27 4 -51 4c-80 0 -110 -24 -110 -65c0 -39 23 -58 70 -58c45 0 91 29 91 81z" />
    <glyph glyph-name="Cacute" unicode="&#x106;" horiz-adv-x="681" 
d="M564 217l103 -94c-56 -77 -162 -140 -285 -140c-203 0 -343 146 -343 348c0 197 140 353 345 353c124 0 217 -47 278 -132l-103 -99c-40 56 -93 93 -169 93c-120 0 -194 -95 -194 -211c0 -117 75 -208 191 -208c96 0 136 44 177 90zM308 717l73 156h163l-119 -156h-117z
" />
    <glyph glyph-name="cacute" unicode="&#x107;" horiz-adv-x="487" 
d="M390 156l84 -94c-39 -43 -102 -78 -189 -78c-151 0 -253 104 -253 251c0 139 106 250 253 250c85 0 147 -30 190 -77l-87 -94c-21 24 -49 46 -100 46c-69 0 -111 -59 -111 -125c0 -61 42 -125 111 -125c49 0 82 23 102 46zM219 540l48 142h142l-84 -142h-106z" />
    <glyph glyph-name="Ccircumflex" unicode="&#x108;" horiz-adv-x="681" 
d="M564 217l103 -94c-56 -77 -162 -140 -285 -140c-203 0 -343 146 -343 348c0 197 140 353 345 353c124 0 217 -47 278 -132l-103 -99c-40 56 -93 93 -169 93c-120 0 -194 -95 -194 -211c0 -117 75 -208 191 -208c96 0 136 44 177 90zM205 717l113 156h120l113 -156h-120
l-53 75l-54 -75h-119z" />
    <glyph glyph-name="ccircumflex" unicode="&#x109;" horiz-adv-x="487" 
d="M390 156l84 -94c-39 -43 -102 -78 -189 -78c-151 0 -253 104 -253 251c0 139 106 250 253 250c85 0 147 -30 190 -77l-87 -94c-21 24 -49 46 -100 46c-69 0 -111 -59 -111 -125c0 -61 42 -125 111 -125c49 0 82 23 102 46zM114 540l106 142h121l106 -142h-119l-48 66
l-47 -66h-119z" />
    <glyph glyph-name="Cdotaccent" unicode="&#x10a;" horiz-adv-x="681" 
d="M564 217l103 -94c-56 -77 -162 -140 -285 -140c-203 0 -343 146 -343 348c0 197 140 353 345 353c124 0 217 -47 278 -132l-103 -99c-40 56 -93 93 -169 93c-120 0 -194 -95 -194 -211c0 -117 75 -208 191 -208c96 0 136 44 177 90zM311 730v130h139v-130h-139z" />
    <glyph glyph-name="cdotaccent" unicode="&#x10b;" horiz-adv-x="487" 
d="M390 156l84 -94c-39 -43 -102 -78 -189 -78c-151 0 -253 104 -253 251c0 139 106 250 253 250c85 0 147 -30 190 -77l-87 -94c-21 24 -49 46 -100 46c-69 0 -111 -59 -111 -125c0 -61 42 -125 111 -125c49 0 82 23 102 46zM216 550v122h131v-122h-131z" />
    <glyph glyph-name="Ccaron" unicode="&#x10c;" horiz-adv-x="681" 
d="M564 217l103 -94c-56 -77 -162 -140 -285 -140c-203 0 -343 146 -343 348c0 197 140 353 345 353c124 0 217 -47 278 -132l-103 -99c-40 56 -93 93 -169 93c-120 0 -194 -95 -194 -211c0 -117 75 -208 191 -208c96 0 136 44 177 90zM328 717l-113 156h120l53 -75l54 75
h119l-113 -156h-120z" />
    <glyph glyph-name="ccaron" unicode="&#x10d;" horiz-adv-x="487" 
d="M390 156l84 -94c-39 -43 -102 -78 -189 -78c-151 0 -253 104 -253 251c0 139 106 250 253 250c85 0 147 -30 190 -77l-87 -94c-21 24 -49 46 -100 46c-69 0 -111 -59 -111 -125c0 -61 42 -125 111 -125c49 0 82 23 102 46zM215 540l-105 142h118l49 -67l47 67h119
l-106 -142h-122z" />
    <glyph glyph-name="Dcaron" unicode="&#x10e;" horiz-adv-x="717" 
d="M65 0v667h252c206 0 356 -104 356 -337c0 -220 -152 -330 -357 -330h-251zM216 134h92c133 0 208 74 208 197s-65 203 -208 203h-92v-400zM256 717l-113 156h120l53 -75l54 75h119l-113 -156h-120z" />
    <glyph glyph-name="dcaron" unicode="&#x10f;" horiz-adv-x="631" 
d="M378 0l-6 47c-29 -35 -76 -61 -135 -61c-115 0 -205 94 -205 242c0 169 133 251 245 251c45 0 65 -7 92 -16v204h143v-667h-134zM369 212v128c-20 12 -41 17 -76 17c-73 0 -116 -55 -116 -132c0 -68 33 -116 100 -116c65 0 92 49 92 103zM569 498v169h123l-37 -169h-86z
" />
    <glyph glyph-name="Dcroat" unicode="&#x110;" horiz-adv-x="717" 
d="M65 0v288h-64v96h64v283h252c206 0 356 -104 356 -337c0 -220 -152 -330 -357 -330h-251zM216 134h93c133 0 208 74 208 197s-63 203 -208 203h-93v-150h132v-96h-132v-154z" />
    <glyph glyph-name="dcroat" unicode="&#x111;" horiz-adv-x="563" 
d="M376 0l-4 47c-29 -35 -76 -61 -135 -61c-115 0 -205 88 -205 236c0 165 132 241 245 241c45 0 65 -7 92 -16v73h-161v83h161v64h143v-64h56v-83h-56v-520h-136zM369 212v112c-20 11 -44 17 -76 17c-75 0 -116 -49 -116 -122c0 -68 33 -110 100 -110c65 0 92 49 92 103z
" />
    <glyph glyph-name="Emacron" unicode="&#x112;" horiz-adv-x="580" 
d="M65 0v667h456v-132h-305v-130h237v-128h-237v-144h327v-133h-478zM143 742v106h317v-106h-317z" />
    <glyph glyph-name="emacron" unicode="&#x113;" horiz-adv-x="535" 
d="M437 142l59 -91c-22 -14 -85 -67 -206 -67c-161 0 -258 103 -258 252c0 132 90 249 242 249c151 0 232 -112 232 -269v-24h-334c1 -51 47 -95 123 -95c75 0 121 29 142 45zM172 284h198c0 39 -31 89 -97 89c-67 0 -101 -50 -101 -89zM143 552v102h273v-102h-273z" />
    <glyph glyph-name="Ebreve" unicode="&#x114;" horiz-adv-x="580" 
d="M65 0v667h456v-132h-305v-130h237v-128h-237v-144h327v-133h-478zM137 863h105c1 -31 21 -57 57 -57s56 26 56 57h106c0 -87 -62 -149 -162 -149s-162 62 -162 149z" />
    <glyph glyph-name="ebreve" unicode="&#x115;" horiz-adv-x="535" 
d="M437 142l59 -91c-22 -14 -85 -67 -206 -67c-161 0 -258 103 -258 252c0 132 90 249 242 249c151 0 232 -112 232 -269v-24h-334c1 -51 47 -95 123 -95c75 0 121 29 142 45zM172 284h198c0 39 -31 89 -97 89c-67 0 -101 -50 -101 -89zM118 682h104c1 -29 15 -56 52 -56
c39 0 52 27 52 56h104c0 -83 -62 -142 -156 -142s-156 59 -156 142z" />
    <glyph glyph-name="Edotaccent" unicode="&#x116;" horiz-adv-x="580" 
d="M65 0v667h456v-132h-305v-130h237v-128h-237v-144h327v-133h-478zM229 730v130h139v-130h-139z" />
    <glyph glyph-name="edotaccent" unicode="&#x117;" horiz-adv-x="535" 
d="M437 142l59 -91c-22 -14 -85 -67 -206 -67c-161 0 -258 103 -258 252c0 132 90 249 242 249c151 0 232 -112 232 -269v-24h-334c1 -51 47 -95 123 -95c75 0 121 29 142 45zM172 284h198c0 39 -31 89 -97 89c-67 0 -101 -50 -101 -89zM210 550v122h131v-122h-131z" />
    <glyph glyph-name="Eogonek" unicode="&#x118;" horiz-adv-x="580" 
d="M65 0v667h456v-132h-305v-130h237v-128h-237v-144h327v-133h-51c-21 -21 -49 -56 -49 -80c0 -15 8 -22 25 -22c19 0 35 6 50 17l31 -80c-35 -23 -76 -36 -115 -36c-63 0 -102 27 -102 83c0 43 30 83 63 118h-330z" />
    <glyph glyph-name="eogonek" unicode="&#x119;" horiz-adv-x="535" 
d="M452 -81l30 -79c-33 -23 -76 -35 -113 -35c-60 0 -99 26 -99 81c0 35 20 70 47 99c-11 -1 -18 -1 -27 -1c-161 0 -258 103 -258 252c0 132 90 249 242 249c151 0 232 -112 232 -269v-24h-334c1 -51 47 -95 123 -95c75 0 121 29 142 45l59 -91c-75 -44 -121 -89 -121 -125
c0 -17 8 -25 25 -25c19 0 36 7 52 18zM172 284h198c0 39 -31 89 -97 89c-67 0 -101 -50 -101 -89z" />
    <glyph glyph-name="Ecaron" unicode="&#x11a;" horiz-adv-x="580" 
d="M65 0v667h456v-132h-305v-130h237v-128h-237v-144h327v-133h-478zM243 717l-113 156h120l53 -75l54 75h119l-113 -156h-120z" />
    <glyph glyph-name="ecaron" unicode="&#x11b;" horiz-adv-x="535" 
d="M437 142l59 -91c-22 -14 -85 -67 -206 -67c-161 0 -258 103 -258 252c0 132 90 249 242 249c151 0 232 -112 232 -269v-24h-334c1 -51 47 -95 123 -95c75 0 121 29 142 45zM172 284h198c0 39 -31 89 -97 89c-67 0 -101 -50 -101 -89zM213 540l-105 142h118l49 -67l47 67
h119l-106 -142h-122z" />
    <glyph glyph-name="Gcircumflex" unicode="&#x11c;" horiz-adv-x="723" 
d="M410 245v122h257v-289c-69 -60 -161 -94 -280 -94c-219 0 -348 143 -348 348c0 199 141 352 345 352c121 0 213 -47 273 -127l-102 -97c-43 51 -90 86 -165 86c-123 0 -194 -97 -194 -214c0 -128 85 -211 200 -211c53 0 97 12 132 40v84h-118zM201 717l113 156h120
l113 -156h-120l-53 75l-54 -75h-119z" />
    <glyph glyph-name="gcircumflex" unicode="&#x11d;" horiz-adv-x="560" 
d="M72 -162l58 102c37 -23 78 -36 129 -36c65 0 105 35 105 104v33c-30 -26 -70 -39 -120 -39c-133 0 -212 93 -212 224c0 152 108 253 270 253c77 0 149 -15 205 -35v-429c0 -155 -91 -227 -239 -227c-84 0 -144 15 -196 50zM365 209v141c-19 7 -34 10 -65 10
c-83 0 -123 -60 -123 -129c0 -68 33 -111 96 -111c59 0 92 28 92 89zM128 540l106 142h121l106 -142h-119l-48 66l-47 -66h-119z" />
    <glyph glyph-name="Gbreve" unicode="&#x11e;" horiz-adv-x="723" 
d="M410 245v122h257v-289c-69 -60 -161 -94 -280 -94c-219 0 -348 143 -348 348c0 199 141 352 345 352c121 0 213 -47 273 -127l-102 -97c-43 51 -90 86 -165 86c-123 0 -194 -97 -194 -214c0 -128 85 -211 200 -211c53 0 97 12 132 40v84h-118zM214 863h105
c1 -31 21 -57 57 -57s56 26 56 57h106c0 -87 -62 -149 -162 -149s-162 62 -162 149z" />
    <glyph glyph-name="gbreve" unicode="&#x11f;" horiz-adv-x="560" 
d="M72 -162l58 102c37 -23 78 -36 129 -36c65 0 105 35 105 104v33c-30 -26 -70 -39 -120 -39c-133 0 -212 93 -212 224c0 152 108 253 270 253c77 0 149 -15 205 -35v-429c0 -155 -91 -227 -239 -227c-84 0 -144 15 -196 50zM365 209v141c-19 7 -34 10 -65 10
c-83 0 -123 -60 -123 -129c0 -68 33 -111 96 -111c59 0 92 28 92 89zM144 682h104c1 -29 15 -56 52 -56c39 0 52 27 52 56h104c0 -83 -62 -142 -156 -142s-156 59 -156 142z" />
    <glyph glyph-name="Gdotaccent" unicode="&#x120;" horiz-adv-x="723" 
d="M410 245v122h257v-289c-69 -60 -161 -94 -280 -94c-219 0 -348 143 -348 348c0 199 141 352 345 352c121 0 213 -47 273 -127l-102 -97c-43 51 -90 86 -165 86c-123 0 -194 -97 -194 -214c0 -128 85 -211 200 -211c53 0 97 12 132 40v84h-118zM310 730v130h139v-130h-139
z" />
    <glyph glyph-name="gdotaccent" unicode="&#x121;" horiz-adv-x="560" 
d="M72 -162l58 102c37 -23 78 -36 129 -36c65 0 105 35 105 104v33c-30 -26 -70 -39 -120 -39c-133 0 -212 93 -212 224c0 152 108 253 270 253c77 0 149 -15 205 -35v-429c0 -155 -91 -227 -239 -227c-84 0 -144 15 -196 50zM365 209v141c-19 7 -34 10 -65 10
c-83 0 -123 -60 -123 -129c0 -68 33 -111 96 -111c59 0 92 28 92 89zM240 550v122h131v-122h-131z" />
    <glyph glyph-name="Gcommaaccent" unicode="&#x122;" horiz-adv-x="723" 
d="M410 245v122h257v-289c-69 -60 -161 -94 -280 -94c-219 0 -348 143 -348 348c0 199 141 352 345 352c121 0 213 -47 273 -127l-102 -97c-43 51 -90 86 -165 86c-123 0 -194 -97 -194 -214c0 -128 85 -211 200 -211c53 0 97 12 132 40v84h-118zM259 -209l53 158h156
l-94 -158h-115z" />
    <glyph glyph-name="gcommaaccent" unicode="&#x123;" horiz-adv-x="560" 
d="M72 -162l58 102c37 -23 78 -36 129 -36c65 0 105 35 105 104v33c-30 -26 -70 -39 -120 -39c-133 0 -212 93 -212 224c0 152 108 253 270 253c77 0 149 -15 205 -35v-429c0 -155 -91 -227 -239 -227c-84 0 -144 15 -196 50zM365 209v141c-19 7 -34 10 -65 10
c-83 0 -123 -60 -123 -129c0 -68 33 -111 96 -111c59 0 92 28 92 89zM222 540l85 142h106l-48 -142h-143z" />
    <glyph glyph-name="Hcircumflex" unicode="&#x124;" horiz-adv-x="721" 
d="M65 0v667h151v-256h289v256h151v-667h-151v274h-289v-274h-151zM186 717l113 156h120l113 -156h-120l-53 75l-54 -75h-119z" />
    <glyph glyph-name="hcircumflex" unicode="&#x125;" horiz-adv-x="564" 
d="M53 0v667h143v-243c31 36 86 56 138 56c108 0 178 -65 178 -190v-290h-143v268c0 55 -30 87 -77 87c-62 0 -95 -48 -95 -103v-252h-144zM52 717l113 156h120l113 -156h-120l-53 75l-54 -75h-119z" />
    <glyph glyph-name="Hbar" unicode="&#x126;" horiz-adv-x="721" 
d="M65 0v486h-64v88h64v93h151v-93h289v93h151v-93h64v-88h-64v-486h-151v259h-289v-259h-151zM216 396h289v90h-289v-90z" />
    <glyph glyph-name="hbar" unicode="&#x127;" horiz-adv-x="559" 
d="M51 0v521h-56v82h56v64h143v-64h161v-82h-161v-112c31 36 86 56 138 56c108 0 178 -65 178 -190v-275h-143v253c0 55 -30 87 -77 87c-62 0 -95 -48 -95 -103v-237h-144z" />
    <glyph glyph-name="Itilde" unicode="&#x128;" horiz-adv-x="281" 
d="M65 0v667h151v-667h-151zM-9 724l-54 82c28 31 74 62 129 62c53 0 85 -42 137 -42c41 0 70 18 93 37l54 -82c-29 -31 -74 -63 -129 -63c-53 0 -85 43 -137 43c-43 0 -70 -18 -93 -37z" />
    <glyph glyph-name="itilde" unicode="&#x129;" horiz-adv-x="258" 
d="M-17 541l-51 79c27 29 72 60 124 60s82 -42 133 -42c40 0 67 20 90 37l51 -79c-27 -29 -72 -61 -124 -61c-53 0 -81 42 -133 42c-40 0 -67 -19 -90 -36zM57 0v469h144v-469h-144z" />
    <glyph glyph-name="Imacron" unicode="&#x12a;" horiz-adv-x="281" 
d="M65 0v667h151v-667h-151zM-17 742v106h317v-106h-317z" />
    <glyph glyph-name="imacron" unicode="&#x12b;" horiz-adv-x="258" 
d="M-7 552v102h273v-102h-273zM57 0v469h144v-469h-144z" />
    <glyph glyph-name="Ibreve" unicode="&#x12c;" horiz-adv-x="281" 
d="M65 0v667h151v-667h-151zM-21 863h105c1 -31 21 -57 57 -57s56 26 56 57h106c0 -87 -62 -149 -162 -149s-162 62 -162 149z" />
    <glyph glyph-name="ibreve" unicode="&#x12d;" horiz-adv-x="258" 
d="M-25 682h104c1 -29 15 -56 52 -56c39 0 52 27 52 56h104c0 -83 -62 -142 -156 -142s-156 59 -156 142zM57 0v469h144v-469h-144z" />
    <glyph glyph-name="Iogonek" unicode="&#x12e;" horiz-adv-x="281" 
d="M65 0v667h151v-667c-19 -22 -47 -56 -47 -80c0 -15 8 -22 25 -22c19 0 35 6 50 17l31 -80c-35 -23 -76 -36 -115 -36c-63 0 -102 27 -102 83c0 43 30 83 63 118h-56z" />
    <glyph glyph-name="iogonek" unicode="&#x12f;" horiz-adv-x="258" 
d="M57 0v469h144v-469c-20 -20 -51 -56 -51 -78c0 -14 8 -21 25 -21c19 0 36 6 52 17l30 -78c-33 -23 -76 -35 -113 -35c-60 0 -99 27 -99 80c0 43 30 82 61 115h-49zM52 538v129h154v-129h-154z" />
    <glyph glyph-name="Idotaccent" unicode="&#x130;" horiz-adv-x="281" 
d="M65 0v667h151v-667h-151zM72 730v130h139v-130h-139z" />
    <glyph glyph-name="dotlessi" unicode="&#x131;" horiz-adv-x="258" 
d="M57 0v469h144v-469h-144z" />
    <glyph glyph-name="IJ" unicode="&#x132;" horiz-adv-x="817" 
d="M65 0v667h151v-667h-151zM303 81l98 93c36 -43 71 -59 114 -59c56 0 91 34 91 98v454h151v-464c0 -153 -109 -221 -231 -221c-97 0 -171 33 -223 99z" />
    <glyph glyph-name="ij" unicode="&#x133;" horiz-adv-x="511" 
d="M52 538v129h154v-129h-154zM57 0v469h144v-469h-144zM304 538v129h154v-129h-154zM139 -157l53 97c15 -9 34 -18 57 -18c45 0 61 29 61 80v467h143v-445c0 -117 -31 -224 -180 -224c-57 0 -103 19 -134 43z" />
    <glyph glyph-name="Jcircumflex" unicode="&#x134;" horiz-adv-x="535" 
d="M21 81l98 93c36 -43 71 -59 114 -59c56 0 91 34 91 98v454h151v-464c0 -153 -109 -221 -231 -221c-97 0 -171 33 -223 99zM226 717l113 156h120l113 -156h-120l-53 75l-54 -75h-119z" />
    <glyph glyph-name="jcircumflex" unicode="&#x135;" horiz-adv-x="265" 
d="M-107 -163l53 97c15 -9 34 -18 57 -18c45 0 61 29 61 80v473h143v-451c0 -117 -31 -224 -180 -224c-57 0 -103 19 -134 43zM-32 540l106 142h121l106 -142h-119l-48 66l-47 -66h-119z" />
    <glyph glyph-name="Kcommaaccent" unicode="&#x136;" horiz-adv-x="654" 
d="M65 0v667h151v-266l223 266h175l-229 -260l260 -407h-183l-178 291l-68 -76v-215h-151zM201 -209l53 158h156l-94 -158h-115z" />
    <glyph glyph-name="kcommaaccent" unicode="&#x137;" horiz-adv-x="528" 
d="M53 0v667h144v-346l143 148h163l-168 -173l191 -296h-167l-120 198l-42 -43v-155h-144zM161 -193l48 142h143l-85 -142h-106z" />
    <glyph glyph-name="kgreenlandic" unicode="&#x138;" horiz-adv-x="533" 
d="M53 0v469h144v-148l143 148h163l-168 -173l191 -296h-167l-120 198l-42 -43v-155h-144z" />
    <glyph glyph-name="Lacute" unicode="&#x139;" horiz-adv-x="559" 
d="M65 0v667h151v-533h319v-134h-470zM78 717l73 156h163l-119 -156h-117z" />
    <glyph glyph-name="lacute" unicode="&#x13a;" horiz-adv-x="250" 
d="M53 0v667h144v-667h-144zM61 717l73 156h163l-119 -156h-117z" />
    <glyph glyph-name="Lcommaaccent" unicode="&#x13b;" horiz-adv-x="559" 
d="M65 0v667h151v-533h319v-134h-470zM178 -209l53 158h156l-94 -158h-115z" />
    <glyph glyph-name="lcommaaccent" unicode="&#x13c;" horiz-adv-x="250" 
d="M53 0v667h144v-667h-144zM7 -193l48 142h143l-85 -142h-106z" />
    <glyph glyph-name="Lcaron" unicode="&#x13d;" horiz-adv-x="559" 
d="M301 476v191h139l-37 -191h-102zM65 0v667h151v-533h319v-134h-470z" />
    <glyph glyph-name="lcaron" unicode="&#x13e;" horiz-adv-x="316" 
d="M53 0v667h144v-667h-144zM250 498v169h123l-37 -169h-86z" />
    <glyph glyph-name="Ldot" unicode="&#x13f;" horiz-adv-x="559" 
d="M65 0v667h151v-533h319v-134h-470zM347 325v130h139v-130h-139z" />
    <glyph glyph-name="ldot" unicode="&#x140;" horiz-adv-x="436" 
d="M53 0v667h144v-667h-144zM276 294v126h135v-126h-135z" />
    <glyph glyph-name="Lslash" unicode="&#x141;" horiz-adv-x="559" 
d="M65 0v254l-63 -39v107l63 39v306h151v-211l122 76v-106l-122 -76v-216h319v-134h-470z" />
    <glyph glyph-name="lslash" unicode="&#x142;" horiz-adv-x="273" 
d="M65 0v256l-56 -36v106l56 36v305h144v-215l60 38v-105l-60 -39v-346h-144z" />
    <glyph glyph-name="Nacute" unicode="&#x143;" horiz-adv-x="712" 
d="M65 0v667h144l289 -433v433h149v-667h-137l-296 441v-441h-149zM282 717l73 156h163l-119 -156h-117z" />
    <glyph glyph-name="nacute" unicode="&#x144;" horiz-adv-x="562" 
d="M54 0v469h138l4 -51c31 37 84 62 139 62c108 0 176 -65 176 -190v-290h-144v270c0 52 -27 85 -74 85c-64 0 -96 -48 -96 -103v-252h-143zM229 540l48 142h142l-84 -142h-106z" />
    <glyph glyph-name="Ncommaaccent" unicode="&#x145;" horiz-adv-x="712" 
d="M65 0v667h144l289 -433v433h149v-667h-137l-296 441v-441h-149zM249 -209l53 158h156l-94 -158h-115z" />
    <glyph glyph-name="ncommaaccent" unicode="&#x146;" horiz-adv-x="562" 
d="M54 0v469h138l4 -51c31 37 84 62 139 62c108 0 176 -65 176 -190v-290h-144v270c0 52 -27 85 -74 85c-64 0 -96 -48 -96 -103v-252h-143zM170 -193l48 142h143l-85 -142h-106z" />
    <glyph glyph-name="Ncaron" unicode="&#x147;" horiz-adv-x="712" 
d="M65 0v667h144l289 -433v433h149v-667h-137l-296 441v-441h-149zM292 717l-113 156h120l53 -75l54 75h119l-113 -156h-120z" />
    <glyph glyph-name="ncaron" unicode="&#x148;" horiz-adv-x="562" 
d="M54 0v469h138l4 -51c31 37 84 62 139 62c108 0 176 -65 176 -190v-290h-144v270c0 52 -27 85 -74 85c-64 0 -96 -48 -96 -103v-252h-143zM224 540l-105 142h118l49 -67l47 67h119l-106 -142h-122z" />
    <glyph glyph-name="napostrophe" unicode="&#x149;" horiz-adv-x="562" 
d="M54 0v469h138l4 -51c31 37 84 62 139 62c108 0 176 -65 176 -190v-290h-144v270c0 52 -27 85 -74 85c-64 0 -96 -48 -96 -103v-252h-143zM8 533l7 149h128l-41 -149h-94z" />
    <glyph glyph-name="Eng" unicode="&#x14a;" horiz-adv-x="712" 
d="M65 0v667h144l289 -433v433h149v-655c0 -119 -39 -213 -182 -213c-56 0 -104 20 -135 39l54 99c15 -8 35 -17 58 -17c43 0 57 37 57 80v16l-285 425v-441h-149z" />
    <glyph glyph-name="eng" unicode="&#x14b;" horiz-adv-x="562" 
d="M196 -157l53 98c15 -9 34 -18 57 -18c43 0 61 27 61 74v273c0 52 -28 85 -75 85c-62 0 -95 -48 -95 -103v-252h-144v469h138l5 -51c31 37 83 62 138 62c108 0 176 -65 176 -190v-266c0 -117 -31 -224 -180 -224c-57 0 -103 19 -134 43z" />
    <glyph glyph-name="Omacron" unicode="&#x14c;" horiz-adv-x="772" 
d="M386 -17c-197 0 -347 153 -347 351c0 199 150 351 347 351s347 -152 347 -351c0 -198 -150 -351 -347 -351zM386 125c117 0 189 97 189 211c0 115 -72 209 -189 209c-118 0 -190 -94 -190 -209c0 -114 72 -211 190 -211zM227 742v106h317v-106h-317z" />
    <glyph glyph-name="omacron" unicode="&#x14d;" horiz-adv-x="568" 
d="M284 109c73 0 112 62 112 126s-39 125 -112 125s-113 -61 -113 -125s40 -126 113 -126zM32 235c0 139 103 250 252 250c148 0 251 -111 251 -250c0 -138 -103 -251 -251 -251c-149 0 -252 113 -252 251zM148 552v102h273v-102h-273z" />
    <glyph glyph-name="Obreve" unicode="&#x14e;" horiz-adv-x="772" 
d="M386 -17c-197 0 -347 153 -347 351c0 199 150 351 347 351s347 -152 347 -351c0 -198 -150 -351 -347 -351zM386 125c117 0 189 97 189 211c0 115 -72 209 -189 209c-118 0 -190 -94 -190 -209c0 -114 72 -211 190 -211zM223 863h105c1 -31 21 -57 57 -57s56 26 56 57
h106c0 -87 -62 -149 -162 -149s-162 62 -162 149z" />
    <glyph glyph-name="obreve" unicode="&#x14f;" horiz-adv-x="568" 
d="M284 109c73 0 112 62 112 126s-39 125 -112 125s-113 -61 -113 -125s40 -126 113 -126zM32 235c0 139 103 250 252 250c148 0 251 -111 251 -250c0 -138 -103 -251 -251 -251c-149 0 -252 113 -252 251zM128 682h104c1 -29 15 -56 52 -56c39 0 52 27 52 56h104
c0 -83 -62 -142 -156 -142s-156 59 -156 142z" />
    <glyph glyph-name="Ohungarumlaut" unicode="&#x150;" horiz-adv-x="772" 
d="M386 -17c-197 0 -347 153 -347 351c0 199 150 351 347 351s347 -152 347 -351c0 -198 -150 -351 -347 -351zM386 125c117 0 189 97 189 211c0 115 -72 209 -189 209c-118 0 -190 -94 -190 -209c0 -114 72 -211 190 -211zM237 717l72 156h150l-115 -156h-107zM431 717
l72 156h150l-115 -156h-107z" />
    <glyph glyph-name="ohungarumlaut" unicode="&#x151;" horiz-adv-x="568" 
d="M284 109c73 0 112 62 112 126s-39 125 -112 125s-113 -61 -113 -125s40 -126 113 -126zM32 235c0 139 103 250 252 250c148 0 251 -111 251 -250c0 -138 -103 -251 -251 -251c-149 0 -252 113 -252 251zM320 540l47 142h131l-81 -142h-97zM148 540l47 142h131l-80 -142
h-98z" />
    <glyph glyph-name="OE" unicode="&#x152;" horiz-adv-x="1076" 
d="M582 0v80c-43 -56 -114 -95 -211 -95c-188 0 -332 151 -332 349c0 199 148 349 335 349c107 0 179 -46 208 -96v80h435v-132h-305v-130h238v-128h-238v-144h327v-133h-457zM386 125c117 0 189 97 189 211c0 115 -71 209 -190 209c-117 0 -189 -94 -189 -209
c0 -114 72 -211 190 -211z" />
    <glyph glyph-name="oe" unicode="&#x153;" horiz-adv-x="895" 
d="M797 142l59 -91c-22 -14 -85 -67 -206 -67c-84 0 -148 28 -193 77c-39 -47 -101 -77 -173 -77c-149 0 -252 113 -252 251c0 139 103 250 252 250c73 0 133 -30 173 -77c41 48 101 77 177 77c156 0 232 -115 232 -269v-24h-334c1 -51 47 -95 123 -95c75 0 121 29 142 45z
M532 284h198c0 39 -31 89 -97 89c-67 0 -101 -50 -101 -89zM284 109c73 0 112 62 112 126s-39 125 -112 125s-113 -61 -113 -125s40 -126 113 -126z" />
    <glyph glyph-name="Racute" unicode="&#x154;" horiz-adv-x="607" 
d="M65 0v667h248c156 0 234 -94 234 -209c0 -87 -40 -152 -109 -191l148 -267h-166l-124 245h-84v-245h-147zM212 366h93c56 0 90 37 90 88c0 55 -34 89 -90 89h-93v-177zM202 717l73 156h163l-119 -156h-117z" />
    <glyph glyph-name="racute" unicode="&#x155;" horiz-adv-x="393" 
d="M53 0v469h138l5 -59c24 32 64 68 131 68c25 0 42 -2 59 -9l-23 -127c-15 5 -32 7 -52 7c-68 0 -114 -42 -114 -117v-232h-144zM157 540l48 142h142l-84 -142h-106z" />
    <glyph glyph-name="Rcommaaccent" unicode="&#x156;" horiz-adv-x="607" 
d="M65 0v667h248c156 0 234 -94 234 -209c0 -87 -40 -152 -109 -191l148 -267h-166l-124 245h-84v-245h-147zM212 366h93c56 0 90 37 90 88c0 55 -34 89 -90 89h-93v-177zM188 -209l53 158h156l-94 -158h-115z" />
    <glyph glyph-name="rcommaaccent" unicode="&#x157;" horiz-adv-x="393" 
d="M53 0v469h138l5 -59c24 32 64 68 131 68c25 0 42 -2 59 -9l-23 -127c-15 5 -32 7 -52 7c-68 0 -114 -42 -114 -117v-232h-144zM8 -193l48 142h143l-85 -142h-106z" />
    <glyph glyph-name="Rcaron" unicode="&#x158;" horiz-adv-x="607" 
d="M65 0v667h248c156 0 234 -94 234 -209c0 -87 -40 -152 -109 -191l148 -267h-166l-124 245h-84v-245h-147zM212 366h93c56 0 90 37 90 88c0 55 -34 89 -90 89h-93v-177zM223 717l-113 156h120l53 -75l54 75h119l-113 -156h-120z" />
    <glyph glyph-name="rcaron" unicode="&#x159;" horiz-adv-x="393" 
d="M53 0v469h138l5 -59c24 32 64 68 131 68c25 0 42 -2 59 -9l-23 -127c-15 5 -32 7 -52 7c-68 0 -114 -42 -114 -117v-232h-144zM156 540l-105 142h118l49 -67l47 67h119l-106 -142h-122z" />
    <glyph glyph-name="Sacute" unicode="&#x15a;" horiz-adv-x="591" 
d="M24 94l97 105c35 -37 94 -82 171 -82c45 0 96 28 96 73c0 49 -46 71 -150 98c-102 24 -176 90 -176 191c0 111 80 206 244 206c138 0 203 -65 228 -90l-87 -96c-29 24 -78 60 -143 60c-43 0 -87 -28 -87 -63c0 -45 51 -71 135 -90c99 -24 198 -77 198 -215
c0 -120 -113 -208 -256 -208c-132 0 -219 54 -270 111zM235 717l73 156h163l-119 -156h-117z" />
    <glyph glyph-name="sacute" unicode="&#x15b;" horiz-adv-x="482" 
d="M30 53l71 92c31 -28 86 -49 133 -49c43 0 74 8 74 39c0 25 -20 36 -109 60c-73 19 -146 58 -146 144c0 87 85 146 198 146c80 0 137 -18 188 -53l-61 -95c-31 20 -70 39 -119 39c-44 0 -63 -14 -63 -35c0 -31 44 -40 115 -59c96 -27 137 -71 137 -148
c0 -103 -103 -150 -208 -150c-84 0 -163 22 -210 69zM189 540l48 142h142l-84 -142h-106z" />
    <glyph glyph-name="Scircumflex" unicode="&#x15c;" horiz-adv-x="591" 
d="M24 94l97 105c35 -37 94 -82 171 -82c45 0 96 28 96 73c0 49 -46 71 -150 98c-102 24 -176 90 -176 191c0 111 80 206 244 206c138 0 203 -65 228 -90l-87 -96c-29 24 -78 60 -143 60c-43 0 -87 -28 -87 -63c0 -45 51 -71 135 -90c99 -24 198 -77 198 -215
c0 -120 -113 -208 -256 -208c-132 0 -219 54 -270 111zM130 717l113 156h120l113 -156h-120l-53 75l-54 -75h-119z" />
    <glyph glyph-name="scircumflex" unicode="&#x15d;" horiz-adv-x="482" 
d="M30 53l71 92c31 -28 86 -49 133 -49c43 0 74 8 74 39c0 25 -20 36 -109 60c-73 19 -146 58 -146 144c0 87 85 146 198 146c80 0 137 -18 188 -53l-61 -95c-31 20 -70 39 -119 39c-44 0 -63 -14 -63 -35c0 -31 44 -40 115 -59c96 -27 137 -71 137 -148
c0 -103 -103 -150 -208 -150c-84 0 -163 22 -210 69zM88 540l106 142h121l106 -142h-119l-48 66l-47 -66h-119z" />
    <glyph glyph-name="Scedilla" unicode="&#x15e;" horiz-adv-x="591" 
d="M18 94l97 105c35 -37 94 -82 171 -82c45 0 96 28 96 73c0 49 -46 71 -150 98c-102 24 -176 90 -176 191c0 111 80 206 244 206c138 0 203 -65 228 -90l-87 -96c-29 24 -78 60 -143 60c-43 0 -87 -28 -87 -63c0 -45 51 -71 135 -90c99 -24 198 -77 198 -215
c0 -120 -113 -208 -256 -208c-132 0 -219 54 -270 111zM170 -207l14 72c24 -8 48 -12 71 -12c27 0 55 4 55 27c0 19 -24 25 -51 25c-23 0 -47 -3 -67 -10l13 68c27 8 52 11 87 11c65 0 119 -31 119 -91c0 -73 -70 -105 -136 -105c-51 0 -88 8 -105 15z" />
    <glyph glyph-name="scedilla" unicode="&#x15f;" horiz-adv-x="482" 
d="M30 53l71 92c31 -28 86 -49 133 -49c43 0 74 8 74 39c0 25 -20 36 -109 60c-73 19 -146 58 -146 144c0 87 85 146 198 146c80 0 137 -18 188 -53l-61 -95c-31 20 -70 39 -119 39c-44 0 -63 -14 -63 -35c0 -31 44 -40 115 -59c96 -27 137 -71 137 -148
c0 -103 -103 -150 -208 -150c-84 0 -163 22 -210 69zM118 -215l14 71c24 -8 47 -13 70 -13c28 0 56 7 56 30c0 20 -24 27 -52 27c-24 0 -46 -4 -66 -12l13 68c27 7 51 12 86 12c65 0 117 -32 117 -93c0 -72 -67 -106 -134 -106c-51 0 -87 9 -104 16z" />
    <glyph glyph-name="Scaron" unicode="&#x160;" horiz-adv-x="591" 
d="M24 94l97 105c35 -37 94 -82 171 -82c45 0 96 28 96 73c0 49 -46 71 -150 98c-102 24 -176 90 -176 191c0 111 80 206 244 206c138 0 203 -65 228 -90l-87 -96c-29 24 -78 60 -143 60c-43 0 -87 -28 -87 -63c0 -45 51 -71 135 -90c99 -24 198 -77 198 -215
c0 -120 -113 -208 -256 -208c-132 0 -219 54 -270 111zM246 717l-113 156h120l53 -75l54 75h119l-113 -156h-120z" />
    <glyph glyph-name="scaron" unicode="&#x161;" horiz-adv-x="482" 
d="M30 53l71 92c31 -28 86 -49 133 -49c43 0 74 8 74 39c0 25 -20 36 -109 60c-73 19 -146 58 -146 144c0 87 85 146 198 146c80 0 137 -18 188 -53l-61 -95c-31 20 -70 39 -119 39c-44 0 -63 -14 -63 -35c0 -31 44 -40 115 -59c96 -27 137 -71 137 -148
c0 -103 -103 -150 -208 -150c-84 0 -163 22 -210 69zM193 540l-105 142h118l49 -67l47 67h119l-106 -142h-122z" />
    <glyph glyph-name="Tcommaaccent" unicode="&#x162;" horiz-adv-x="625" 
d="M237 0v534h-216v133h583v-133h-215v-534h-152zM182 -209l53 158h156l-94 -158h-115z" />
    <glyph glyph-name="tcommaaccent" unicode="&#x163;" horiz-adv-x="418" 
d="M88 179v177h-74v113h74v142h144v-142h121v-113h-121v-185c0 -45 17 -71 56 -71c29 0 49 12 68 25l58 -88c-45 -36 -95 -54 -148 -54c-133 0 -178 80 -178 196zM129 -193l48 142h143l-85 -142h-106z" />
    <glyph glyph-name="Tcaron" unicode="&#x164;" horiz-adv-x="625" 
d="M237 0v534h-216v133h583v-133h-215v-534h-152zM252 717l-113 156h120l53 -75l54 75h119l-113 -156h-120z" />
    <glyph glyph-name="tcaron" unicode="&#x165;" horiz-adv-x="418" 
d="M284 515v152h123l-38 -152h-85zM88 179v177h-74v113h74v142h144v-142h121v-113h-121v-185c0 -45 17 -71 56 -71c29 0 49 12 68 25l58 -88c-45 -36 -95 -54 -148 -54c-133 0 -178 80 -178 196z" />
    <glyph glyph-name="Tbar" unicode="&#x166;" horiz-adv-x="626" 
d="M237 0v251h-117v97h117v186h-216v133h583v-133h-215v-186h116v-97h-116v-251h-152z" />
    <glyph glyph-name="tbar" unicode="&#x167;" horiz-adv-x="418" 
d="M14 197v85h74v74h-74v113h74v142h144v-142h121v-113h-121v-74h121v-85h-121v-26c0 -45 16 -71 56 -71c29 0 49 12 68 25l58 -88c-44 -35 -93 -53 -148 -53c-141 0 -178 87 -178 213h-74z" />
    <glyph glyph-name="Utilde" unicode="&#x168;" horiz-adv-x="680" 
d="M60 253v414h152v-395c0 -87 32 -145 128 -145c94 0 127 58 127 145v395h153v-414c0 -160 -108 -271 -280 -271s-280 110 -280 271zM186 724l-54 82c28 31 74 62 129 62c53 0 85 -42 137 -42c41 0 70 18 93 37l54 -82c-29 -31 -74 -63 -129 -63c-53 0 -85 43 -137 43
c-43 0 -70 -18 -93 -37z" />
    <glyph glyph-name="utilde" unicode="&#x169;" horiz-adv-x="561" 
d="M51 178v291h144v-270c0 -53 26 -86 77 -86c59 0 92 49 92 103v253h143v-469h-138l-4 50c-31 -36 -84 -62 -139 -62c-108 0 -175 65 -175 190zM132 541l-51 79c27 29 72 60 124 60s82 -42 133 -42c40 0 67 20 90 37l51 -79c-27 -29 -72 -61 -124 -61c-53 0 -81 42 -133 42
c-40 0 -67 -19 -90 -36z" />
    <glyph glyph-name="Umacron" unicode="&#x16a;" horiz-adv-x="680" 
d="M60 253v414h152v-395c0 -87 32 -145 128 -145c94 0 127 58 127 145v395h153v-414c0 -160 -108 -271 -280 -271s-280 110 -280 271zM181 742v106h317v-106h-317z" />
    <glyph glyph-name="umacron" unicode="&#x16b;" horiz-adv-x="561" 
d="M51 178v291h144v-270c0 -53 26 -86 77 -86c59 0 92 49 92 103v253h143v-469h-138l-4 50c-31 -36 -84 -62 -139 -62c-108 0 -175 65 -175 190zM146 552v102h273v-102h-273z" />
    <glyph glyph-name="Ubreve" unicode="&#x16c;" horiz-adv-x="680" 
d="M60 253v414h152v-395c0 -87 32 -145 128 -145c94 0 127 58 127 145v395h153v-414c0 -160 -108 -271 -280 -271s-280 110 -280 271zM178 863h105c1 -31 21 -57 57 -57s56 26 56 57h106c0 -87 -62 -149 -162 -149s-162 62 -162 149z" />
    <glyph glyph-name="ubreve" unicode="&#x16d;" horiz-adv-x="561" 
d="M51 178v291h144v-270c0 -53 26 -86 77 -86c59 0 92 49 92 103v253h143v-469h-138l-4 50c-31 -36 -84 -62 -139 -62c-108 0 -175 65 -175 190zM123 682h104c1 -29 15 -56 52 -56c39 0 52 27 52 56h104c0 -83 -62 -142 -156 -142s-156 59 -156 142z" />
    <glyph glyph-name="Uring" unicode="&#x16e;" horiz-adv-x="680" 
d="M60 253v414h152v-395c0 -87 32 -145 128 -145c94 0 127 58 127 145v395h153v-414c0 -160 -108 -271 -280 -271s-280 110 -280 271zM205 810c0 76 60 133 136 133s137 -57 137 -133s-60 -132 -136 -132s-137 56 -137 132zM342 762c27 0 46 21 46 48c0 28 -19 48 -47 48
c-27 0 -46 -20 -46 -48c0 -27 19 -48 47 -48z" />
    <glyph glyph-name="uring" unicode="&#x16f;" horiz-adv-x="561" 
d="M51 178v291h144v-270c0 -53 26 -86 77 -86c59 0 92 49 92 103v253h143v-469h-138l-4 50c-31 -36 -84 -62 -139 -62c-108 0 -175 65 -175 190zM159 645c0 68 55 116 120 116c67 0 121 -48 121 -116c0 -66 -55 -116 -120 -116c-67 0 -121 50 -121 116zM279 604
c23 0 41 18 41 41s-17 41 -40 41s-41 -18 -41 -41s17 -41 40 -41z" />
    <glyph glyph-name="Uhungarumlaut" unicode="&#x170;" horiz-adv-x="680" 
d="M60 253v414h152v-395c0 -87 32 -145 128 -145c94 0 127 58 127 145v395h153v-414c0 -160 -108 -271 -280 -271s-280 110 -280 271zM178 717l72 156h150l-115 -156h-107zM372 717l72 156h150l-115 -156h-107z" />
    <glyph glyph-name="uhungarumlaut" unicode="&#x171;" horiz-adv-x="561" 
d="M51 178v291h144v-270c0 -53 26 -86 77 -86c59 0 92 49 92 103v253h143v-469h-138l-4 50c-31 -36 -84 -62 -139 -62c-108 0 -175 65 -175 190zM312 540l47 142h131l-81 -142h-97zM140 540l47 142h131l-80 -142h-98z" />
    <glyph glyph-name="Uogonek" unicode="&#x172;" horiz-adv-x="680" 
d="M60 253v414h152v-395c0 -87 32 -145 128 -145c94 0 127 58 127 145v395h153v-414c0 -123 -62 -216 -169 -253c-21 -21 -49 -56 -49 -80c0 -15 8 -22 25 -22c19 0 35 6 50 17l31 -80c-35 -23 -76 -36 -115 -36c-63 0 -102 27 -102 83c0 36 19 69 46 100
c-169 0 -277 112 -277 271z" />
    <glyph glyph-name="uogonek" unicode="&#x173;" horiz-adv-x="561" 
d="M51 178v291h144v-270c0 -53 26 -86 77 -86c59 0 92 49 92 103v253h143v-469c-20 -20 -51 -56 -51 -78c0 -14 8 -21 25 -21c19 0 36 6 52 17l30 -78c-33 -23 -76 -35 -113 -35c-60 0 -99 27 -99 80c0 43 30 82 61 115h-43l-4 50c-31 -36 -84 -62 -139 -62
c-108 0 -175 65 -175 190z" />
    <glyph glyph-name="Wcircumflex" unicode="&#x174;" horiz-adv-x="905" 
d="M177 0l-167 667h162l98 -483l117 465h137l118 -465l97 483h156l-170 -667h-159l-114 436l-116 -436h-159zM282 717l113 156h120l113 -156h-120l-53 75l-54 -75h-119z" />
    <glyph glyph-name="wcircumflex" unicode="&#x175;" horiz-adv-x="769" 
d="M168 0l-161 469h148l82 -301l91 301h115l92 -301l82 301h145l-161 -469h-130l-88 262l-87 -262h-128zM222 540l106 142h121l106 -142h-119l-48 66l-47 -66h-119z" />
    <glyph glyph-name="Ycircumflex" unicode="&#x176;" horiz-adv-x="636" 
d="M241 0v279l-234 388h171l145 -252l141 252h164l-234 -387v-280h-153zM146 717l113 156h120l113 -156h-120l-53 75l-54 -75h-119z" />
    <glyph glyph-name="ycircumflex" unicode="&#x177;" horiz-adv-x="550" 
d="M21 -173l58 99c16 -12 35 -23 58 -23c31 0 49 17 68 64l14 38l-214 464h164l117 -296l106 296h153l-192 -466c-43 -104 -74 -215 -206 -215c-51 0 -91 14 -126 39zM111 540l106 142h121l106 -142h-119l-48 66l-47 -66h-119z" />
    <glyph glyph-name="Ydieresis" unicode="&#x178;" horiz-adv-x="636" 
d="M241 0v279l-234 388h171l145 -252l141 252h164l-234 -387v-280h-153zM362 734v122h132v-122h-132zM143 734v122h132v-122h-132z" />
    <glyph glyph-name="Zacute" unicode="&#x179;" horiz-adv-x="635" 
d="M39 0v123l365 411h-348v133h533v-124l-358 -411h365v-132h-557zM251 717l73 156h163l-119 -156h-117z" />
    <glyph glyph-name="zacute" unicode="&#x17a;" horiz-adv-x="490" 
d="M40 0v97l230 256h-220v116h402v-99l-231 -257h232v-113h-413zM210 540l48 142h142l-84 -142h-106z" />
    <glyph glyph-name="Zdotaccent" unicode="&#x17b;" horiz-adv-x="635" 
d="M39 0v123l365 411h-348v133h533v-124l-358 -411h365v-132h-557zM258 730v130h139v-130h-139z" />
    <glyph glyph-name="zdotaccent" unicode="&#x17c;" horiz-adv-x="490" 
d="M40 0v97l230 256h-220v116h402v-99l-231 -257h232v-113h-413zM196 550v122h131v-122h-131z" />
    <glyph glyph-name="Zcaron" unicode="&#x17d;" horiz-adv-x="635" 
d="M39 0v123l365 411h-348v133h533v-124l-358 -411h365v-132h-557zM272 717l-113 156h120l53 -75l54 75h119l-113 -156h-120z" />
    <glyph glyph-name="zcaron" unicode="&#x17e;" horiz-adv-x="490" 
d="M40 0v97l230 256h-220v116h402v-99l-231 -257h232v-113h-413zM201 540l-105 142h118l49 -67l47 67h119l-106 -142h-122z" />
    <glyph glyph-name="longs" unicode="&#x17f;" horiz-adv-x="261" 
d="M53 0v481c0 125 66 204 193 204c51 0 105 -10 150 -51l-62 -93c-19 13 -43 25 -66 25c-51 0 -69 -26 -72 -86c0 -161 1 -319 1 -480h-144z" />
    <glyph glyph-name="florin" unicode="&#x192;" horiz-adv-x="545" 
d="M-100 -146l72 97c17 -15 40 -26 67 -26c40 0 64 17 79 92l47 259h-73l5 114h89l15 75c23 113 80 183 207 183c71 0 121 -29 149 -56l-71 -94c-19 15 -41 26 -68 26c-43 0 -64 -17 -79 -93l-8 -41h101l-5 -114h-116l-44 -247c-24 -139 -73 -228 -221 -228
c-56 0 -113 26 -146 53z" />
    <glyph glyph-name="Scommaaccent" unicode="&#x218;" horiz-adv-x="591" 
d="M18 94l97 105c35 -37 94 -82 171 -82c45 0 96 28 96 73c0 49 -46 71 -150 98c-102 24 -176 90 -176 191c0 111 80 206 244 206c138 0 203 -65 228 -90l-87 -96c-29 24 -78 60 -143 60c-43 0 -87 -28 -87 -63c0 -45 51 -71 135 -90c99 -24 198 -77 198 -215
c0 -120 -113 -208 -256 -208c-132 0 -219 54 -270 111zM176 -209l53 158h156l-94 -158h-115z" />
    <glyph glyph-name="scommaaccent" unicode="&#x219;" horiz-adv-x="482" 
d="M30 53l71 92c31 -28 86 -49 133 -49c43 0 74 8 74 39c0 25 -20 36 -109 60c-73 19 -146 58 -146 144c0 87 85 146 198 146c80 0 137 -18 188 -53l-61 -95c-31 20 -70 39 -119 39c-44 0 -63 -14 -63 -35c0 -31 44 -40 115 -59c96 -27 137 -71 137 -148
c0 -103 -103 -150 -208 -150c-84 0 -163 22 -210 69zM136 -193l48 142h143l-85 -142h-106z" />
    <glyph glyph-name="uni021A" unicode="&#x21a;" horiz-adv-x="625" 
d="M237 0v534h-216v133h583v-133h-215v-534h-152zM182 -209l53 158h156l-94 -158h-115z" />
    <glyph glyph-name="uni021B" unicode="&#x21b;" horiz-adv-x="418" 
d="M88 179v177h-74v113h74v142h144v-142h121v-113h-121v-185c0 -45 17 -71 56 -71c29 0 49 12 68 25l58 -88c-45 -36 -95 -54 -148 -54c-133 0 -178 80 -178 196zM125 -193l48 142h143l-85 -142h-106z" />
    <glyph glyph-name="dotlessj" unicode="&#x237;" horiz-adv-x="265" 
d="M-107 -163l53 97c15 -9 34 -18 57 -18c45 0 61 29 61 80v473h143v-451c0 -117 -31 -224 -180 -224c-57 0 -103 19 -134 43z" />
    <glyph glyph-name="apostrophe" unicode="&#x2bc;" horiz-adv-x="113" 
d="M5 533l7 149h128l-41 -149h-94z" />
    <glyph glyph-name="circumflex" unicode="&#x2c6;" horiz-adv-x="444" 
d="M56 540l106 142h121l106 -142h-119l-48 66l-47 -66h-119z" />
    <glyph glyph-name="caron" unicode="&#x2c7;" horiz-adv-x="444" 
d="M161 540l-105 142h118l49 -67l47 67h119l-106 -142h-122z" />
    <glyph glyph-name="uni02C9" unicode="&#x2c9;" horiz-adv-x="393" 
d="M60 552v102h273v-102h-273z" />
    <glyph glyph-name="breve" unicode="&#x2d8;" horiz-adv-x="450" 
d="M76 682h104c1 -29 15 -56 52 -56c39 0 52 27 52 56h104c0 -83 -62 -142 -156 -142s-156 59 -156 142z" />
    <glyph glyph-name="dotaccent" unicode="&#x2d9;" horiz-adv-x="349" 
d="M109 550v122h131v-122h-131z" />
    <glyph glyph-name="ring" unicode="&#x2da;" horiz-adv-x="377" 
d="M68 645c0 68 55 116 120 116c67 0 121 -48 121 -116c0 -66 -55 -116 -120 -116c-67 0 -121 50 -121 116zM188 604c23 0 41 18 41 41s-17 41 -40 41s-41 -18 -41 -41s17 -41 40 -41z" />
    <glyph glyph-name="ogonek" unicode="&#x2db;" horiz-adv-x="369" 
d="M148 0h95c-20 -20 -51 -56 -51 -78c0 -14 8 -21 25 -21c19 0 36 6 52 17l30 -78c-33 -23 -76 -35 -113 -35c-60 0 -99 27 -99 80c0 43 30 82 61 115z" />
    <glyph glyph-name="tilde" unicode="&#x2dc;" horiz-adv-x="451" 
d="M77 541l-51 79c27 29 72 60 124 60s82 -42 133 -42c40 0 67 20 90 37l51 -79c-27 -29 -72 -61 -124 -61c-53 0 -81 42 -133 42c-40 0 -67 -19 -90 -36z" />
    <glyph glyph-name="hungarumlaut" unicode="&#x2dd;" horiz-adv-x="442" 
d="M218 540l47 142h131l-81 -142h-97zM46 540l47 142h131l-80 -142h-98z" />
    <glyph glyph-name="pi" unicode="&#x3c0;" horiz-adv-x="705" 
d="M147 0v356h-98v113h604v-113h-98v-187c0 -43 8 -57 41 -57c13 0 26 3 37 6l27 -107c-29 -12 -72 -17 -105 -17c-103 0 -142 65 -142 164l-1 198h-122v-356h-143z" />
    <glyph glyph-name="Wgrave" unicode="&#x1e80;" horiz-adv-x="905" 
d="M177 0l-167 667h162l98 -483l117 465h137l118 -465l97 483h156l-170 -667h-159l-114 436l-116 -436h-159zM390 717l-119 156h163l73 -156h-117z" />
    <glyph glyph-name="wgrave" unicode="&#x1e81;" horiz-adv-x="769" 
d="M168 0l-161 469h148l82 -301l91 301h115l92 -301l82 301h145l-161 -469h-130l-88 262l-87 -262h-128zM337 540l-85 142h143l48 -142h-106z" />
    <glyph glyph-name="Wacute" unicode="&#x1e82;" horiz-adv-x="905" 
d="M177 0l-167 667h162l98 -483l117 465h137l118 -465l97 483h156l-170 -667h-159l-114 436l-116 -436h-159zM400 717l73 156h163l-119 -156h-117z" />
    <glyph glyph-name="wacute" unicode="&#x1e83;" horiz-adv-x="769" 
d="M168 0l-161 469h148l82 -301l91 301h115l92 -301l82 301h145l-161 -469h-130l-88 262l-87 -262h-128zM331 540l48 142h142l-84 -142h-106z" />
    <glyph glyph-name="Wdieresis" unicode="&#x1e84;" horiz-adv-x="905" 
d="M177 0l-167 667h162l98 -483l117 465h137l118 -465l97 483h156l-170 -667h-159l-114 436l-116 -436h-159zM497 734v122h132v-122h-132zM278 734v122h132v-122h-132z" />
    <glyph glyph-name="wdieresis" unicode="&#x1e85;" horiz-adv-x="769" 
d="M168 0l-161 469h148l82 -301l91 301h115l92 -301l82 301h145l-161 -469h-130l-88 262l-87 -262h-128zM419 554v114h123v-114h-123zM226 554v114h123v-114h-123z" />
    <glyph glyph-name="Ygrave" unicode="&#x1ef2;" horiz-adv-x="636" 
d="M241 0v279l-234 388h171l145 -252l141 252h164l-234 -387v-280h-153zM270 717l-119 156h163l73 -156h-117z" />
    <glyph glyph-name="ygrave" unicode="&#x1ef3;" horiz-adv-x="550" 
d="M21 -173l58 99c16 -12 35 -23 58 -23c31 0 49 17 68 64l14 38l-214 464h164l117 -296l106 296h153l-192 -466c-43 -104 -74 -215 -206 -215c-51 0 -91 14 -126 39zM236 540l-85 142h143l48 -142h-106z" />
    <glyph glyph-name="endash" unicode="&#x2013;" horiz-adv-x="500" 
d="M0 211v137h500v-137h-500z" />
    <glyph glyph-name="emdash" unicode="&#x2014;" horiz-adv-x="1000" 
d="M0 211v137h1000v-137h-1000z" />
    <glyph glyph-name="quoteleft" unicode="&#x2018;" horiz-adv-x="281" 
d="M44 437l72 229h107l-24 -229h-155z" />
    <glyph glyph-name="quoteright" unicode="&#x2019;" horiz-adv-x="281" 
d="M57 437l24 229h156l-73 -229h-107z" />
    <glyph glyph-name="quotesinglbase" unicode="&#x201a;" horiz-adv-x="281" 
d="M57 -76l24 229h156l-73 -229h-107z" />
    <glyph glyph-name="quotedblleft" unicode="&#x201c;" horiz-adv-x="488" 
d="M250 437l72 229h107l-24 -229h-155zM44 437l72 229h107l-24 -229h-155z" />
    <glyph glyph-name="quotedblright" unicode="&#x201d;" horiz-adv-x="488" 
d="M263 437l24 229h156l-73 -229h-107zM57 437l24 229h156l-73 -229h-107z" />
    <glyph glyph-name="quotedblbase" unicode="&#x201e;" horiz-adv-x="487" 
d="M57 -76l24 229h156l-73 -229h-107zM263 -76l24 229h156l-73 -229h-107z" />
    <glyph glyph-name="dagger" unicode="&#x2020;" horiz-adv-x="542" 
d="M201 -121v483h-144v121h144v184h140v-184h144v-121h-144v-483h-140z" />
    <glyph glyph-name="daggerdbl" unicode="&#x2021;" horiz-adv-x="547" 
d="M204 -121v183h-145v121h145v179h-145v121h145v184h139v-184h145v-121h-145v-179h145v-121h-145v-183h-139z" />
    <glyph glyph-name="bullet" unicode="&#x2022;" horiz-adv-x="439" 
d="M76 337c0 80 63 143 143 143c79 0 144 -63 144 -143s-65 -143 -144 -143c-80 0 -143 63 -143 143z" />
    <glyph glyph-name="ellipsis" unicode="&#x2026;" horiz-adv-x="855" 
d="M61 0v159h163v-159h-163zM631 0v159h163v-159h-163zM346 0v159h163v-159h-163z" />
    <glyph glyph-name="perthousand" unicode="&#x2030;" horiz-adv-x="1301" 
d="M195 0l402 630h125l-400 -630h-127zM714 -10c-101 0 -161 69 -161 182s60 180 161 180s161 -67 161 -180s-60 -182 -161 -182zM714 77c35 0 53 39 53 95c0 55 -18 94 -53 94s-53 -39 -53 -94c0 -56 18 -95 53 -95zM1091 -10c-101 0 -161 69 -161 182s60 180 161 180
s161 -67 161 -180s-60 -182 -161 -182zM1091 77c35 0 53 39 53 95c0 55 -18 94 -53 94s-53 -39 -53 -94c0 -56 18 -95 53 -95zM209 284c-101 0 -161 69 -161 182s60 180 161 180s161 -67 161 -180s-60 -182 -161 -182zM209 371c35 0 53 39 53 95c0 55 -18 94 -53 94
s-53 -39 -53 -94c0 -56 18 -95 53 -95z" />
    <glyph glyph-name="guilsinglleft" unicode="&#x2039;" horiz-adv-x="356" 
d="M157 44l-104 197l104 197h142l-102 -197l102 -197h-142z" />
    <glyph glyph-name="guilsinglright" unicode="&#x203a;" horiz-adv-x="356" 
d="M57 44l102 197l-102 197h142l104 -197l-104 -197h-142z" />
    <glyph glyph-name="fraction" unicode="&#x2044;" horiz-adv-x="195" 
d="M-165 0l402 630h125l-400 -630h-127z" />
    <glyph glyph-name="zerosuperior" unicode="&#x2070;" 
d="M179 284c-101 0 -161 69 -161 182s60 180 161 180s161 -67 161 -180s-60 -182 -161 -182zM179 371c35 0 53 39 53 95c0 55 -18 94 -53 94s-53 -39 -53 -94c0 -56 18 -95 53 -95z" />
    <glyph glyph-name="foursuperior" unicode="&#x2074;" 
d="M27 353v79l160 205h111v-210h39v-74h-39v-59h-98v59h-173zM109 427h91v121z" />
    <glyph glyph-name="fivesuperior" unicode="&#x2075;" 
d="M22 325l49 75c27 -19 57 -31 89 -31c21 0 54 5 54 36c0 25 -31 35 -56 35c-17 0 -38 -4 -57 -12l-48 38l39 171h207v-84h-133l-10 -45c11 3 24 4 36 4c65 0 126 -31 126 -106c0 -76 -71 -123 -154 -123c-51 0 -103 15 -142 42z" />
    <glyph glyph-name="sixsuperior" unicode="&#x2076;" 
d="M308 623l-35 -78c-13 7 -34 15 -61 15c-43 0 -70 -26 -77 -61c16 8 42 16 73 16c72 0 122 -39 122 -110c0 -64 -55 -121 -146 -121c-77 0 -154 50 -154 168s76 194 180 194c40 0 73 -11 98 -23zM134 425c1 -37 18 -60 49 -60c28 0 50 14 50 39c0 23 -18 36 -46 36
c-19 0 -40 -7 -53 -15z" />
    <glyph glyph-name="sevensuperior" unicode="&#x2077;" 
d="M187 294h-115c32 93 91 194 131 257h-161v86h273v-82c-40 -62 -101 -173 -128 -261z" />
    <glyph glyph-name="eightsuperior" unicode="&#x2078;" 
d="M85 475c-29 18 -44 42 -44 72c0 68 73 99 137 99c65 0 138 -29 138 -99c0 -31 -17 -56 -44 -72c33 -15 59 -43 59 -82c0 -78 -80 -109 -153 -109c-72 0 -152 31 -152 109c0 39 27 66 59 82zM176 505c20 7 43 15 43 38c0 21 -21 31 -41 31s-41 -10 -41 -31
c0 -23 20 -31 39 -38zM180 442c-23 -7 -48 -23 -48 -47c0 -23 23 -33 46 -33s46 10 46 33c0 24 -24 40 -44 47z" />
    <glyph glyph-name="ninesuperior" unicode="&#x2079;" 
d="M47 308l34 78c15 -8 40 -15 67 -15c49 0 71 24 75 63c-15 -9 -41 -17 -70 -17c-75 0 -125 40 -125 109c0 65 55 120 146 120c77 0 154 -49 154 -166s-61 -196 -184 -196c-43 0 -78 13 -97 24zM224 505c-1 39 -18 61 -49 61c-29 0 -49 -14 -49 -39c0 -23 18 -36 45 -36
c20 0 41 7 53 14z" />
    <glyph glyph-name="zeroinferior" unicode="&#x2080;" 
d="M179 -9c-101 0 -161 69 -161 182s60 180 161 180s161 -67 161 -180s-60 -182 -161 -182zM179 78c35 0 53 39 53 95c0 55 -18 94 -53 94s-53 -39 -53 -94c0 -56 18 -95 53 -95z" />
    <glyph glyph-name="oneinferior" unicode="&#x2081;" 
d="M165 1v234l-72 -36l-40 79l124 66h97v-343h-109z" />
    <glyph glyph-name="twoinferior" unicode="&#x2082;" 
d="M44 1v54c0 98 162 134 162 183c0 19 -14 27 -35 27c-27 0 -60 -13 -88 -32l-46 72c41 28 88 48 144 48c83 0 135 -39 135 -106c0 -93 -91 -109 -146 -159h148v-87h-274z" />
    <glyph glyph-name="threeinferior" unicode="&#x2083;" 
d="M22 34l49 75c27 -19 58 -31 90 -31c28 0 49 11 49 35c0 29 -27 36 -55 36c-16 0 -35 -3 -50 -7l-21 43l109 75h-138v84h247v-76l-74 -59c64 -11 88 -52 88 -104c0 -73 -71 -114 -154 -114c-53 0 -101 16 -140 43z" />
    <glyph glyph-name="fourinferior" unicode="&#x2084;" 
d="M27 60v79l160 205h111v-210h39v-74h-39v-59h-98v59h-173zM109 134h91v121z" />
    <glyph glyph-name="fiveinferior" unicode="&#x2085;" 
d="M22 32l49 75c27 -19 57 -31 89 -31c21 0 54 5 54 36c0 25 -31 35 -56 35c-17 0 -38 -4 -57 -12l-48 38l39 171h207v-84h-133l-10 -45c11 3 24 4 36 4c65 0 126 -31 126 -106c0 -76 -71 -123 -154 -123c-51 0 -103 15 -142 42z" />
    <glyph glyph-name="sixinferior" unicode="&#x2086;" 
d="M308 330l-35 -78c-13 7 -34 15 -61 15c-43 0 -70 -26 -77 -61c16 8 42 16 73 16c72 0 122 -39 122 -110c0 -64 -55 -121 -146 -121c-77 0 -154 50 -154 168s76 194 180 194c40 0 73 -11 98 -23zM134 132c1 -37 18 -60 49 -60c28 0 50 14 50 39c0 23 -18 36 -46 36
c-19 0 -40 -7 -53 -15z" />
    <glyph glyph-name="seveninferior" unicode="&#x2087;" 
d="M187 1h-115c32 93 91 194 131 257h-161v86h273v-82c-40 -62 -101 -173 -128 -261z" />
    <glyph glyph-name="eightinferior" unicode="&#x2088;" 
d="M85 182c-29 18 -44 42 -44 72c0 68 73 99 137 99c65 0 138 -29 138 -99c0 -31 -17 -56 -44 -72c33 -15 59 -43 59 -82c0 -78 -80 -109 -153 -109c-72 0 -152 31 -152 109c0 39 27 66 59 82zM176 212c20 7 43 15 43 38c0 21 -21 31 -41 31s-41 -10 -41 -31
c0 -23 20 -31 39 -38zM180 149c-23 -7 -48 -23 -48 -47c0 -23 23 -33 46 -33s46 10 46 33c0 24 -24 40 -44 47z" />
    <glyph glyph-name="nineinferior" unicode="&#x2089;" 
d="M47 15l34 78c15 -8 40 -15 67 -15c49 0 71 24 75 63c-15 -9 -41 -17 -70 -17c-75 0 -125 40 -125 109c0 65 55 120 146 120c77 0 154 -49 154 -166s-61 -196 -184 -196c-43 0 -78 13 -97 24zM224 212c-1 39 -18 61 -49 61c-29 0 -49 -14 -49 -39c0 -23 18 -36 45 -36
c20 0 41 7 53 14z" />
    <glyph glyph-name="Euro" unicode="&#x20ac;" horiz-adv-x="545" 
d="M12 202l28 80h57c-1 12 -1 24 -1 36v31h-77l27 81h62c32 125 116 218 258 218c76 0 137 -27 182 -76l-75 -96c-27 29 -60 43 -101 43c-60 0 -95 -37 -114 -89h168l-27 -81h-156c-1 -11 -1 -20 -1 -31c0 -12 0 -24 1 -36h172l-28 -80h-127c19 -51 53 -86 112 -86
c44 0 75 14 102 42l74 -95c-45 -49 -106 -76 -182 -76c-141 0 -224 91 -256 215h-98z" />
    <glyph glyph-name="afii61289" unicode="&#x2113;" horiz-adv-x="469" 
d="M129 225v212c0 189 52 253 144 253c68 0 117 -52 117 -144c0 -121 -67 -227 -184 -336v-20c0 -108 34 -131 79 -131c43 0 86 25 107 56l40 -38c-36 -53 -87 -86 -156 -86c-93 0 -146 50 -146 167c-17 -13 -32 -23 -49 -35c-7 15 -16 29 -25 44c25 17 49 37 73 58z
M206 490v-201c72 80 117 164 117 256c0 64 -25 87 -54 87c-35 0 -63 -41 -63 -142z" />
    <glyph glyph-name="trademark" unicode="&#x2122;" horiz-adv-x="878" 
d="M418 284l15 383h94l99 -161l99 161h97l15 -383h-101l-8 225l-78 -132h-49l-78 127l-7 -220h-98zM154 284v290h-124v93h357v-93h-124v-290h-109z" />
    <glyph glyph-name="Omega" unicode="&#x3a9;" horiz-adv-x="801" 
d="M44 0v132h125c-75 56 -114 137 -114 229c0 196 155 324 345 324c189 0 346 -128 346 -324c0 -92 -39 -173 -114 -229h124v-132h-299v133c84 30 132 124 132 216c0 112 -70 196 -189 196c-126 0 -188 -96 -188 -196c0 -92 47 -187 132 -216v-133h-300z" />
    <glyph glyph-name="estimated" unicode="&#x212e;" horiz-adv-x="890" 
d="M193 335v-197c0 -9 3 -16 9 -22c64 -68 148 -107 245 -107c105 0 195 47 259 119h57c-69 -84 -189 -139 -317 -139c-221 0 -400 161 -400 360s179 361 400 361c222 0 402 -162 402 -361v-10h-650c-3 0 -5 -1 -5 -4zM198 358h498c3 0 4 2 4 7v197c0 9 -3 17 -9 24
c-64 64 -148 102 -244 102c-95 0 -181 -42 -244 -106c-7 -5 -10 -15 -10 -24v-193c0 -5 2 -7 5 -7z" />
    <glyph glyph-name="onequarter" unicode="&#xbc;" horiz-adv-x="900" 
d="M181 0l402 630h125l-400 -630h-127zM165 294v234l-72 -36l-40 79l124 66h97v-343h-109zM523 59v79l160 205h111v-210h39v-74h-39v-59h-98v59h-173zM605 133h91v121z" />
    <glyph glyph-name="onehalf" unicode="&#xbd;" horiz-adv-x="925" 
d="M175 0l402 630h125l-400 -630h-127zM161 294v234l-72 -36l-40 79l124 66h97v-343h-109zM584 1v54c0 98 162 134 162 183c0 19 -14 27 -35 27c-27 0 -60 -13 -88 -32l-46 72c41 28 88 48 144 48c83 0 135 -39 135 -106c0 -93 -91 -109 -146 -159h148v-87h-274z" />
    <glyph glyph-name="threequarters" unicode="&#xbe;" horiz-adv-x="925" 
d="M217 0l402 630h125l-400 -630h-127zM554 60v79l160 205h111v-210h39v-74h-39v-59h-98v59h-173zM636 134h91v121zM63 327l49 75c27 -19 58 -31 90 -31c28 0 49 11 49 35c0 29 -27 36 -55 36c-16 0 -35 -3 -50 -7l-21 43l109 75h-138v84h247v-76l-74 -59
c64 -11 88 -52 88 -104c0 -73 -71 -114 -154 -114c-53 0 -101 16 -140 43z" />
    <glyph glyph-name="onethird" unicode="&#x2153;" horiz-adv-x="925" 
d="M176 0l402 630h125l-400 -630h-127zM165 294v234l-72 -36l-40 79l124 66h97v-343h-109zM560 34l49 75c27 -19 58 -31 90 -31c28 0 49 11 49 35c0 29 -27 36 -55 36c-16 0 -35 -3 -50 -7l-21 43l109 75h-138v84h247v-76l-74 -59c64 -11 88 -52 88 -104
c0 -73 -71 -114 -154 -114c-53 0 -101 16 -140 43z" />
    <glyph glyph-name="twothirds" unicode="&#x2154;" horiz-adv-x="925" 
d="M207 0l402 630h125l-400 -630h-127zM56 294v54c0 98 162 134 162 183c0 19 -14 27 -35 27c-27 0 -60 -13 -88 -32l-46 72c41 28 88 48 144 48c83 0 135 -39 135 -106c0 -93 -91 -109 -146 -159h148v-87h-274zM585 34l49 75c27 -19 58 -31 90 -31c28 0 49 11 49 35
c0 29 -27 36 -55 36c-16 0 -35 -3 -50 -7l-21 43l109 75h-138v84h247v-76l-74 -59c64 -11 88 -52 88 -104c0 -73 -71 -114 -154 -114c-53 0 -101 16 -140 43z" />
    <glyph glyph-name="oneeighth" unicode="&#x215b;" horiz-adv-x="925" 
d="M171 0l402 630h125l-400 -630h-127zM160 294v234l-72 -36l-40 79l124 66h97v-343h-109zM616 182c-29 18 -44 42 -44 72c0 68 73 99 137 99c65 0 138 -29 138 -99c0 -31 -17 -56 -44 -72c33 -15 59 -43 59 -82c0 -78 -80 -109 -153 -109c-72 0 -152 31 -152 109
c0 39 27 66 59 82zM707 212c20 7 43 15 43 38c0 21 -21 31 -41 31s-41 -10 -41 -31c0 -23 20 -31 39 -38zM711 149c-23 -7 -48 -23 -48 -47c0 -23 23 -33 46 -33s46 10 46 33c0 24 -24 40 -44 47z" />
    <glyph glyph-name="threeeighths" unicode="&#x215c;" horiz-adv-x="925" 
d="M196 0l402 630h125l-400 -630h-127zM639 182c-29 18 -44 42 -44 72c0 68 73 99 137 99c65 0 138 -29 138 -99c0 -31 -17 -56 -44 -72c33 -15 59 -43 59 -82c0 -78 -80 -109 -153 -109c-72 0 -152 31 -152 109c0 39 27 66 59 82zM730 212c20 7 43 15 43 38
c0 21 -21 31 -41 31s-41 -10 -41 -31c0 -23 20 -31 39 -38zM734 149c-23 -7 -48 -23 -48 -47c0 -23 23 -33 46 -33s46 10 46 33c0 24 -24 40 -44 47zM42 327l49 75c27 -19 58 -31 90 -31c28 0 49 11 49 35c0 29 -27 36 -55 36c-16 0 -35 -3 -50 -7l-21 43l109 75h-138v84
h247v-76l-74 -59c64 -11 88 -52 88 -104c0 -73 -71 -114 -154 -114c-53 0 -101 16 -140 43z" />
    <glyph glyph-name="fiveeighths" unicode="&#x215d;" horiz-adv-x="925" 
d="M198 0l402 630h125l-400 -630h-127zM45 325l49 75c27 -19 57 -31 89 -31c21 0 54 5 54 36c0 25 -31 35 -56 35c-17 0 -38 -4 -57 -12l-48 38l39 171h207v-84h-133l-10 -45c11 3 24 4 36 4c65 0 126 -31 126 -106c0 -76 -71 -123 -154 -123c-51 0 -103 15 -142 42z
M638 182c-29 18 -44 42 -44 72c0 68 73 99 137 99c65 0 138 -29 138 -99c0 -31 -17 -56 -44 -72c33 -15 59 -43 59 -82c0 -78 -80 -109 -153 -109c-72 0 -152 31 -152 109c0 39 27 66 59 82zM729 212c20 7 43 15 43 38c0 21 -21 31 -41 31s-41 -10 -41 -31
c0 -23 20 -31 39 -38zM733 149c-23 -7 -48 -23 -48 -47c0 -23 23 -33 46 -33s46 10 46 33c0 24 -24 40 -44 47z" />
    <glyph glyph-name="seveneighths" unicode="&#x215e;" horiz-adv-x="925" 
d="M168 0l402 630h125l-400 -630h-127zM614 182c-29 18 -44 42 -44 72c0 68 73 99 137 99c65 0 138 -29 138 -99c0 -31 -17 -56 -44 -72c33 -15 59 -43 59 -82c0 -78 -80 -109 -153 -109c-72 0 -152 31 -152 109c0 39 27 66 59 82zM705 212c20 7 43 15 43 38
c0 21 -21 31 -41 31s-41 -10 -41 -31c0 -23 20 -31 39 -38zM709 149c-23 -7 -48 -23 -48 -47c0 -23 23 -33 46 -33s46 10 46 33c0 24 -24 40 -44 47zM216 294h-115c32 93 91 194 131 257h-161v86h273v-82c-40 -62 -101 -173 -128 -261z" />
    <glyph glyph-name="onefifth" unicode="&#x2155;" horiz-adv-x="925" 
d="M179 0l402 630h125l-400 -630h-127zM165 294v234l-72 -36l-40 79l124 66h97v-343h-109zM556 32l49 75c27 -19 57 -31 89 -31c21 0 54 5 54 36c0 25 -31 35 -56 35c-17 0 -38 -4 -57 -12l-48 38l39 171h207v-84h-133l-10 -45c11 3 24 4 36 4c65 0 126 -31 126 -106
c0 -76 -71 -123 -154 -123c-51 0 -103 15 -142 42z" />
    <glyph glyph-name="twofifths" unicode="&#x2156;" horiz-adv-x="925" 
d="M211 0l402 630h125l-400 -630h-127zM60 294v54c0 98 162 134 162 183c0 19 -14 27 -35 27c-27 0 -60 -13 -88 -32l-46 72c41 28 88 48 144 48c83 0 135 -39 135 -106c0 -93 -91 -109 -146 -159h148v-87h-274zM578 32l49 75c27 -19 57 -31 89 -31c21 0 54 5 54 36
c0 25 -31 35 -56 35c-17 0 -38 -4 -57 -12l-48 38l39 171h207v-84h-133l-10 -45c11 3 24 4 36 4c65 0 126 -31 126 -106c0 -76 -71 -123 -154 -123c-51 0 -103 15 -142 42z" />
    <glyph glyph-name="threefifths" unicode="&#x2157;" horiz-adv-x="925" 
d="M205 0l402 630h125l-400 -630h-127zM572 32l49 75c27 -19 57 -31 89 -31c21 0 54 5 54 36c0 25 -31 35 -56 35c-17 0 -38 -4 -57 -12l-48 38l39 171h207v-84h-133l-10 -45c11 3 24 4 36 4c65 0 126 -31 126 -106c0 -76 -71 -123 -154 -123c-51 0 -103 15 -142 42zM54 327
l49 75c27 -19 58 -31 90 -31c28 0 49 11 49 35c0 29 -27 36 -55 36c-16 0 -35 -3 -50 -7l-21 43l109 75h-138v84h247v-76l-74 -59c64 -11 88 -52 88 -104c0 -73 -71 -114 -154 -114c-53 0 -101 16 -140 43z" />
    <glyph glyph-name="fourfifths" unicode="&#x2158;" horiz-adv-x="925" 
d="M210 0l402 630h125l-400 -630h-127zM579 32l49 75c27 -19 57 -31 89 -31c21 0 54 5 54 36c0 25 -31 35 -56 35c-17 0 -38 -4 -57 -12l-48 38l39 171h207v-84h-133l-10 -45c11 3 24 4 36 4c65 0 126 -31 126 -106c0 -76 -71 -123 -154 -123c-51 0 -103 15 -142 42zM41 353
v79l160 205h111v-210h39v-74h-39v-59h-98v59h-173zM123 427h91v121z" />
    <glyph glyph-name="onesixth" unicode="&#x2159;" horiz-adv-x="925" 
d="M184 0l402 630h125l-400 -630h-127zM168 294v234l-72 -36l-40 79l124 66h97v-343h-109zM835 330l-35 -78c-13 7 -34 15 -61 15c-43 0 -70 -26 -77 -61c16 8 42 16 73 16c72 0 122 -39 122 -110c0 -64 -55 -121 -146 -121c-77 0 -154 50 -154 168s76 194 180 194
c40 0 73 -11 98 -23zM661 132c1 -37 18 -60 49 -60c28 0 50 14 50 39c0 23 -18 36 -46 36c-19 0 -40 -7 -53 -15z" />
    <glyph glyph-name="fivesixths" unicode="&#x215a;" horiz-adv-x="925" 
d="M205 0l402 630h125l-400 -630h-127zM847 330l-35 -78c-13 7 -34 15 -61 15c-43 0 -70 -26 -77 -61c16 8 42 16 73 16c72 0 122 -39 122 -110c0 -64 -55 -121 -146 -121c-77 0 -154 50 -154 168s76 194 180 194c40 0 73 -11 98 -23zM673 132c1 -37 18 -60 49 -60
c28 0 50 14 50 39c0 23 -18 36 -46 36c-19 0 -40 -7 -53 -15zM54 325l49 75c27 -19 57 -31 89 -31c21 0 54 5 54 36c0 25 -31 35 -56 35c-17 0 -38 -4 -57 -12l-48 38l39 171h207v-84h-133l-10 -45c11 3 24 4 36 4c65 0 126 -31 126 -106c0 -76 -71 -123 -154 -123
c-51 0 -103 15 -142 42z" />
    <glyph glyph-name="oneseventh" unicode="&#xf506;" horiz-adv-x="925" 
d="M175 0l402 630h125l-400 -630h-127zM166 294v234l-72 -36l-40 79l124 66h97v-343h-109zM723 1h-115c32 93 91 194 131 257h-161v86h273v-82c-40 -62 -101 -173 -128 -261z" />
    <glyph glyph-name="twosevenths" unicode="&#xf507;" horiz-adv-x="925" 
d="M202 0l402 630h125l-400 -630h-127zM56 294v54c0 98 162 134 162 183c0 19 -14 27 -35 27c-27 0 -60 -13 -88 -32l-46 72c41 28 88 48 144 48c83 0 135 -39 135 -106c0 -93 -91 -109 -146 -159h148v-87h-274zM744 1h-115c32 93 91 194 131 257h-161v86h273v-82
c-40 -62 -101 -173 -128 -261z" />
    <glyph glyph-name="threesevenths" unicode="&#xf508;" horiz-adv-x="925" 
d="M200 0l402 630h125l-400 -630h-127zM747 1h-115c32 93 91 194 131 257h-161v86h273v-82c-40 -62 -101 -173 -128 -261zM50 327l49 75c27 -19 58 -31 90 -31c28 0 49 11 49 35c0 29 -27 36 -55 36c-16 0 -35 -3 -50 -7l-21 43l109 75h-138v84h247v-76l-74 -59
c64 -11 88 -52 88 -104c0 -73 -71 -114 -154 -114c-53 0 -101 16 -140 43z" />
    <glyph glyph-name="foursevenths" unicode="&#xf509;" horiz-adv-x="925" 
d="M204 0l402 630h125l-400 -630h-127zM46 353v79l160 205h111v-210h39v-74h-39v-59h-98v59h-173zM128 427h91v121zM746 1h-115c32 93 91 194 131 257h-161v86h273v-82c-40 -62 -101 -173 -128 -261z" />
    <glyph glyph-name="fivesevenths" unicode="&#xf50a;" horiz-adv-x="925" 
d="M198 0l402 630h125l-400 -630h-127zM51 325l49 75c27 -19 57 -31 89 -31c21 0 54 5 54 36c0 25 -31 35 -56 35c-17 0 -38 -4 -57 -12l-48 38l39 171h207v-84h-133l-10 -45c11 3 24 4 36 4c65 0 126 -31 126 -106c0 -76 -71 -123 -154 -123c-51 0 -103 15 -142 42zM745 1
h-115c32 93 91 194 131 257h-161v86h273v-82c-40 -62 -101 -173 -128 -261z" />
    <glyph glyph-name="sixsevenths" unicode="&#xf50b;" horiz-adv-x="925" 
d="M199 0l402 630h125l-400 -630h-127zM325 623l-35 -78c-13 7 -34 15 -61 15c-43 0 -70 -26 -77 -61c16 8 42 16 73 16c72 0 122 -39 122 -110c0 -64 -55 -121 -146 -121c-77 0 -154 50 -154 168s76 194 180 194c40 0 73 -11 98 -23zM151 425c1 -37 18 -60 49 -60
c28 0 50 14 50 39c0 23 -18 36 -46 36c-19 0 -40 -7 -53 -15zM744 1h-115c32 93 91 194 131 257h-161v86h273v-82c-40 -62 -101 -173 -128 -261z" />
    <glyph glyph-name="oneninth" unicode="&#xf50c;" horiz-adv-x="925" 
d="M171 0l402 630h125l-400 -630h-127zM163 294v234l-72 -36l-40 79l124 66h97v-343h-109zM578 15l34 78c15 -8 40 -15 67 -15c49 0 71 24 75 63c-15 -9 -41 -17 -70 -17c-75 0 -125 40 -125 109c0 65 55 120 146 120c77 0 154 -49 154 -166s-61 -196 -184 -196
c-43 0 -78 13 -97 24zM755 212c-1 39 -18 61 -49 61c-29 0 -49 -14 -49 -39c0 -23 18 -36 45 -36c20 0 41 7 53 14z" />
    <glyph glyph-name="twoninths" unicode="&#xf50d;" horiz-adv-x="925" 
d="M201 0l402 630h125l-400 -630h-127zM53 294v54c0 98 162 134 162 183c0 19 -14 27 -35 27c-27 0 -60 -13 -88 -32l-46 72c41 28 88 48 144 48c83 0 135 -39 135 -106c0 -93 -91 -109 -146 -159h148v-87h-274zM601 15l34 78c15 -8 40 -15 67 -15c49 0 71 24 75 63
c-15 -9 -41 -17 -70 -17c-75 0 -125 40 -125 109c0 65 55 120 146 120c77 0 154 -49 154 -166s-61 -196 -184 -196c-43 0 -78 13 -97 24zM778 212c-1 39 -18 61 -49 61c-29 0 -49 -14 -49 -39c0 -23 18 -36 45 -36c20 0 41 7 53 14z" />
    <glyph glyph-name="fourninths" unicode="&#xf50e;" horiz-adv-x="925" 
d="M203 0l402 630h125l-400 -630h-127zM40 353v79l160 205h111v-210h39v-74h-39v-59h-98v59h-173zM122 427h91v121zM600 15l34 78c15 -8 40 -15 67 -15c49 0 71 24 75 63c-15 -9 -41 -17 -70 -17c-75 0 -125 40 -125 109c0 65 55 120 146 120c77 0 154 -49 154 -166
s-61 -196 -184 -196c-43 0 -78 13 -97 24zM777 212c-1 39 -18 61 -49 61c-29 0 -49 -14 -49 -39c0 -23 18 -36 45 -36c20 0 41 7 53 14z" />
    <glyph glyph-name="fiveninths" unicode="&#xf50f;" horiz-adv-x="925" 
d="M198 0l402 630h125l-400 -630h-127zM49 325l49 75c27 -19 57 -31 89 -31c21 0 54 5 54 36c0 25 -31 35 -56 35c-17 0 -38 -4 -57 -12l-48 38l39 171h207v-84h-133l-10 -45c11 3 24 4 36 4c65 0 126 -31 126 -106c0 -76 -71 -123 -154 -123c-51 0 -103 15 -142 42zM599 15
l34 78c15 -8 40 -15 67 -15c49 0 71 24 75 63c-15 -9 -41 -17 -70 -17c-75 0 -125 40 -125 109c0 65 55 120 146 120c77 0 154 -49 154 -166s-61 -196 -184 -196c-43 0 -78 13 -97 24zM776 212c-1 39 -18 61 -49 61c-29 0 -49 -14 -49 -39c0 -23 18 -36 45 -36
c20 0 41 7 53 14z" />
    <glyph glyph-name="sevenninths" unicode="&#xf510;" horiz-adv-x="925" 
d="M159 0l402 630h125l-400 -630h-127zM568 15l34 78c15 -8 40 -15 67 -15c49 0 71 24 75 63c-15 -9 -41 -17 -70 -17c-75 0 -125 40 -125 109c0 65 55 120 146 120c77 0 154 -49 154 -166s-61 -196 -184 -196c-43 0 -78 13 -97 24zM745 212c-1 39 -18 61 -49 61
c-29 0 -49 -14 -49 -39c0 -23 18 -36 45 -36c20 0 41 7 53 14zM213 294h-115c32 93 91 194 131 257h-161v86h273v-82c-40 -62 -101 -173 -128 -261z" />
    <glyph glyph-name="eightninths" unicode="&#xf511;" horiz-adv-x="925" 
d="M201 0l402 630h125l-400 -630h-127zM601 15l34 78c15 -8 40 -15 67 -15c49 0 71 24 75 63c-15 -9 -41 -17 -70 -17c-75 0 -125 40 -125 109c0 65 55 120 146 120c77 0 154 -49 154 -166s-61 -196 -184 -196c-43 0 -78 13 -97 24zM778 212c-1 39 -18 61 -49 61
c-29 0 -49 -14 -49 -39c0 -23 18 -36 45 -36c20 0 41 7 53 14zM101 475c-29 18 -44 42 -44 72c0 68 73 99 137 99c65 0 138 -29 138 -99c0 -31 -17 -56 -44 -72c33 -15 59 -43 59 -82c0 -78 -80 -109 -153 -109c-72 0 -152 31 -152 109c0 39 27 66 59 82zM192 505
c20 7 43 15 43 38c0 21 -21 31 -41 31s-41 -10 -41 -31c0 -23 20 -31 39 -38zM196 442c-23 -7 -48 -23 -48 -47c0 -23 23 -33 46 -33s46 10 46 33c0 24 -24 40 -44 47z" />
    <glyph glyph-name="partialdiff" unicode="&#x2202;" horiz-adv-x="552" 
d="M151 493l-53 107c40 24 110 48 179 48c160 0 240 -124 240 -289c0 -236 -117 -376 -290 -376c-123 0 -197 78 -197 189c0 137 106 242 230 242c51 0 87 -9 118 -28c0 69 -39 136 -119 136c-50 0 -92 -21 -108 -29zM367 267c-24 16 -56 30 -100 30
c-56 0 -102 -43 -102 -107c0 -51 28 -82 76 -82c68 0 111 56 126 159z" />
    <glyph glyph-name="Delta" unicode="&#x2206;" horiz-adv-x="729" 
d="M34 0v125l256 542h149l256 -542v-125h-661zM189 134h350l-178 381z" />
    <glyph glyph-name="product" unicode="&#x220f;" horiz-adv-x="763" 
d="M127 -123v655h-108v135h725v-135h-108v-655h-151v655h-207v-655h-151z" />
    <glyph glyph-name="summation" unicode="&#x2211;" horiz-adv-x="586" 
d="M39 -122v130l186 272l-186 257v130h508v-133h-332l184 -254l-184 -268h332v-134h-508z" />
    <glyph glyph-name="uni2126" unicode="&#x2126;" horiz-adv-x="801" 
d="M44 0v132h125c-75 56 -114 137 -114 229c0 196 155 324 345 324c189 0 346 -128 346 -324c0 -92 -39 -173 -114 -229h124v-132h-299v133c84 30 132 124 132 216c0 112 -70 196 -189 196c-126 0 -188 -96 -188 -196c0 -92 47 -187 132 -216v-133h-300z" />
    <glyph glyph-name="minus" unicode="&#x2212;" horiz-adv-x="545" 
d="M73 261v115h399v-115h-399z" />
    <glyph glyph-name="uni2215" unicode="&#x2215;" horiz-adv-x="198" 
d="M-164 0l402 630h125l-400 -630h-127z" />
    <glyph glyph-name="uni2219" unicode="&#x2219;" horiz-adv-x="257" 
d="M61 294v126h135v-126h-135z" />
    <glyph glyph-name="radical" unicode="&#x221a;" horiz-adv-x="617" 
d="M261 0l-133 266h-83v137h171l100 -211l172 540h145l-235 -732h-137z" />
    <glyph glyph-name="infinity" unicode="&#x221e;" horiz-adv-x="702" 
d="M303 314c-15 52 -55 85 -88 85c-45 0 -73 -41 -73 -85s26 -86 73 -86c33 0 73 33 88 86zM399 314c15 -53 55 -86 88 -86c47 0 73 42 73 86s-28 85 -73 85c-33 0 -73 -33 -88 -85zM351 191c-23 -34 -80 -72 -139 -72c-108 0 -181 74 -181 195c0 120 73 195 181 195
c60 0 113 -33 140 -72c27 39 79 72 140 72c105 0 179 -75 179 -195c0 -121 -73 -195 -181 -195c-60 0 -112 33 -139 72z" />
    <glyph glyph-name="integral" unicode="&#x222b;" horiz-adv-x="552" 
d="M200 82v396c0 112 55 207 192 207c63 0 114 -18 153 -54l-67 -90c-19 12 -42 23 -65 23c-51 0 -70 -34 -70 -83v-399c0 -109 -55 -204 -192 -204c-62 0 -113 18 -152 54l67 90c17 -13 42 -23 65 -23c52 0 69 34 69 83z" />
    <glyph glyph-name="approxequal" unicode="&#x2248;" horiz-adv-x="553" 
d="M105 338l-55 89c31 35 81 67 138 67c60 0 89 -45 148 -45c47 0 73 19 100 38l56 -90c-29 -31 -86 -68 -136 -68c-61 0 -99 49 -152 49c-47 0 -72 -21 -99 -40zM115 153l-56 89c29 32 80 68 136 68c60 0 93 -46 152 -46c45 0 72 19 99 38l57 -90c-29 -32 -84 -68 -139 -68
c-59 0 -91 49 -149 49c-45 0 -73 -21 -100 -40z" />
    <glyph glyph-name="notequal" unicode="&#x2260;" horiz-adv-x="545" 
d="M100 97l37 68h-64v115h127l38 68h-165v115h228l60 109l79 -40l-38 -69h70v-115h-133l-37 -68h170v-115h-233l-59 -108z" />
    <glyph glyph-name="lessequal" unicode="&#x2264;" horiz-adv-x="545" 
d="M59 330v85l355 187l51 -102l-248 -126l252 -126l-55 -105zM62 0v115h398v-115h-398z" />
    <glyph glyph-name="greaterequal" unicode="&#x2265;" horiz-adv-x="545" 
d="M139 143l-55 105l252 126l-248 126l51 102l355 -187v-85zM93 0v115h398v-115h-398z" />
    <glyph glyph-name="lozenge" unicode="&#x25ca;" horiz-adv-x="589" 
d="M228 0l-198 333l198 334h132l199 -334l-199 -333h-132zM294 129l116 204l-116 204l-115 -204z" />
    <glyph glyph-name="zero.alt" unicode="&#xf800;" horiz-adv-x="577" 
d="M288 -16c-164 0 -248 137 -248 335c0 196 84 329 249 329c169 0 248 -133 248 -329c0 -198 -79 -335 -249 -335zM289 115c73 0 102 90 102 204c0 112 -31 197 -103 197c-73 0 -102 -85 -102 -197c0 -114 28 -204 103 -204z" />
    <glyph glyph-name="one.alt" unicode="&#xf801;" horiz-adv-x="455" 
d="M70 0v123h109v350l-105 -56l-61 110l187 103h119v-507h103v-123h-352z" />
    <glyph glyph-name="two.alt" unicode="&#xf802;" horiz-adv-x="516" 
d="M42 0v85c0 200 279 272 279 372c0 32 -23 66 -82 66c-60 0 -91 -43 -110 -70l-105 73c35 59 108 122 231 122c144 0 213 -89 213 -179c0 -179 -260 -248 -260 -341h263v-128h-429z" />
    <glyph glyph-name="three.alt" unicode="&#xf803;" horiz-adv-x="529" 
d="M6 61l78 102c41 -36 83 -56 135 -56c61 0 107 35 107 95c0 47 -30 89 -98 89c-25 0 -49 -6 -61 -11l-37 59l161 165h-235v125h396v-103l-131 -148c100 -19 152 -87 152 -186c0 -133 -118 -209 -246 -209c-93 0 -168 30 -221 78z" />
    <glyph glyph-name="four.alt" unicode="&#xf804;" horiz-adv-x="549" 
d="M31 115v111l272 404h143v-402h64v-113h-64v-115h-134v115h-281zM160 228h152v233z" />
    <glyph glyph-name="five.alt" unicode="&#xf805;" horiz-adv-x="513" 
d="M3 63l77 100c36 -33 75 -55 131 -55c76 0 107 49 107 100c0 41 -30 95 -110 95c-35 0 -63 -8 -90 -19l-66 49l55 296h340v-126h-241l-19 -101c9 4 38 8 63 8c124 0 212 -78 212 -201c0 -120 -76 -226 -247 -226c-96 0 -161 33 -212 80z" />
    <glyph glyph-name="six.alt" unicode="&#xf806;" horiz-adv-x="545" 
d="M487 608l-54 -111c-16 8 -56 27 -101 27c-71 0 -135 -59 -143 -147c29 19 69 37 120 37c124 0 201 -83 201 -206s-82 -225 -225 -225c-137 0 -242 91 -242 315c0 197 101 350 289 350c72 0 123 -24 155 -40zM186 264c0 -121 48 -157 99 -157c56 0 91 42 91 102
c0 56 -37 90 -88 90c-48 0 -79 -16 -102 -35z" />
    <glyph glyph-name="seven.alt" unicode="&#xf807;" horiz-adv-x="485" 
d="M229 0h-151c51 165 163 409 221 502h-278v128h425v-121c-80 -136 -171 -353 -217 -509z" />
    <glyph glyph-name="eight.alt" unicode="&#xf808;" horiz-adv-x="575" 
d="M287 388c47 15 81 47 81 86c0 43 -33 72 -81 72c-47 0 -82 -30 -82 -74c0 -36 35 -69 82 -84zM286 285c-52 -13 -102 -47 -102 -101c0 -60 52 -86 103 -86c49 0 103 26 103 86c0 54 -54 88 -104 101zM150 347c-40 24 -76 72 -76 132c0 96 84 169 213 169
c134 0 214 -71 214 -167c0 -61 -38 -108 -78 -132c68 -31 111 -87 111 -168c0 -88 -75 -197 -247 -197s-247 102 -247 195c0 81 45 137 110 168z" />
    <glyph glyph-name="nine.alt" unicode="&#xf809;" horiz-adv-x="544" 
d="M57 24l55 112c16 -8 65 -29 110 -29c87 0 128 60 135 143c-27 -17 -67 -36 -124 -36c-124 0 -197 97 -197 208c0 123 81 226 224 226c137 0 241 -92 241 -325c0 -181 -82 -339 -279 -339c-72 0 -134 23 -165 40zM360 367c0 116 -43 156 -98 156c-56 0 -92 -40 -92 -100
c0 -51 34 -91 86 -91c53 0 79 16 104 35z" />
    <glyph glyph-name="zero.sups" unicode="&#xf80a;" 
d="M179 374c-101 0 -161 69 -161 182s60 180 161 180s161 -67 161 -180s-60 -182 -161 -182zM179 461c35 0 53 39 53 95c0 55 -18 94 -53 94s-53 -39 -53 -94c0 -56 18 -95 53 -95z" />
    <glyph glyph-name="one.sups" unicode="&#xf80b;" 
d="M165 384v234l-72 -36l-40 79l124 66h97v-343h-109z" />
    <glyph glyph-name="two.sups" unicode="&#xf80c;" 
d="M44 384v54c0 98 162 134 162 183c0 19 -14 27 -35 27c-27 0 -60 -13 -88 -32l-46 72c41 28 88 48 144 48c83 0 135 -39 135 -106c0 -93 -91 -109 -146 -159h148v-87h-274z" />
    <glyph glyph-name="three.sups" unicode="&#xf80d;" 
d="M22 417l49 75c27 -19 58 -31 90 -31c28 0 49 11 49 35c0 29 -27 36 -55 36c-16 0 -35 -3 -50 -7l-21 43l109 75h-138v84h247v-76l-74 -59c64 -11 88 -52 88 -104c0 -73 -71 -114 -154 -114c-53 0 -101 16 -140 43z" />
    <glyph glyph-name="four.sups" unicode="&#xf80e;" 
d="M27 443v79l160 205h111v-210h39v-74h-39v-59h-98v59h-173zM109 517h91v121z" />
    <glyph glyph-name="five.sups" unicode="&#xf80f;" 
d="M22 415l49 75c27 -19 57 -31 89 -31c21 0 54 5 54 36c0 25 -31 35 -56 35c-17 0 -38 -4 -57 -12l-48 38l39 171h207v-84h-133l-10 -45c11 3 24 4 36 4c65 0 126 -31 126 -106c0 -76 -71 -123 -154 -123c-51 0 -103 15 -142 42z" />
    <glyph glyph-name="six.sups" unicode="&#xf810;" 
d="M308 713l-35 -78c-13 7 -34 15 -61 15c-43 0 -70 -26 -77 -61c16 8 42 16 73 16c72 0 122 -39 122 -110c0 -64 -55 -121 -146 -121c-77 0 -154 50 -154 168s76 194 180 194c40 0 73 -11 98 -23zM134 515c1 -37 18 -60 49 -60c28 0 50 14 50 39c0 23 -18 36 -46 36
c-19 0 -40 -7 -53 -15z" />
    <glyph glyph-name="seven.sups" unicode="&#xf811;" 
d="M187 384h-115c32 93 91 194 131 257h-161v86h273v-82c-40 -62 -101 -173 -128 -261z" />
    <glyph glyph-name="eight.sups" unicode="&#xf812;" 
d="M85 565c-29 18 -44 42 -44 72c0 68 73 99 137 99c65 0 138 -29 138 -99c0 -31 -17 -56 -44 -72c33 -15 59 -43 59 -82c0 -78 -80 -109 -153 -109c-72 0 -152 31 -152 109c0 39 27 66 59 82zM176 595c20 7 43 15 43 38c0 21 -21 31 -41 31s-41 -10 -41 -31
c0 -23 20 -31 39 -38zM180 532c-23 -7 -48 -23 -48 -47c0 -23 23 -33 46 -33s46 10 46 33c0 24 -24 40 -44 47z" />
    <glyph glyph-name="nine.sups" unicode="&#xf813;" 
d="M47 398l34 78c15 -8 40 -15 67 -15c49 0 71 24 75 63c-15 -9 -41 -17 -70 -17c-75 0 -125 40 -125 109c0 65 55 120 146 120c77 0 154 -49 154 -166s-61 -196 -184 -196c-43 0 -78 13 -97 24zM224 595c-1 39 -18 61 -49 61c-29 0 -49 -14 -49 -39c0 -23 18 -36 45 -36
c20 0 41 7 53 14z" />
    <glyph glyph-name="zero.sinf" unicode="&#xf814;" 
d="M179 -99c-101 0 -161 69 -161 182s60 180 161 180s161 -67 161 -180s-60 -182 -161 -182zM179 -12c35 0 53 39 53 95c0 55 -18 94 -53 94s-53 -39 -53 -94c0 -56 18 -95 53 -95z" />
    <glyph glyph-name="one.sinf" unicode="&#xf815;" 
d="M165 -89v234l-72 -36l-40 79l124 66h97v-343h-109z" />
    <glyph glyph-name="two.sinf" unicode="&#xf816;" 
d="M44 -89v54c0 98 162 134 162 183c0 19 -14 27 -35 27c-27 0 -60 -13 -88 -32l-46 72c41 28 88 48 144 48c83 0 135 -39 135 -106c0 -93 -91 -109 -146 -159h148v-87h-274z" />
    <glyph glyph-name="three.sinf" unicode="&#xf817;" 
d="M22 -56l49 75c27 -19 58 -31 90 -31c28 0 49 11 49 35c0 29 -27 36 -55 36c-16 0 -35 -3 -50 -7l-21 43l109 75h-138v84h247v-76l-74 -59c64 -11 88 -52 88 -104c0 -73 -71 -114 -154 -114c-53 0 -101 16 -140 43z" />
    <glyph glyph-name="four.sinf" unicode="&#xf818;" 
d="M27 -30v79l160 205h111v-210h39v-74h-39v-59h-98v59h-173zM109 44h91v121z" />
    <glyph glyph-name="five.sinf" unicode="&#xf819;" 
d="M22 -58l49 75c27 -19 57 -31 89 -31c21 0 54 5 54 36c0 25 -31 35 -56 35c-17 0 -38 -4 -57 -12l-48 38l39 171h207v-84h-133l-10 -45c11 3 24 4 36 4c65 0 126 -31 126 -106c0 -76 -71 -123 -154 -123c-51 0 -103 15 -142 42z" />
    <glyph glyph-name="six.sinf" unicode="&#xf81a;" 
d="M308 240l-35 -78c-13 7 -34 15 -61 15c-43 0 -70 -26 -77 -61c16 8 42 16 73 16c72 0 122 -39 122 -110c0 -64 -55 -121 -146 -121c-77 0 -154 50 -154 168s76 194 180 194c40 0 73 -11 98 -23zM134 42c1 -37 18 -60 49 -60c28 0 50 14 50 39c0 23 -18 36 -46 36
c-19 0 -40 -7 -53 -15z" />
    <glyph glyph-name="seven.sinf" unicode="&#xf81b;" 
d="M187 -89h-115c32 93 91 194 131 257h-161v86h273v-82c-40 -62 -101 -173 -128 -261z" />
    <glyph glyph-name="eight.sinf" unicode="&#xf81c;" 
d="M85 92c-29 18 -44 42 -44 72c0 68 73 99 137 99c65 0 138 -29 138 -99c0 -31 -17 -56 -44 -72c33 -15 59 -43 59 -82c0 -78 -80 -109 -153 -109c-72 0 -152 31 -152 109c0 39 27 66 59 82zM176 122c20 7 43 15 43 38c0 21 -21 31 -41 31s-41 -10 -41 -31
c0 -23 20 -31 39 -38zM180 59c-23 -7 -48 -23 -48 -47c0 -23 23 -33 46 -33s46 10 46 33c0 24 -24 40 -44 47z" />
    <glyph glyph-name="nine.sinf" unicode="&#xf81d;" 
d="M47 -75l34 78c15 -8 40 -15 67 -15c49 0 71 24 75 63c-15 -9 -41 -17 -70 -17c-75 0 -125 40 -125 109c0 65 55 120 146 120c77 0 154 -49 154 -166s-61 -196 -184 -196c-43 0 -78 13 -97 24zM224 122c-1 39 -18 61 -49 61c-29 0 -49 -14 -49 -39c0 -23 18 -36 45 -36
c20 0 41 7 53 14z" />
    <glyph glyph-name="hungarumlaut.cap" horiz-adv-x="469" 
d="M26 717l72 156h150l-115 -156h-107zM220 717l72 156h150l-115 -156h-107z" />
    <glyph glyph-name="cedilla.cap" horiz-adv-x="398" 
d="M94 -207l14 72c24 -8 48 -12 71 -12c27 0 55 4 55 27c0 19 -24 25 -51 25c-23 0 -47 -3 -67 -10l13 68c27 8 52 11 87 11c65 0 119 -31 119 -91c0 -73 -70 -105 -136 -105c-51 0 -88 8 -105 15z" />
    <glyph glyph-name="tilde.cap" horiz-adv-x="465" 
d="M80 724l-54 82c28 31 74 62 129 62c53 0 85 -42 137 -42c41 0 70 18 93 37l54 -82c-29 -31 -74 -63 -129 -63c-53 0 -85 43 -137 43c-43 0 -70 -18 -93 -37z" />
    <glyph glyph-name="ogonek.cap" horiz-adv-x="369" 
d="M147 0h97c-21 -21 -49 -56 -49 -80c0 -15 8 -22 25 -22c19 0 35 6 50 17l31 -80c-35 -23 -76 -36 -115 -36c-63 0 -102 27 -102 83c0 43 30 83 63 118z" />
    <glyph glyph-name="ring.cap" horiz-adv-x="377" 
d="M52 810c0 76 60 133 136 133s137 -57 137 -133s-60 -132 -136 -132s-137 56 -137 132zM189 762c27 0 46 21 46 48c0 28 -19 48 -47 48c-27 0 -46 -20 -46 -48c0 -27 19 -48 47 -48z" />
    <glyph glyph-name="caron.cap" horiz-adv-x="428" 
d="M154 717l-113 156h120l53 -75l54 75h119l-113 -156h-120z" />
    <glyph glyph-name="macron.cap" horiz-adv-x="400" 
d="M41 742v106h317v-106h-317z" />
    <glyph glyph-name="dieresis.cap" horiz-adv-x="381" 
d="M234 734v122h132v-122h-132zM15 734v122h132v-122h-132z" />
    <glyph glyph-name="dotaccent.cap" horiz-adv-x="327" 
d="M94 730v130h139v-130h-139z" />
    <glyph glyph-name="circumflex.cap" horiz-adv-x="428" 
d="M41 717l113 156h120l113 -156h-120l-53 75l-54 -75h-119z" />
    <glyph glyph-name="acute.cap" horiz-adv-x="372" 
d="M68 717l73 156h163l-119 -156h-117z" />
    <glyph glyph-name="grave.cap" horiz-adv-x="372" 
d="M187 717l-119 156h163l73 -156h-117z" />
    <glyph glyph-name="breve.cap" horiz-adv-x="423" 
d="M49 863h105c1 -31 21 -57 57 -57s56 26 56 57h106c0 -87 -62 -149 -162 -149s-162 62 -162 149z" />
    <glyph glyph-name="commaaccent.cap" horiz-adv-x="339" 
d="M65 -209l53 158h156l-94 -158h-115z" />
    <glyph glyph-name="caron.alt" horiz-adv-x="371" 
d="M110 498v169h123l-37 -169h-86z" />
    <glyph glyph-name="commaaccent" horiz-adv-x="310" 
d="M60 -193l48 142h143l-85 -142h-106z" />
    <glyph glyph-name="revcommaaccent" horiz-adv-x="310" 
d="M60 540l85 142h106l-48 -142h-143z" />
    <glyph glyph-name="at.alt" horiz-adv-x="806" 
d="M50 323v16c0 240 180 340 350 340c204 0 366 -124 366 -364c0 -239 -107 -331 -264 -331c-87 0 -133 32 -159 63c-35 -44 -92 -63 -152 -63c-80 0 -167 35 -167 137c0 105 81 153 198 153c37 0 65 -1 86 -4v53h-258zM169 415h139v89h133v-89h106v-92h-106v-162
c0 -52 23 -77 78 -77c95 0 138 81 138 236c0 184 -120 262 -257 262c-153 0 -228 -96 -231 -167zM308 144v44c-8 1 -30 3 -50 3c-73 0 -100 -21 -100 -58c0 -33 22 -50 66 -50c39 0 77 18 84 61z" />
    </font>
</defs>
</svg>
